<?xml version="1.0" encoding="UTF-8"?>
<svg version="1.1" xmlns="http://www.w3.org/2000/svg" width="531" height="470">
<path d="M0 0 C2.78782008 0.01070928 5.57499229 0.00003214 8.36279297 -0.01269531 C38.57935126 -0.03691049 66.88669683 6.00938247 96.05029297 13.29541016 C99.43210734 14.13873092 102.81682978 14.96880998 106.20263672 15.79589844 C124.24320812 20.27475572 142.06670143 25.836464 159.18237305 33.11157227 C162.80556522 34.63170468 166.47808449 35.98532142 170.17138672 37.32324219 C174.90480157 39.06555234 179.46170598 40.91674875 183.91748047 43.28417969 C186.44539966 44.51610912 189.0353476 45.46847543 191.67138672 46.44824219 C197.59947215 48.68512489 203.38917813 51.17072774 209.17138672 53.76074219 C209.99864258 54.1283667 210.82589844 54.49599121 211.67822266 54.87475586 C216.49957168 57.05206168 221.14048674 59.42466625 225.7421875 62.03320312 C228.51391477 63.59451219 231.32692131 65.06874613 234.14550781 66.54321289 C252.97526768 76.39394651 271.13275961 87.38216406 288.11279297 100.17871094 C290.69959863 102.22209241 290.69959863 102.22209241 292.92138672 103.26074219 C292.92138672 103.92074219 292.92138672 104.58074219 292.92138672 105.26074219 C293.63681641 105.4940625 294.35224609 105.72738281 295.08935547 105.96777344 C298.44099279 107.49796923 300.55871121 109.42018198 303.23388672 111.94824219 C304.18908203 112.83898437 305.14427734 113.72972656 306.12841797 114.64746094 C307.5109375 115.94103516 307.5109375 115.94103516 308.92138672 117.26074219 C310.41422075 118.60209387 311.91326325 119.93660421 313.42138672 121.26074219 C314.02982422 121.79699219 314.63826172 122.33324219 315.26513672 122.88574219 C317.08522931 124.44557626 317.08522931 124.44557626 319.92138672 126.26074219 C319.92138672 126.92074219 319.92138672 127.58074219 319.92138672 128.26074219 C320.47858398 128.49341797 321.03578125 128.72609375 321.60986328 128.96582031 C324.52062317 130.59643612 326.54319805 132.62313412 328.90576172 134.97949219 C329.84033203 135.91148437 330.77490234 136.84347656 331.73779297 137.80371094 C332.21877441 138.28888184 332.69975586 138.77405273 333.1953125 139.27392578 C334.6734352 140.76280557 336.16198583 142.24065869 337.65185547 143.71777344 C338.58126953 144.64976562 339.51068359 145.58175781 340.46826172 146.54199219 C341.32258789 147.39857422 342.17691406 148.25515625 343.05712891 149.13769531 C344.92138672 151.26074219 344.92138672 151.26074219 344.92138672 153.26074219 C345.58138672 153.26074219 346.24138672 153.26074219 346.92138672 153.26074219 C349.84522197 156.38622125 352.29066902 159.8591473 354.04638672 163.76074219 C353.78294587 169.0295592 350.83300626 173.12737735 347.60888672 177.13574219 C344.34265831 179.71834139 341.95749371 180.39020931 337.92138672 181.26074219 C337.81826172 181.98261719 337.71513672 182.70449219 337.60888672 183.44824219 C335.83683469 190.69754592 330.9318384 194.30981591 324.92138672 198.26074219 C318.28183648 201.9825662 311.56967899 205.30247952 304.25097656 207.47412109 C301.72033812 208.32862927 299.3855612 209.39790557 296.97216797 210.54199219 C290.69795135 213.42351514 284.29892167 215.82317106 277.79638672 218.13574219 C276.58007568 218.56846436 275.36376465 219.00118652 274.1105957 219.44702148 C257.63729296 225.21454759 240.85070652 229.78430359 223.81811523 233.57641602 C219.31778062 234.59566194 215.10819541 235.87134731 210.8137207 237.55566406 C207.84492648 238.66182814 204.81051217 239.39049315 201.73388672 240.13574219 C201.07259766 240.29719727 200.41130859 240.45865234 199.72998047 240.625 C197.4618972 241.17644332 195.19184937 241.71918064 192.92138672 242.26074219 C192.00276855 242.48084961 191.08415039 242.70095703 190.13769531 242.92773438 C184.06783548 244.38158087 177.99566087 245.8254557 171.92138672 247.26074219 C175.24225443 250.03075043 175.24225443 250.03075043 178.92138672 252.26074219 C178.92138672 252.92074219 178.92138672 253.58074219 178.92138672 254.26074219 C179.48341797 254.50566406 180.04544922 254.75058594 180.62451172 255.00292969 C190.41029439 260.36181067 198.86240388 270.7314692 206.08544922 279.14746094 C208.09143717 281.45648111 210.16199607 283.69824164 212.23388672 285.94824219 C219.87768861 294.42686203 226.8959202 303.56121072 232.92138672 313.26074219 C233.26073242 313.80021484 233.60007812 314.3396875 233.94970703 314.89550781 C245.53118315 333.43781953 255.27072884 353.41533429 261.92138672 374.26074219 C262.20771973 375.15422363 262.49405273 376.04770508 262.7890625 376.96826172 C266.41868921 388.54907069 269.1099656 399.04558816 267.92138672 411.26074219 C267.82470703 412.35 267.72802734 413.43925781 267.62841797 414.56152344 C266.69736467 421.96385812 264.75896808 427.46292851 259.41357422 432.75292969 C252.8080991 437.75887271 243.90070015 438.26451025 235.92138672 439.26074219 C235.08768555 439.36515625 234.25398438 439.46957031 233.39501953 439.57714844 C198.50287916 443.73316666 163.29676669 440.24725563 128.88696289 433.76611328 C126.85747015 433.38547651 124.8261111 433.01623519 122.79443359 432.64746094 C115.05943113 431.21624754 107.53515042 429.42867167 99.99731445 427.16625977 C97.02985046 426.29267266 94.05577625 425.53710616 91.04638672 424.82324219 C62.26087208 417.68352793 34.18229635 405.94242836 7.92138672 392.26074219 C7.16083984 391.86741699 6.40029297 391.4740918 5.61669922 391.06884766 C-12.14027525 381.87788939 -28.96864048 372.1514364 -45.07861328 360.26074219 C-45.77986328 359.74511719 -46.48111328 359.22949219 -47.20361328 358.69824219 C-52.60597359 354.69003938 -57.84891057 350.49064879 -63.07861328 346.26074219 C-64.03767578 345.48988281 -64.99673828 344.71902344 -65.98486328 343.92480469 C-67.42345703 342.76078125 -67.42345703 342.76078125 -68.89111328 341.57324219 C-69.76380859 340.868125 -70.63650391 340.16300781 -71.53564453 339.43652344 C-78.47858324 333.49609815 -78.47858324 333.49609815 -80.14111328 330.07324219 C-80.90599393 328.12328137 -80.90599393 328.12328137 -82.76220703 327.54199219 C-86.19760588 325.6418053 -88.47610481 322.85029681 -91.07861328 319.94824219 C-91.59939453 319.37912109 -92.12017578 318.81 -92.65673828 318.22363281 C-101.07861328 308.96169705 -101.07861328 308.96169705 -101.07861328 306.26074219 C-101.73861328 306.26074219 -102.39861328 306.26074219 -103.07861328 306.26074219 C-104.36767578 304.79980469 -104.36767578 304.79980469 -105.70361328 302.88574219 C-106.14962891 302.25925781 -106.59564453 301.63277344 -107.05517578 300.98730469 C-108.07861328 299.26074219 -108.07861328 299.26074219 -108.07861328 297.26074219 C-108.73861328 297.26074219 -109.39861328 297.26074219 -110.07861328 297.26074219 C-112.48210018 294.39577176 -114.45614602 291.19090504 -116.51611328 288.07324219 C-117.14138916 287.12940674 -117.76666504 286.18557129 -118.41088867 285.21313477 C-124.68339938 275.58197606 -130.07095003 265.59791427 -135.07861328 255.26074219 C-135.41973145 254.56174805 -135.76084961 253.86275391 -136.11230469 253.14257812 C-145.04162742 234.58968353 -149.9595998 214.95733675 -153.6171875 194.77416992 C-153.92618926 193.09100955 -154.25543682 191.41144713 -154.60424805 189.73608398 C-163.13648772 145.21298669 -156.21612017 100.284283 -131.46191406 62.27978516 C-123.42506837 50.54933795 -113.08613877 37.16941871 -101.07861328 29.26074219 C-100.41861328 29.26074219 -99.75861328 29.26074219 -99.07861328 29.26074219 C-99.07861328 28.60074219 -99.07861328 27.94074219 -99.07861328 27.26074219 C-97.10415532 25.8296313 -95.15313228 24.53080817 -93.07861328 23.26074219 C-92.04865234 22.62394531 -91.01869141 21.98714844 -89.95751953 21.33105469 C-62.09804333 4.98945381 -31.96865839 -0.14528668 0 0 Z " fill="#CBAC82" transform="translate(175.07861328125,-0.2607421875)"/>
<path d="M0 0 C0.66 0.33 1.32 0.66 2 1 C0.25792116 2.6549749 -1.49276372 4.29875421 -3.25 5.9375 C-3.98669922 6.64036133 -3.98669922 6.64036133 -4.73828125 7.35742188 C-7.36518686 9.79168774 -9.36532157 11.59326218 -13 12 C-13 12.66 -13 13.32 -13 14 C-13.76183594 14.36351562 -13.76183594 14.36351562 -14.5390625 14.734375 C-24.07377074 19.37674231 -34.79077611 25.94268456 -39.125 36.125 C-39.41375 37.07375 -39.7025 38.0225 -40 39 C-40.66 39 -41.32 39 -42 39 C-42.2475 39.556875 -42.495 40.11375 -42.75 40.6875 C-44.22924818 43.42410913 -45.93467439 45.67650869 -48 48 C-48.66 48 -49.32 48 -50 48 C-50.33 48.99 -50.66 49.98 -51 51 C-51.33 50.34 -51.66 49.68 -52 49 C-43.41105817 36.26848172 -33.11133244 21.56722826 -20 13 C-19.34 13 -18.68 13 -18 13 C-18 12.34 -18 11.68 -18 11 C-16.0367383 9.52755373 -14.09542046 8.27111903 -12 7 C-11.01 6.38898437 -10.02 5.77796875 -9 5.1484375 C-2.61320566 1.29486688 -2.61320566 1.29486688 0 0 Z " fill="#E7D4C0" transform="translate(94,16)"/>
<path d="M0 0 C2.03319864 0.01006614 4.06640219 0.01918547 6.09960938 0.02734375 C11.00403129 0.04903197 15.90820864 0.08335405 20.8125 0.125 C20.8125 0.455 20.8125 0.785 20.8125 1.125 C19.47795776 1.14687378 19.47795776 1.14687378 18.11645508 1.16918945 C-0.14610424 1.50260693 -18.08974078 1.98994617 -36.046875 5.71875 C-42.1851906 6.88368581 -48.94807054 6.125 -55.1875 6.125 C-41.41182823 -3.05878118 -15.88653392 -0.1391138 0 0 Z " fill="#E2CEAD" transform="translate(179.1875,-0.125)"/>
<path d="M0 0 C0.66 0 1.32 0 2 0 C2 0.66 2 1.32 2 2 C2.66 2 3.32 2 4 2 C4.66 3.32 5.32 4.64 6 6 C6.99 6 7.98 6 9 6 C9.33 7.65 9.66 9.3 10 11 C10.68707031 11.15855469 11.37414062 11.31710937 12.08203125 11.48046875 C19.51110904 13.40416414 19.51110904 13.40416414 22 16.4375 C22.33 17.283125 22.66 18.12875 23 19 C24.52252075 22.34954566 26.30100463 24.48093766 29 27 C24.46719792 25.5421302 21.32139575 22.97867996 17.8125 19.875 C16.66782397 18.88017722 15.52197735 17.88669985 14.375 16.89453125 C13.80910156 16.4042041 13.24320313 15.91387695 12.66015625 15.40869141 C9.51117649 12.73668947 6.21657239 10.24758268 2.92578125 7.75390625 C0.92043543 5.92753653 -0.10377631 4.55240313 -1 2 C-0.67 1.34 -0.34 0.68 0 0 Z " fill="#AF9877" transform="translate(100,331)"/>
<path d="M0 0 C1.98 0.495 1.98 0.495 4 1 C2.35 1.66 0.7 2.32 -1 3 C-0.67 2.01 -0.34 1.02 0 0 Z M-4 3 C-3.01 3.33 -2.02 3.66 -1 4 C-2.28627711 5.17260611 -3.57919783 6.3379283 -4.875 7.5 C-5.59429687 8.1496875 -6.31359375 8.799375 -7.0546875 9.46875 C-9 11 -9 11 -11 11 C-11.33 11.99 -11.66 12.98 -12 14 C-12.61875 14.144375 -13.2375 14.28875 -13.875 14.4375 C-16.7073715 15.1872454 -17.44987517 16.59730651 -19 19 C-18.34 19.66 -17.68 20.32 -17 21 C-19.91765 22.9451 -21.62537285 23.45276317 -25 24 C-25 23.01 -25 22.02 -25 21 C-25.99 20.67 -26.98 20.34 -28 20 C-27.4225 19.7525 -26.845 19.505 -26.25 19.25 C-23.94358223 18.1120292 -23.94358223 18.1120292 -22.3125 16.25 C-19.54849638 13.56069918 -16.54842747 11.61848611 -13.31640625 9.53125 C-11.17966641 8.11876768 -9.15902929 6.61717207 -7.125 5.0625 C-6.09375 4.381875 -5.0625 3.70125 -4 3 Z " fill="#C69D67" transform="translate(83,38)"/>
<path d="M0 0 C0.33 0 0.66 0 1 0 C1.62624254 25.46719682 1.62624254 25.46719682 -6 35 C-8 37 -8 37 -10.625 37.125 C-11.40875 37.08375 -12.1925 37.0425 -13 37 C-12.4225 36.690625 -11.845 36.38125 -11.25 36.0625 C-4.92354896 30.26325321 -4.04508295 21.12538329 -2.61328125 13.0625 C-2 10 -2 10 -1 9 C-0.76807135 7.48530552 -0.58784762 5.96245438 -0.4375 4.4375 C-0.35371094 3.61121094 -0.26992188 2.78492188 -0.18359375 1.93359375 C-0.12300781 1.29550781 -0.06242187 0.65742188 0 0 Z " fill="#D9C8AE" transform="translate(442,396)"/>
<path d="M0 0 C-1.02770508 0.24907104 -1.02770508 0.24907104 -2.07617188 0.50317383 C-5.21871242 1.26785516 -8.35934375 2.04011768 -11.5 2.8125 C-12.57765625 3.07353516 -13.6553125 3.33457031 -14.765625 3.60351562 C-20.69713311 5.06830879 -26.31273894 6.77679795 -32 9 C-33.98956785 9.39080797 -35.98806977 9.74850872 -38 10 C-37.25 8.0625 -37.25 8.0625 -36 6 C-33.875 5.25 -33.875 5.25 -32 5 C-32.33 4.34 -32.66 3.68 -33 3 C-32.13375 3.04125 -31.2675 3.0825 -30.375 3.125 C-27.01749201 3.1762173 -27.01749201 3.1762173 -24.125 1.9375 C-20.00502767 0.7015083 -17.21592103 1.27311706 -13 2 C-13 1.34 -13 0.68 -13 0 C-11.58456585 -0.19658808 -10.16755969 -0.38187546 -8.75 -0.5625 C-7.96109375 -0.66691406 -7.1721875 -0.77132812 -6.359375 -0.87890625 C-3.98020513 -1.00101596 -2.27793584 -0.6241208 0 0 Z " fill="#9C8569" transform="translate(416,229)"/>
<path d="M0 0 C0.66 0.33 1.32 0.66 2 1 C0.25792116 2.6549749 -1.49276372 4.29875421 -3.25 5.9375 C-3.74113281 6.40607422 -4.23226562 6.87464844 -4.73828125 7.35742188 C-7.36518686 9.79168774 -9.36532157 11.59326218 -13 12 C-13 12.66 -13 13.32 -13 14 C-14.26691507 14.67408308 -15.53870749 15.33900497 -16.8125 16 C-17.52019531 16.37125 -18.22789063 16.7425 -18.95703125 17.125 C-21 18 -21 18 -24 18 C-22.71937515 16.2925002 -21.38232443 14.62626404 -20 13 C-19.34 13 -18.68 13 -18 13 C-18 12.34 -18 11.68 -18 11 C-16.0367383 9.52755373 -14.09542046 8.27111903 -12 7 C-11.01 6.38898437 -10.02 5.77796875 -9 5.1484375 C-2.61320566 1.29486688 -2.61320566 1.29486688 0 0 Z " fill="#DFCDB5" transform="translate(94,16)"/>
<path d="M0 0 C-3.18578983 2.12385989 -5.34464826 2.67353619 -9.05859375 3.47265625 C-10.84426758 3.86227539 -10.84426758 3.86227539 -12.66601562 4.25976562 C-13.91060547 4.52466797 -15.15519531 4.78957031 -16.4375 5.0625 C-18.89459369 5.59476393 -21.35162754 6.12730419 -23.80859375 6.66015625 C-25.44526001 7.01025757 -25.44526001 7.01025757 -27.11499023 7.36743164 C-29.42254975 7.87338803 -31.71289302 8.40979001 -34 9 C-34 8.34 -34 7.68 -34 7 C-32.02 6.34 -30.04 5.68 -28 5 C-28 4.34 -28 3.68 -28 3 C-26.20909747 2.80533668 -24.41723495 2.61948787 -22.625 2.4375 C-21.12839844 2.28087891 -21.12839844 2.28087891 -19.6015625 2.12109375 C-17 2 -17 2 -15 3 C-15 2.34 -15 1.68 -15 1 C-10.03926578 -0.32286246 -5.08888488 -0.08893197 0 0 Z " fill="#917C5D" transform="translate(377,239)"/>
<path d="M0 0 C2.36479543 0.16141948 4.01975321 -0.23640374 6.2890625 -0.84375 C9.0390625 -0.40625 9.0390625 -0.40625 11.2890625 0.15625 C11.2890625 0.81625 11.2890625 1.47625 11.2890625 2.15625 C12.2171875 1.95 13.1453125 1.74375 14.1015625 1.53125 C17.2890625 1.15625 17.2890625 1.15625 20.2890625 3.15625 C17.29425333 4.0285912 14.65330339 4.26454766 11.5390625 4.21875 C10.73984375 4.20972656 9.940625 4.20070313 9.1171875 4.19140625 C8.51390625 4.17980469 7.910625 4.16820312 7.2890625 4.15625 C6.9590625 3.49625 6.6290625 2.83625 6.2890625 2.15625 C1.6690625 2.15625 -2.9509375 2.15625 -7.7109375 2.15625 C-8.0409375 1.49625 -8.3709375 0.83625 -8.7109375 0.15625 C-5.73981061 -1.32931344 -3.21566123 -0.47320767 0 0 Z " fill="#C7A374" transform="translate(281.7109375,286.84375)"/>
<path d="M0 0 C4.54813284 0.5890654 8.30264686 1.79110973 12.5 3.625 C13.09441895 3.8842627 13.68883789 4.14352539 14.30126953 4.41064453 C20.98567336 7.36650017 27.50016845 10.66118076 34 14 C33.34 14.33 32.68 14.66 32 15 C30.15234375 14.328125 30.15234375 14.328125 27.9375 13.25 C23.39007755 11.12393236 18.78760731 9.49400512 14 8 C14 7.34 14 6.68 14 6 C13.40832031 5.80664062 12.81664062 5.61328125 12.20703125 5.4140625 C8.0853355 4.05585281 4.0049476 2.67949415 0 1 C0 0.67 0 0.34 0 0 Z " fill="#ECDFCC" transform="translate(361,45)"/>
<path d="M0 0 C0.33 0.99 0.66 1.98 1 3 C0.30132812 2.98839844 -0.39734375 2.97679687 -1.1171875 2.96484375 C-2.02726562 2.95582031 -2.93734375 2.94679688 -3.875 2.9375 C-4.77992188 2.92589844 -5.68484375 2.91429687 -6.6171875 2.90234375 C-9.0168585 2.83750743 -9.0168585 2.83750743 -11 4 C-11 3.34 -11 2.68 -11 2 C-12.010625 2.20625 -13.02125 2.4125 -14.0625 2.625 C-18.49506869 3.0471494 -20.86108962 2.4359485 -25 1 C-25 0.67 -25 0.34 -25 0 C-16.61173789 -1.72066915 -8.4384684 -0.98654328 0 0 Z " fill="#C69F6D" transform="translate(226,14)"/>
<path d="M0 0 C1.98 0.495 1.98 0.495 4 1 C2.35 1.66 0.7 2.32 -1 3 C-0.67 2.01 -0.34 1.02 0 0 Z M-1 4 C-2.28627711 5.17260611 -3.57919783 6.3379283 -4.875 7.5 C-5.59429687 8.1496875 -6.31359375 8.799375 -7.0546875 9.46875 C-9 11 -9 11 -11 11 C-11.33 11.99 -11.66 12.98 -12 14 C-12.99 13.67 -13.98 13.34 -15 13 C-13.55069329 9.40415253 -11.77247922 7.81167344 -8.5625 5.6875 C-7.78003906 5.15511719 -6.99757813 4.62273438 -6.19140625 4.07421875 C-4 3 -4 3 -1 4 Z " fill="#C2975E" transform="translate(83,38)"/>
<path d="M0 0 C4.86872054 0.59559106 8.59328841 2.72477415 12.8125 5.0625 C13.50537109 5.43955078 14.19824219 5.81660156 14.91210938 6.20507812 C16.61128985 7.13083852 18.30609425 8.06462312 20 9 C20 9.33 20 9.66 20 10 C18.54052295 9.93993922 17.08220728 9.8511311 15.625 9.75 C14.40683594 9.68039063 14.40683594 9.68039063 13.1640625 9.609375 C11 9 11 9 9.7109375 6.953125 C9.35902344 5.98632812 9.35902344 5.98632812 9 5 C7.02 5 5.04 5 3 5 C2.87625 4.360625 2.7525 3.72125 2.625 3.0625 C2.315625 2.0415625 2.315625 2.0415625 2 1 C1.34 0.67 0.68 0.34 0 0 Z " fill="#DDCEB5" transform="translate(400,63)"/>
<path d="M0 0 C0.99 0 1.98 0 3 0 C3.33 2.31 3.66 4.62 4 7 C4.99 7 5.98 7 7 7 C7.27263672 7.93972656 7.27263672 7.93972656 7.55078125 8.8984375 C7.80214844 9.71570313 8.05351563 10.53296875 8.3125 11.375 C8.67794922 12.59316406 8.67794922 12.59316406 9.05078125 13.8359375 C9.91368185 16.33184629 9.91368185 16.33184629 13 18 C13.6875 21.125 13.6875 21.125 14 24 C9.718575 20.33878142 7.39934473 15.75010236 4.75 10.875 C4.29109375 10.05128906 3.8321875 9.22757812 3.359375 8.37890625 C0 2.27004278 0 2.27004278 0 0 Z " fill="#A29177" transform="translate(44,261)"/>
<path d="M0 0 C-4.09320297 2.40548421 -7.88829582 2.40687913 -12.5390625 2.65625 C-15.17403194 2.77237389 -15.17403194 2.77237389 -17 5 C-20.2578125 5.1953125 -20.2578125 5.1953125 -24.125 5.125 C-26.04699219 5.09792969 -26.04699219 5.09792969 -28.0078125 5.0703125 C-29.48894531 5.03550781 -29.48894531 5.03550781 -31 5 C-22.67255654 -0.55162897 -9.75954298 -0.21687873 0 0 Z " fill="#E9DCC6" transform="translate(155,1)"/>
<path d="M0 0 C0.66 0 1.32 0 2 0 C3.37559416 7.65257723 4.41993763 15.24548194 5 23 C2.1758528 20.1758528 1.46326439 16.79018978 0.3125 13.0625 C0.07466797 12.33353516 -0.16316406 11.60457031 -0.40820312 10.85351562 C-2.12270503 5.3681151 -2.12270503 5.3681151 -1 2 C-0.34 3.65 0.32 5.3 1 7 C0.67 4.69 0.34 2.38 0 0 Z " fill="#A08B6D" transform="translate(28,212)"/>
<path d="M0 0 C2.73032273 0.28296619 5.45892148 0.57603882 8.1875 0.875 C8.95642578 0.95363281 9.72535156 1.03226562 10.51757812 1.11328125 C14.69047404 1.57892629 18.12943146 2.28589108 22 4 C24.32597511 4.3813074 26.65912158 4.72460254 29 5 C29 5.66 29 6.32 29 7 C22.89622216 6.55608888 17.07565219 5.43955204 11.125 4.0625 C10.00073608 3.80774902 10.00073608 3.80774902 8.85375977 3.54785156 C5.42286964 2.73291329 2.9625942 1.9750628 0 0 Z " fill="#938069" transform="translate(272,425)"/>
<path d="M0 0 C2.97 0.495 2.97 0.495 6 1 C2.77267287 3.15155142 -0.2302158 4.3073296 -3.875 5.625 C-5.08929688 6.07101563 -6.30359375 6.51703125 -7.5546875 6.9765625 C-10.62236237 7.88782193 -12.83994682 8.22829282 -16 8 C-16.33 7.34 -16.66 6.68 -17 6 C-14.24921116 5.08307039 -12.64051087 4.89113917 -9.8125 4.9375 C-7.9253125 4.9684375 -7.9253125 4.9684375 -6 5 C-5.67 4.01 -5.34 3.02 -5 2 C-3.68 2.33 -2.36 2.66 -1 3 C-0.67 2.01 -0.34 1.02 0 0 Z " fill="#9F8B71" transform="translate(449,215)"/>
<path d="M0 0 C9.89174892 1.28728239 19.36948221 3.45329054 29 6 C29 6.33 29 6.66 29 7 C27.52093108 7.02689216 26.04172517 7.04634621 24.5625 7.0625 C23.32693359 7.07990234 23.32693359 7.07990234 22.06640625 7.09765625 C20 7 20 7 19 6 C17.845 5.835 16.69 5.67 15.5 5.5 C12 5 12 5 11 4 C9.00432121 3.80686979 7.00790481 3.61679037 5.0078125 3.4765625 C2.55659858 2.89475686 1.6084977 1.89175515 0 0 Z " fill="#E8D8C0" transform="translate(242,7)"/>
<path d="M0 0 C5.74231776 0.62349563 10.91184629 2.09136135 16.375 3.9375 C17.60283203 4.33485352 17.60283203 4.33485352 18.85546875 4.74023438 C19.63277344 4.99998047 20.41007812 5.25972656 21.2109375 5.52734375 C22.26740479 5.87913696 22.26740479 5.87913696 23.34521484 6.23803711 C25 7 25 7 26 9 C18.67383462 7.87289763 12.36346056 6.88878146 6 3 C3.29046449 2.74803871 3.29046449 2.74803871 1 3 C0.67 2.01 0.34 1.02 0 0 Z " fill="#ECDCC6" transform="translate(300,22)"/>
<path d="M0 0 C-0.99 0.495 -0.99 0.495 -2 1 C-2 1.66 -2 2.32 -2 3 C-3.26691507 3.67408308 -4.53870749 4.33900497 -5.8125 5 C-6.52019531 5.37125 -7.22789063 5.7425 -7.95703125 6.125 C-10 7 -10 7 -13 7 C-11.71937515 5.2925002 -10.38232443 3.62626404 -9 2 C-8.34 2 -7.68 2 -7 2 C-7 1.34 -7 0.68 -7 0 C-4.3333581 -1.33332095 -2.83319697 -0.67102033 0 0 Z " fill="#D7C1A1" transform="translate(83,27)"/>
<path d="M0 0 C0 0.33 0 0.66 0 1 C-1.2375 0.8453125 -1.2375 0.8453125 -2.5 0.6875 C-6.67011733 1.0598319 -8.71289708 2.44222264 -12.0703125 4.80859375 C-14.05739661 6.03543718 -15.72021535 6.55924163 -18 7 C-18 6.34 -18 5.68 -18 5 C-17.34 5 -16.68 5 -16 5 C-15.67 4.01 -15.34 3.02 -15 2 C-10.00549413 -1.06979385 -5.57027642 -1.27652168 0 0 Z " fill="#C2995D" transform="translate(110,39)"/>
<path d="M0 0 C0.82638376 2.89234315 1 4.88742431 1 8 C0.01 8 -0.98 8 -2 8 C-3.32 11.3 -4.64 14.6 -6 18 C-6.66 18 -7.32 18 -8 18 C-6.10463724 11.48180123 -3.4821006 5.82185199 0 0 Z " fill="#DAC7AB" transform="translate(36,76)"/>
<path d="M0 0 C0.70125 0.268125 1.4025 0.53625 2.125 0.8125 C1.465 2.1325 0.805 3.4525 0.125 4.8125 C-0.535 4.4825 -1.195 4.1525 -1.875 3.8125 C-3.67040511 4.57751555 -3.67040511 4.57751555 -5.5 5.75 C-6.61375 6.430625 -7.7275 7.11125 -8.875 7.8125 C-8.875 4.8125 -8.875 4.8125 -6.1875 2.0625 C-3.73526626 0.11119762 -3.25975847 -0.21259294 0 0 Z " fill="#C9A470" transform="translate(81.875,30.1875)"/>
<path d="M0 0 C1.8125 0.0625 1.8125 0.0625 4 1 C4.75131815 2.69863234 5.49436383 4.40321643 6.140625 6.14453125 C7.47899972 9.03420394 9.65383267 10.90747238 12 13 C7.01987239 11.49087042 3.75740058 8.44338151 0 5 C0.99 4.67 1.98 4.34 3 4 C2.01 2.68 1.02 1.36 0 0 Z " fill="#9F8868" transform="translate(117,345)"/>
<path d="M0 0 C1.8125 0.0625 1.8125 0.0625 4 1 C5.05047644 3.31104818 6.05007438 5.64583651 7 8 C7.99 8.66 8.98 9.32 10 10 C10.6875 12.625 10.6875 12.625 11 15 C10.34 14.67 9.68 14.34 9 14 C9 13.34 9 12.68 9 12 C8.34 12 7.68 12 7 12 C5.2734375 9.8828125 5.2734375 9.8828125 3.375 7.125 C2.74335937 6.22007812 2.11171875 5.31515625 1.4609375 4.3828125 C0 2 0 2 0 0 Z " fill="#A19174" transform="translate(58,285)"/>
<path d="M0 0 C4.50002447 1.2272794 6.83678416 2.61863134 10 6 C10.99 6.33 11.98 6.66 13 7 C14.1875 9.0625 14.1875 9.0625 15 11 C10.92584833 9.59790456 8.01720177 7.65552322 4.6875 4.9375 C3.80449219 4.22464844 2.92148438 3.51179688 2.01171875 2.77734375 C1.34785156 2.19082031 0.68398437 1.60429687 0 1 C0 0.67 0 0.34 0 0 Z " fill="#96876A" transform="translate(129,358)"/>
<path d="M0 0 C0.66 0.66 1.32 1.32 2 2 C1.36191406 2.12117187 0.72382813 2.24234375 0.06640625 2.3671875 C-1.17302734 2.61855469 -1.17302734 2.61855469 -2.4375 2.875 C-3.26121094 3.03742188 -4.08492188 3.19984375 -4.93359375 3.3671875 C-5.61550781 3.57601562 -6.29742187 3.78484375 -7 4 C-7.33 4.66 -7.66 5.32 -8 6 C-8.625 4.125 -8.625 4.125 -9 2 C-5.96271914 -1.03728086 -4.06215635 -1.35405212 0 0 Z " fill="#BE9E72" transform="translate(350,242)"/>
<path d="M0 0 C1.84187025 2.76280538 2.72248277 4.80707826 3.6875 7.9375 C3.95949219 8.79214844 4.23148437 9.64679688 4.51171875 10.52734375 C5.02075548 13.10510574 4.84888744 14.54449337 4 17 C3.34 16.01 2.68 15.02 2 14 C1.67 14 1.34 14 1 14 C0.67 9.38 0.34 4.76 0 0 Z " fill="#EBDBCA" transform="translate(437,378)"/>
<path d="M0 0 C-4.70406799 1.86540627 -8.94744036 3.36843005 -14 4 C-13.5 2.0625 -13.5 2.0625 -12 0 C-7.52175666 -0.93898651 -4.39346681 -1.29045774 0 0 Z " fill="#907D60" transform="translate(392,235)"/>
<path d="M0 0 C0.3888868 2.64443027 0.39540909 4.38826202 -1.078125 6.66796875 C-2.31914474 8.16931734 -3.65582649 9.59025705 -5 11 C-5.33 11 -5.66 11 -6 11 C-5.50928382 4.62068966 -5.50928382 4.62068966 -3 1.5625 C-1 0 -1 0 0 0 Z " fill="#CFB998" transform="translate(45,64)"/>
<path d="M0 0 C-1.33333333 0.66666667 -2.66666667 1.33333333 -4 2 C-4.99 2.5259375 -4.99 2.5259375 -6 3.0625 C-7.98934744 3.99500661 -9.85678743 4.54074016 -12 5 C-12.33 4.01 -12.66 3.02 -13 2 C-8.46298506 0.54815522 -4.81938524 -0.23509196 0 0 Z " fill="#C6A26F" transform="translate(188,11)"/>
<path d="M0 0 C2.91517292 1.07401108 4.77810176 1.77810176 7 4 C6.01 4 5.02 4 4 4 C4 4.66 4 5.32 4 6 C3.01 6.33 2.02 6.66 1 7 C0.67 4.69 0.34 2.38 0 0 Z " fill="#B5916C" transform="translate(345,248)"/>
<path d="M0 0 C1.65 0 3.3 0 5 0 C1.86835277 2.52940738 -1.27808042 4.44920018 -5 6 C-7.375 5.6875 -7.375 5.6875 -9 5 C-8.01 4.34 -7.02 3.68 -6 3 C-6 2.67 -6 2.34 -6 2 C-4.02 2 -2.04 2 0 2 C0 1.34 0 0.68 0 0 Z " fill="#A6856C" transform="translate(491,199)"/>
<path d="M0 0 C2.375 -0.1875 2.375 -0.1875 5 0 C5.66 0.99 6.32 1.98 7 3 C4.03 3.66 1.06 4.32 -2 5 C-1.34 3.35 -0.68 1.7 0 0 Z " fill="#C49860" transform="translate(112,34)"/>
<path d="M0 0 C5.63281599 -0.2396943 10.54538831 0.61470179 16 2 C16 2.33 16 2.66 16 3 C14.08404032 3.08133791 12.16708068 3.13934367 10.25 3.1875 C8.64898437 3.23970703 8.64898437 3.23970703 7.015625 3.29296875 C3.69972145 2.97082786 2.40983327 2.22851086 0 0 Z " fill="#EADAC8" transform="translate(226,4)"/>
<path d="M0 0 C0 0.66 0 1.32 0 2 C-5.0056546 3.31727753 -9.86496656 4.35812082 -15 5 C-15 4.34 -15 3.68 -15 3 C-14.37351562 2.86722656 -13.74703125 2.73445313 -13.1015625 2.59765625 C-12.28429687 2.42105469 -11.46703125 2.24445313 -10.625 2.0625 C-9.81289063 1.88847656 -9.00078125 1.71445312 -8.1640625 1.53515625 C-1.95620438 0 -1.95620438 0 0 0 Z " fill="#8A7968" transform="translate(425,434)"/>
<path d="M0 0 C1.32 0 2.64 0 4 0 C4.103125 0.639375 4.20625 1.27875 4.3125 1.9375 C4.539375 2.618125 4.76625 3.29875 5 4 C5.99 4.33 6.98 4.66 8 5 C8.33 6.65 8.66 8.3 9 10 C7.86800647 9.0919838 6.74467637 8.17316174 5.625 7.25 C4.99851562 6.73953125 4.37203125 6.2290625 3.7265625 5.703125 C1.91687682 3.91800519 0.99882545 2.32050356 0 0 Z " fill="#97856D" transform="translate(76,309)"/>
<path d="M0 0 C4.28477792 2.30718811 7.72291137 4.32966073 11 8 C8.03 7.01 5.06 6.02 2 5 C2 4.01 2 3.02 2 2 C1.34 2 0.68 2 0 2 C0 1.34 0 0.68 0 0 Z " fill="#E3D2BD" transform="translate(444,87)"/>
<path d="M0 0 C1.98 0.99 1.98 0.99 4 2 C4.33 1.34 4.66 0.68 5 0 C7.125 6.75 7.125 6.75 6 9 C5.67 8.01 5.34 7.02 5 6 C4.34 6 3.68 6 3 6 C0 2.53846154 0 2.53846154 0 0 Z " fill="#9B876C" transform="translate(69,300)"/>
<path d="M0 0 C2.475 0.495 2.475 0.495 5 1 C4.01 1.66 3.02 2.32 2 3 C2 2.34 2 1.68 2 1 C1.34 0.67 0.68 0.34 0 0 Z M-5 1 C-2.03824877 1.61277612 -0.61941217 2.25372522 2 4 C-2.75 5 -2.75 5 -5 5 C-5 3.68 -5 2.36 -5 1 Z " fill="#C9A474" transform="translate(261,238)"/>
<path d="M0 0 C2.475 0.99 2.475 0.99 5 2 C5 3.32 5 4.64 5 6 C2.97954558 5.39816251 0.97888961 4.72693904 -1 4 C-1.33 3.34 -1.66 2.68 -2 2 C-1.34 2 -0.68 2 0 2 C0 1.34 0 0.68 0 0 Z " fill="#B0966F" transform="translate(158,374)"/>
<path d="M0 0 C-0.33 0.99 -0.66 1.98 -1 3 C-3.97 3 -6.94 3 -10 3 C-8.68 2.67 -7.36 2.34 -6 2 C-6 1.34 -6 0.68 -6 0 C-3.50907189 -1.24546405 -2.58919267 -0.7767578 0 0 Z " fill="#BE9F74" transform="translate(379,236)"/>
<path d="M0 0 C0.66 0 1.32 0 2 0 C0.76075855 4.95696581 -0.78577758 7.11658466 -5 10 C-4.67 8.35 -4.34 6.7 -4 5 C-3.01 5 -2.02 5 -1 5 C-0.67 3.35 -0.34 1.7 0 0 Z " fill="#B09D80" transform="translate(510,184)"/>
<path d="M0 0 C3.96 0.33 7.92 0.66 12 1 C12.33 1.99 12.66 2.98 13 4 C8.51474352 3.343621 4.33085971 2.29925791 0 1 C0 0.67 0 0.34 0 0 Z " fill="#938368" transform="translate(257,421)"/>
<path d="M0 0 C2.51699845 2.51699845 3.10964078 4.57554146 4 8 C3.625 10.375 3.625 10.375 3 12 C3 11.34 3 10.68 3 10 C2.34 10 1.68 10 1 10 C0.67 6.7 0.34 3.4 0 0 Z " fill="#EADCC7" transform="translate(433,366)"/>
<path d="M0 0 C0.66 1.32 1.32 2.64 2 4 C-0.8125 5.5625 -0.8125 5.5625 -4 7 C-4.99 6.67 -5.98 6.34 -7 6 C-6.21625 5.38125 -5.4325 4.7625 -4.625 4.125 C-2.03162353 2.10141339 -2.03162353 2.10141339 0 0 Z " fill="#C5965C" transform="translate(90,43)"/>
<path d="M0 0 C-2.35968744 2.09749995 -3.54616994 2.96905704 -6.75 3.1875 C-7.86375 3.0946875 -7.86375 3.0946875 -9 3 C-9.33 2.34 -9.66 1.68 -10 1 C-6.52674819 -0.1577506 -3.63932552 -0.06866652 0 0 Z " fill="#A59279" transform="translate(442,220)"/>
<path d="M0 0 C2.31 0 4.62 0 7 0 C7.66 1.32 8.32 2.64 9 4 C6.03 3.01 3.06 2.02 0 1 C0 0.67 0 0.34 0 0 Z " fill="#93816A" transform="translate(208,403)"/>
<path d="M0 0 C2.125 0.9375 2.125 0.9375 4 2 C3.01 3.485 3.01 3.485 2 5 C1.01 5 0.02 5 -1 5 C-1.33 3.68 -1.66 2.36 -2 1 C-1.34 0.67 -0.68 0.34 0 0 Z " fill="#C6A26F" transform="translate(306,401)"/>
<path d="M0 0 C1.65 0 3.3 0 5 0 C5 0.99 5 1.98 5 3 C5.66 3 6.32 3 7 3 C7 3.66 7 4.32 7 5 C2.25 3.125 2.25 3.125 0 2 C0 1.34 0 0.68 0 0 Z " fill="#9B8B68" transform="translate(178,387)"/>
<path d="M0 0 C2.15377564 2.62198774 3.40072174 4.64404172 4 8 C3.34 8 2.68 8 2 8 C2 7.34 2 6.68 2 6 C1.01 5.67 0.02 5.34 -1 5 C-0.67 3.35 -0.34 1.7 0 0 Z " fill="#DFD0B5" transform="translate(421,338)"/>
<path d="M0 0 C2.475 0.495 2.475 0.495 5 1 C5.66 3.31 6.32 5.62 7 8 C3.75700849 5.61042731 1.49097658 3.7952131 0 0 Z " fill="#8E7C69" transform="translate(85,319)"/>
<path d="M0 0 C0 0.99 0 1.98 0 3 C-3.63 3 -7.26 3 -11 3 C-11 2.67 -11 2.34 -11 2 C-7.17679443 0.57741188 -4.08718695 -0.24042276 0 0 Z " fill="#C9A371" transform="translate(115,304)"/>
<path d="M0 0 C0.99 0 1.98 0 3 0 C3.33 2.97 3.66 5.94 4 9 C2.01388388 7.01388388 1.08545288 5.55856751 0 3 C0 2.01 0 1.02 0 0 Z " fill="#A69377" transform="translate(36,243)"/>
<path d="M0 0 C1.65 0 3.3 0 5 0 C2.8125 2.0625 2.8125 2.0625 0 4 C-2.8125 3.75 -2.8125 3.75 -5 3 C-4.01 2.34 -3.02 1.68 -2 1 C-1.34 1.33 -0.68 1.66 0 2 C0 1.34 0 0.68 0 0 Z " fill="#B5A282" transform="translate(498,195)"/>
<path d="M0 0 C3.70129644 0.38961015 5.61879622 1.11749016 8 4 C4.26512223 3.5020163 2.18762365 3.12508244 -1 1 C-0.67 0.67 -0.34 0.34 0 0 Z " fill="#A49374" transform="translate(234,412)"/>
<path d="M0 0 C0.99 0.33 1.98 0.66 3 1 C2.34 2.32 1.68 3.64 1 5 C0.34 5 -0.32 5 -1 5 C-1.33 5.66 -1.66 6.32 -2 7 C-2.125 4.625 -2.125 4.625 -2 2 C-1.34 1.34 -0.68 0.68 0 0 Z " fill="#D3BE9C" transform="translate(53,50)"/>
<path d="M0 0 C2.31 0.33 4.62 0.66 7 1 C7 1.99 7 2.98 7 4 C4.97954558 3.39816251 2.97888961 2.72693904 1 2 C0.67 1.34 0.34 0.68 0 0 Z " fill="#A3866C" transform="translate(163,380)"/>
<path d="M0 0 C0 0.66 0 1.32 0 2 C-1.98 2.33 -3.96 2.66 -6 3 C-6.33 3.99 -6.66 4.98 -7 6 C-7.33 4.35 -7.66 2.7 -8 1 C-2.25 0 -2.25 0 0 0 Z " fill="#A3916F" transform="translate(519,178)"/>
</svg>
