<?xml version="1.0" encoding="UTF-8"?>
<svg version="1.1" xmlns="http://www.w3.org/2000/svg" width="500" height="499">
<path d="M0 0 C2.51026123 1.68171095 5.07661561 3.03882627 7.765625 4.4140625 C14.55461121 8.05928521 20.44120906 12.75297404 26.390625 17.6015625 C26.91382324 18.02566406 27.43702148 18.44976562 27.97607422 18.88671875 C41.92758597 30.260092 55.33146265 42.35023783 66.390625 56.6015625 C67.04442139 57.44291748 67.04442139 57.44291748 67.71142578 58.30126953 C78.91534122 72.8708526 88.98696385 88.27766994 97.3359375 104.65234375 C98.95992071 107.82705357 100.71669151 110.8900986 102.55249023 113.94604492 C126.80260374 154.56686109 127.15576715 220.68781344 117.390625 265.6015625 C117.17100098 266.65037598 116.95137695 267.69918945 116.72509766 268.77978516 C113.67797904 283.1225919 109.64394697 296.9176842 104.390625 310.6015625 C103.96652344 311.75785156 103.54242188 312.91414063 103.10546875 314.10546875 C94.44165573 336.12268166 74.99733067 374.29820966 52.390625 385.6015625 C43.68937299 387.01618323 37.57885432 385.35355115 30.43945312 380.45361328 C25.77282814 377.0746506 21.45017874 373.32722964 17.28125 369.3515625 C15.50116856 367.54042803 15.50116856 367.54042803 13.390625 366.6015625 C13.390625 365.9415625 13.390625 365.2815625 13.390625 364.6015625 C12.8133667 364.34882568 12.2361084 364.09608887 11.64135742 363.83569336 C9.1175598 362.45183427 7.41639174 360.88615372 5.37890625 358.85546875 C4.62577148 358.10652344 3.87263672 357.35757812 3.09667969 356.5859375 C1.91187012 355.38710938 1.91187012 355.38710938 0.703125 354.1640625 C-0.11124023 353.34292969 -0.92560547 352.52179688 -1.76464844 351.67578125 C-7.44595773 345.89647906 -12.68388065 340.04128482 -17.609375 333.6015625 C-18.70545393 332.20839301 -19.80326483 330.81658526 -20.90234375 329.42578125 C-28.06889547 320.3274947 -34.96685538 311.08750526 -41.609375 301.6015625 C-42.32480469 300.60640625 -43.04023438 299.61125 -43.77734375 298.5859375 C-44.42316406 297.68359375 -45.06898438 296.78125 -45.734375 295.8515625 C-46.29382813 295.07296875 -46.85328125 294.294375 -47.4296875 293.4921875 C-48.609375 291.6015625 -48.609375 291.6015625 -48.609375 289.6015625 C-49.269375 289.6015625 -49.929375 289.6015625 -50.609375 289.6015625 C-51.73510742 288.15551758 -51.73510742 288.15551758 -52.96484375 286.12109375 C-53.6453479 285.00395996 -53.6453479 285.00395996 -54.33959961 283.86425781 C-54.82050049 283.05569336 -55.30140137 282.24712891 -55.796875 281.4140625 C-56.54432983 280.17221191 -56.54432983 280.17221191 -57.30688477 278.90527344 C-60.91402366 272.87134368 -64.31393326 266.75139144 -67.58398438 260.52832031 C-69.27884491 257.34359666 -71.02424023 254.18667654 -72.76098633 251.0246582 C-77.55713971 242.28698312 -82.26141353 233.50770163 -86.859375 224.6640625 C-87.36428467 223.69307617 -87.86919434 222.72208984 -88.3894043 221.72167969 C-89.35937179 219.8553889 -90.32918661 217.98901876 -91.29882812 216.12255859 C-96.34921637 206.40752339 -101.57594787 196.81001394 -106.984375 187.2890625 C-107.50902344 186.36206543 -108.03367187 185.43506836 -108.57421875 184.47998047 C-109.06792969 183.61646973 -109.56164062 182.75295898 -110.0703125 181.86328125 C-110.73232666 180.70252075 -110.73232666 180.70252075 -111.40771484 179.51831055 C-112.59315973 177.46877071 -112.59315973 177.46877071 -114.609375 175.6015625 C-120.44005724 175.4872354 -126.20087408 176.40892699 -131.609375 178.6015625 C-133.3056204 187.24353836 -133.93608963 195.62042328 -134.109375 204.4140625 C-134.78068859 227.84765931 -137.54941349 250.53664367 -141.609375 273.6015625 C-141.78227051 274.59414063 -141.95516602 275.58671875 -142.13330078 276.609375 C-149.28287489 316.99028593 -166.19671209 358.8819111 -189.609375 392.6015625 C-190.13917969 393.36500977 -190.66898438 394.12845703 -191.21484375 394.91503906 C-194.43274762 399.51450142 -197.72303851 404.05427914 -201.08056641 408.55273438 C-202.05197888 409.8545698 -203.01839841 411.16015744 -203.97802734 412.47070312 C-209.65617635 420.21227569 -215.90287577 427.16439002 -222.671875 433.9765625 C-223.79867676 435.11170288 -223.79867676 435.11170288 -224.94824219 436.26977539 C-230.35237292 441.6015625 -230.35237292 441.6015625 -232.609375 441.6015625 C-232.609375 442.2615625 -232.609375 442.9215625 -232.609375 443.6015625 C-239.13098503 447.85478643 -245.30110366 449.6015625 -253.109375 449.6015625 C-263.55165291 446.61805452 -271.00528699 438.94605149 -278.609375 431.6015625 C-279.25777344 431.00472656 -279.90617187 430.40789062 -280.57421875 429.79296875 C-302.03306698 409.5459143 -317.93703905 378.98380935 -327.609375 351.6015625 C-327.8892627 350.82699707 -328.16915039 350.05243164 -328.45751953 349.25439453 C-339.41370399 318.8083141 -343.91639194 287.85992397 -344.609375 255.6015625 C-344.63128906 254.72725586 -344.65320313 253.85294922 -344.67578125 252.95214844 C-346.32914576 179.34987172 -317.84826924 94.05511392 -271.609375 36.6015625 C-271.0628125 35.82554688 -270.51625 35.04953125 -269.953125 34.25 C-269.28796875 33.43402344 -269.28796875 33.43402344 -268.609375 32.6015625 C-267.949375 32.6015625 -267.289375 32.6015625 -266.609375 32.6015625 C-266.609375 31.9415625 -266.609375 31.2815625 -266.609375 30.6015625 C-265.949375 30.6015625 -265.289375 30.6015625 -264.609375 30.6015625 C-264.609375 29.9415625 -264.609375 29.2815625 -264.609375 28.6015625 C-263.949375 28.6015625 -263.289375 28.6015625 -262.609375 28.6015625 C-262.37992187 28.03695312 -262.15046875 27.47234375 -261.9140625 26.890625 C-260.26258133 23.99311613 -258.22612896 22.18734717 -255.734375 19.9765625 C-254.87070313 19.20054688 -254.00703125 18.42453125 -253.1171875 17.625 C-250.97782821 15.89885029 -249.11597547 14.68581293 -246.609375 13.6015625 C-246.609375 12.9415625 -246.609375 12.2815625 -246.609375 11.6015625 C-244.5185589 9.92649945 -242.42972136 8.37875997 -240.234375 6.8515625 C-239.65042969 6.43390625 -239.06648438 6.01625 -238.46484375 5.5859375 C-229.98332518 -0.39672506 -221.20919592 -5.307743 -211.671875 -9.3984375 C-210.67043457 -9.82850098 -209.66899414 -10.25856445 -208.63720703 -10.70166016 C-150.03909998 -35.41416874 -54.29254471 -37.39014872 0 0 Z " fill="#CAAA7F" transform="translate(375.609375,27.3984375)"/>
<path d="M0 0 C0 1.32 0 2.64 0 4 C0.66 4.33 1.32 4.66 2 5 C2 5.66 2 6.32 2 7 C2.99 7.66 3.98 8.32 5 9 C5.33 9.99 5.66 10.98 6 12 C6.66 12.33 7.32 12.66 8 13 C8 13.99 8 14.98 8 16 C9.32 16 10.64 16 12 16 C12.1546875 17.60875 12.1546875 17.60875 12.3125 19.25 C12.69388661 22.90150273 12.69388661 22.90150273 14.5 25 C16 27 16 27 16.3515625 30.1015625 C17.1209329 34.7270544 18.74948173 38.23823864 20.875 42.375 C21.22691406 43.09816406 21.57882812 43.82132813 21.94140625 44.56640625 C23.94619746 48.87259259 23.94619746 48.87259259 28 51 C28.73046875 53.06640625 28.73046875 53.06640625 29.1875 55.5625 C29.42533203 56.80193359 29.42533203 56.80193359 29.66796875 58.06640625 C29.77753906 58.70449219 29.88710938 59.34257812 30 60 C30.99 60 31.98 60 33 60 C34.6875 61.375 34.6875 61.375 36 63 C36 63.66 36 64.32 36 65 C36.66 65 37.32 65 38 65 C38.66 67.31 39.32 69.62 40 72 C41.32 72 42.64 72 44 72 C44.185625 73.5159375 44.185625 73.5159375 44.375 75.0625 C44.98274936 78.89132097 45.64583768 82.36514325 47 86 C49.00016466 87.20882096 49.00016466 87.20882096 51 88 C51.6875 89.8125 51.6875 89.8125 52 92 C52.185625 92.9075 52.37125 93.815 52.5625 94.75 C52.706875 95.4925 52.85125 96.235 53 97 C53.66 97 54.32 97 55 97 C54.34 98.98 53.68 100.96 53 103 C53.66 103 54.32 103 55 103 C55.66 104.32 56.32 105.64 57 107 C58.65 106.67 60.3 106.34 62 106 C61.505 107.485 61.505 107.485 61 109 C61.15688424 111.12816413 61.15688424 111.12816413 62 113 C63.485 113.495 63.485 113.495 65 114 C64.67 114.66 64.34 115.32 64 116 C67.465 115.505 67.465 115.505 71 115 C70.42415568 117.38564077 69.77772405 119.66682784 69 122 C68.34 122 67.68 122 67 122 C66.505 123.485 66.505 123.485 66 125 C62 119.25 62 119.25 62 117 C61.34 117 60.68 117 60 117 C58.87426758 115.55395508 58.87426758 115.55395508 57.64453125 113.51953125 C57.19086182 112.77477539 56.73719238 112.03001953 56.26977539 111.26269531 C55.78887451 110.45413086 55.30797363 109.64556641 54.8125 108.8125 C54.31419678 107.98459961 53.81589355 107.15669922 53.30249023 106.30371094 C49.69535134 100.26978118 46.29544174 94.14982894 43.02539062 87.92675781 C41.33053009 84.74203416 39.58513477 81.58511404 37.84838867 78.4230957 C33.05223529 69.68542062 28.34796147 60.90613913 23.75 52.0625 C23.24509033 51.09151367 22.74018066 50.12052734 22.2199707 49.12011719 C21.25000321 47.2538264 20.28018839 45.38745626 19.31054688 43.52099609 C14.26015863 33.80596089 9.03342713 24.20845144 3.625 14.6875 C3.10035156 13.76050293 2.57570313 12.83350586 2.03515625 11.87841797 C1.54144531 11.01490723 1.04773438 10.15139648 0.5390625 9.26171875 C0.09771973 8.48787842 -0.34362305 7.71403809 -0.79833984 6.91674805 C-1.98378473 4.86720821 -1.98378473 4.86720821 -4 3 C-6.47433013 2.94103931 -6.47433013 2.94103931 -9.25 3.3125 C-10.23097656 3.42078125 -11.21195313 3.5290625 -12.22265625 3.640625 C-15.16372406 4.02118511 -18.08576238 4.44865775 -21 5 C-16.11051327 0.11051327 -6.67562708 -0.45515639 0 0 Z " fill="#99815A" transform="translate(265,200)"/>
<path d="M0 0 C0.12375 1.010625 0.2475 2.02125 0.375 3.0625 C0.98274936 6.89132097 1.64583768 10.36514325 3 14 C5.00016466 15.20882096 5.00016466 15.20882096 7 16 C7.6875 17.8125 7.6875 17.8125 8 20 C8.185625 20.9075 8.37125 21.815 8.5625 22.75 C8.706875 23.4925 8.85125 24.235 9 25 C9.66 25 10.32 25 11 25 C10.34 26.98 9.68 28.96 9 31 C9.66 31 10.32 31 11 31 C11.66 32.32 12.32 33.64 13 35 C15.475 34.505 15.475 34.505 18 34 C17.67 34.99 17.34 35.98 17 37 C17.15688424 39.12816413 17.15688424 39.12816413 18 41 C19.485 41.495 19.485 41.495 21 42 C20.67 42.66 20.34 43.32 20 44 C23.465 43.505 23.465 43.505 27 43 C26.42415568 45.38564077 25.77772405 47.66682784 25 50 C24.34 50 23.68 50 23 50 C22.67 50.99 22.34 51.98 22 53 C18 47.25 18 47.25 18 45 C17.34 45 16.68 45 16 45 C14.87426758 43.55395508 14.87426758 43.55395508 13.64453125 41.51953125 C13.19021729 40.77356689 12.73590332 40.02760254 12.26782227 39.2590332 C11.78756592 38.45167725 11.30730957 37.64432129 10.8125 36.8125 C10.31999756 35.99547607 9.82749512 35.17845215 9.32006836 34.33666992 C5.85376796 28.54475478 2.56414316 22.68583644 -0.5625 16.703125 C-1.77531985 14.42249636 -3.06801424 12.24987309 -4.4375 10.0625 C-6.13554163 6.7343384 -6.3593765 4.68360917 -6 1 C-3.92446352 0.4465236 -2.15634036 0 0 0 Z " fill="#BF9B6C" transform="translate(309,272)"/>
<path d="M0 0 C0.33 0 0.66 0 1 0 C2.07221798 6.99086124 3.06518175 13.98944957 4 21 C4.11166504 21.81742676 4.22333008 22.63485352 4.33837891 23.47705078 C6.14256196 37.26308113 6.1835209 51.0579434 6.1875 64.9375 C6.18849701 65.87508148 6.18949402 66.81266296 6.19052124 67.77865601 C6.19019524 70.48663087 6.18111256 73.19440325 6.16796875 75.90234375 C6.16676025 76.7151178 6.16555176 77.52789185 6.16430664 78.36529541 C6.12642155 83.00804017 5.7649292 87.41919956 5 92 C4.67 92 4.34 92 4 92 C4.00523682 91.08935791 4.01047363 90.17871582 4.01586914 89.24047852 C6.11708099 63.92444611 6.11708099 63.92444611 2 40 C1.7749693 37.69939855 1.60652117 35.3931725 1.46484375 33.0859375 C1.40037804 32.05323227 1.40037804 32.05323227 1.33460999 30.99966431 C1.24435498 29.53880263 1.15623301 28.07780786 1.07006836 26.61669922 C0.93923119 24.404274 0.80125006 22.19238555 0.66210938 19.98046875 C0.25419097 13.30910635 -0.04777691 6.68412818 0 0 Z " fill="#E7D9C3" transform="translate(491,182)"/>
<path d="M0 0 C0.66 0.33 1.32 0.66 2 1 C1.86142578 1.70600342 1.72285156 2.41200684 1.58007812 3.1394043 C0.12876704 11.06544796 -0.34289298 18.76742439 -0.5 26.8125 C-0.95691686 43.59156204 -1.66521351 60.5034498 -5 77 C-5.66 77 -6.32 77 -7 77 C-7.33 77.99 -7.66 78.98 -8 80 C-7.72060734 76.29063565 -7.42430487 72.58280655 -7.125 68.875 C-7.04636719 67.82828125 -6.96773437 66.7815625 -6.88671875 65.703125 C-6.80292969 64.68476563 -6.71914062 63.66640625 -6.6328125 62.6171875 C-6.55949707 61.68503418 -6.48618164 60.75288086 -6.41064453 59.79248047 C-6 57 -6 57 -4.98193359 54.08789062 C-3.86871348 50.58714274 -3.71305614 47.6459454 -3.65625 43.9765625 C-3.62762985 42.61873318 -3.59898305 41.26090443 -3.5703125 39.90307617 C-3.5590332 39.20298431 -3.54775391 38.50289246 -3.53613281 37.78158569 C-3.05676078 9.17028235 -3.05676078 9.17028235 0 0 Z " fill="#B19979" transform="translate(242,205)"/>
<path d="M0 0 C0.33 0 0.66 0 1 0 C1.38097321 7.36548209 -0.03964733 14.07633988 -1.625 21.25 C-1.89642822 22.49056152 -2.16785645 23.73112305 -2.44750977 25.00927734 C-5.59831921 39.09557012 -9.60927806 52.70165935 -14.75 66.1875 C-15.04382568 66.96109863 -15.33765137 67.73469727 -15.64038086 68.53173828 C-17.75177858 73.87588929 -17.75177858 73.87588929 -20 75 C-19.744398 73.06043186 -19.46995354 71.12334011 -19.1875 69.1875 C-18.96126953 67.56908203 -18.96126953 67.56908203 -18.73046875 65.91796875 C-17.95548298 62.82216997 -17.26413789 62.07646871 -15 60 C-14.63858045 57.67085177 -14.30300475 55.33746522 -14 53 C-13.01 52.505 -13.01 52.505 -12 52 C-11.38255961 49.25524825 -11.38255961 49.25524825 -11 46.0625 C-10.22008253 40.22008253 -10.22008253 40.22008253 -8 38 C-7.54188325 36.02764667 -7.54188325 36.02764667 -7.375 33.875 C-7.25125 32.59625 -7.1275 31.3175 -7 30 C-6.34 30 -5.68 30 -5 30 C-5.061875 28.4221875 -5.061875 28.4221875 -5.125 26.8125 C-5 23 -5 23 -4.09375 20.84375 C-2.56940183 16.88044475 -2.02220563 12.87122213 -1.375 8.6875 C-1.2409375 7.85154297 -1.106875 7.01558594 -0.96875 6.15429688 C-0.64065239 4.10368682 -0.31961819 2.05194879 0 0 Z " fill="#EADCC7" transform="translate(494,274)"/>
<path d="M0 0 C0.99 0 1.98 0 3 0 C3.0825 0.763125 3.165 1.52625 3.25 2.3125 C4.15495191 5.55524435 5.28773348 6.16265816 8 8 C8 8.66 8 9.32 8 10 C9.65 9.67 11.3 9.34 13 9 C12.67 9.99 12.34 10.98 12 12 C12.15688424 14.12816413 12.15688424 14.12816413 13 16 C13.99 16.33 14.98 16.66 16 17 C15.67 17.66 15.34 18.32 15 19 C18.465 18.505 18.465 18.505 22 18 C21.42415568 20.38564077 20.77772405 22.66682784 20 25 C19.34 25 18.68 25 18 25 C17.67 25.99 17.34 26.98 17 28 C13 22.25 13 22.25 13 20 C12.34 20 11.68 20 11 20 C9.76318359 18.37939453 9.76318359 18.37939453 8.3984375 16.1328125 C7.66367187 14.92818359 7.66367187 14.92818359 6.9140625 13.69921875 C6.40617187 12.84972656 5.89828125 12.00023437 5.375 11.125 C4.859375 10.28324219 4.34375 9.44148438 3.8125 8.57421875 C0 2.27048198 0 2.27048198 0 0 Z " fill="#B59465" transform="translate(314,297)"/>
<path d="M0 0 C0 1.32 0 2.64 0 4 C0.66 4.33 1.32 4.66 2 5 C2 5.66 2 6.32 2 7 C2.99 7.66 3.98 8.32 5 9 C6.203125 11.53125 6.203125 11.53125 7.25 14.5 C7.78367187 15.96953125 7.78367187 15.96953125 8.328125 17.46875 C9 20 9 20 8 22 C7.67201416 21.45996338 7.34402832 20.91992676 7.00610352 20.36352539 C5.52636947 17.92895498 4.04446459 15.49571323 2.5625 13.0625 C2.04623047 12.21236328 1.52996094 11.36222656 0.99804688 10.48632812 C0.50498047 9.67744141 0.01191406 8.86855469 -0.49609375 8.03515625 C-0.95169678 7.2862915 -1.4072998 6.53742676 -1.87670898 5.76586914 C-2.87986088 4.04777074 -2.87986088 4.04777074 -4 3 C-9.69424593 3.21341297 -15.40388411 3.94127537 -21 5 C-16.11051327 0.11051327 -6.67562708 -0.45515639 0 0 Z " fill="#846E4C" transform="translate(265,200)"/>
<path d="M0 0 C1.32 0.33 2.64 0.66 4 1 C3.79375 1.556875 3.5875 2.11375 3.375 2.6875 C2.87032377 5.79967011 3.45731971 7.26524858 5 10 C6.63495707 11.05104383 8.29883624 12.05988318 10 13 C10 13.66 10 14.32 10 15 C10.66 15 11.32 15 12 15 C12.061875 15.61875 12.12375 16.2375 12.1875 16.875 C12.455625 17.57625 12.72375 18.2775 13 19 C14.64551962 19.71727778 16.31422289 20.38325228 18 21 C18.66 21.99 19.32 22.98 20 24 C19.360625 23.814375 18.72125 23.62875 18.0625 23.4375 C17.0415625 23.2209375 17.0415625 23.2209375 16 23 C15.67 23.33 15.34 23.66 15 24 C10.02321065 20.51343571 6.77121441 16.06823811 3.1875 11.25 C2.59001953 10.45722656 1.99253906 9.66445313 1.37695312 8.84765625 C-0.08770657 6.90258817 -1.54644092 4.95336934 -3 3 C-2.01 2.67 -1.02 2.34 0 2 C0 1.34 0 0.68 0 0 Z " fill="#A68C64" transform="translate(347,340)"/>
<path d="M0 0 C2 2 2 2 2 5 C2.99 5 3.98 5 5 5 C5.67126129 7.4363189 6.33716354 9.87388883 7 12.3125 C7.19078125 13.00279297 7.3815625 13.69308594 7.578125 14.40429688 C8.37716184 17.35787949 9 19.92559219 9 23 C9.99 23.33 10.98 23.66 12 24 C12 25.65 12 27.3 12 29 C8.67480288 25.2285643 6.65939248 21.40388849 4.875 16.75 C4.61638184 16.0912085 4.35776367 15.43241699 4.09130859 14.75366211 C2.22291138 9.87706169 0.90082228 5.13468701 0 0 Z " fill="#B28F76" transform="translate(48,376)"/>
<path d="M0 0 C-1.25644361 3.76933082 -2.78507904 4.73494205 -6 7 C-6.78632813 7.30679688 -7.57265625 7.61359375 -8.3828125 7.9296875 C-11.09113029 9.03726821 -13.23152776 10.38871443 -15.625 12.0625 C-18.17156156 13.83987829 -20.03197816 15.01065939 -23 16 C-23 15.34 -23 14.68 -23 14 C-20.82426807 12.289219 -18.6493041 10.69459016 -16.375 9.125 C-15.75753906 8.69058594 -15.14007813 8.25617187 -14.50390625 7.80859375 C-13.27200508 6.9449662 -12.03600792 6.08715054 -10.79589844 5.23535156 C-9.62521409 4.43006842 -8.46136505 3.61472855 -7.30566406 2.78808594 C-3.33356278 0 -3.33356278 0 0 0 Z " fill="#C7B6A0" transform="translate(152,25)"/>
<path d="M0 0 C1.11342605 3.30204492 0.89868799 5.10051892 -0.328125 8.3359375 C-0.63363281 9.15320313 -0.93914062 9.97046875 -1.25390625 10.8125 C-1.74697266 12.0809375 -1.74697266 12.0809375 -2.25 13.375 C-2.71986328 14.63183594 -2.71986328 14.63183594 -3.19921875 15.9140625 C-4.90382847 20.41253462 -6.75140116 24.73876639 -9 29 C-10.06615385 25.80153844 -9.95342597 24.69739078 -9.25 21.5 C-9.09015625 20.7265625 -8.9303125 19.953125 -8.765625 19.15625 C-7.90623617 16.73593045 -6.79535643 15.78091657 -5 14 C-4.63858045 11.67085177 -4.30300475 9.33746522 -4 7 C-3.34 6.67 -2.68 6.34 -2 6 C-1.27306096 4.02111039 -0.60183749 2.02045442 0 0 Z " fill="#E5D4BF" transform="translate(484,320)"/>
<path d="M0 0 C0.33 0.99 0.66 1.98 1 3 C2.32 3 3.64 3 5 3 C5.103125 4.0725 5.20625 5.145 5.3125 6.25 C5.99414151 9.9680446 6.76180918 11.15139351 9 14 C8.67 14.99 8.34 15.98 8 17 C4.83884224 15.63016497 4.0072908 15.0109362 2 12 C0.62895352 7.88686057 -0.26318799 4.34260182 0 0 Z " fill="#B18F62" transform="translate(272,213)"/>
<path d="M0 0 C4.84350442 0.63176145 9.21013477 2.0095009 13.75 3.75 C14.44867188 4.01441895 15.14734375 4.27883789 15.8671875 4.55126953 C21.42508262 6.69316131 26.76351239 9.1551774 32 12 C32 12.33 32 12.66 32 13 C26.69987423 12.4955464 22.92554575 11.2030298 18.25 8.6875 C12.32785652 5.57633889 6.36572254 3.09159455 0 1 C0 0.67 0 0.34 0 0 Z " fill="#EFE2CD" transform="translate(336,11)"/>
<path d="M0 0 C1.65 0 3.3 0 5 0 C5.66 1.32 6.32 2.64 7 4 C7.66 3.67 8.32 3.34 9 3 C9.48828125 4.98567708 9.9765625 6.97135417 10.46484375 8.95703125 C10.91010705 10.65683202 11.44433985 12.33301954 12 14 C11.67 14.66 11.34 15.32 11 16 C9.34908416 13.89965153 7.70418762 11.79504167 6.0625 9.6875 C5.59392578 9.09259766 5.12535156 8.49769531 4.64257812 7.88476562 C2.61444041 5.27299116 1.05369199 3.16107597 0 0 Z " fill="#96825B" transform="translate(332,325)"/>
<path d="M0 0 C0.66 0 1.32 0 2 0 C1.43206316 6.38769415 0.32181945 12.27731731 -1.4375 18.4375 C-1.65470703 19.23865234 -1.87191406 20.03980469 -2.09570312 20.86523438 C-3.74528871 26.74528871 -3.74528871 26.74528871 -6 29 C-5.55429393 25.56073907 -5.09127385 22.12402798 -4.625 18.6875 C-4.49867188 17.71103516 -4.37234375 16.73457031 -4.2421875 15.72851562 C-4.04882812 14.32182617 -4.04882812 14.32182617 -3.8515625 12.88671875 C-3.73635254 12.02264404 -3.62114258 11.15856934 -3.50244141 10.26831055 C-3 8 -3 8 -1 5 C-0.61500109 3.34450469 -0.27206865 1.6777567 0 0 Z " fill="#E1CFB5" transform="translate(230,308)"/>
<path d="M0 0 C0.66 0 1.32 0 2 0 C2.26554687 0.62648437 2.53109375 1.25296875 2.8046875 1.8984375 C3.15789062 2.71570313 3.51109375 3.53296875 3.875 4.375 C4.22304688 5.18710938 4.57109375 5.99921875 4.9296875 6.8359375 C5.92446067 9.13802299 5.92446067 9.13802299 8 11 C8.8563027 13.63233792 9.38929927 16.29546818 10 19 C10.66 19 11.32 19 12 19 C12 19.66 12 20.32 12 21 C10.14746094 20.76586914 10.14746094 20.76586914 8 20 C6.71972656 18.14233398 6.71972656 18.14233398 5.640625 15.74609375 C5.24746094 14.89208984 4.85429687 14.03808594 4.44921875 13.15820312 C4.05347656 12.26037109 3.65773438 11.36253906 3.25 10.4375 C2.83878906 9.53580078 2.42757813 8.63410156 2.00390625 7.70507812 C0.98943874 5.47560884 -0.01108285 3.24089134 -1 1 C-0.67 0.67 -0.34 0.34 0 0 Z " fill="#BF9B6B" transform="translate(281,230)"/>
<path d="M0 0 C-3.16174921 2.10783281 -5.45168074 2.717194 -9.125 3.5625 C-12.87019799 4.16664395 -12.87019799 4.16664395 -16 6 C-18.34987262 6.23527773 -20.70556039 6.41386417 -23.0625 6.5625 C-24.35285156 6.64628906 -25.64320313 6.73007813 -26.97265625 6.81640625 C-27.97167969 6.87699219 -28.97070312 6.93757812 -30 7 C-27.10539236 4.10539236 -23.62727998 3.79441146 -19.75 2.9375 C-18.99847656 2.76412109 -18.24695313 2.59074219 -17.47265625 2.41210938 C-11.65772267 1.08776586 -5.99606567 -0.17635487 0 0 Z " fill="#DAC4A8" transform="translate(216,4)"/>
<path d="M0 0 C0 0.66 0 1.32 0 2 C-6.91791537 6.51168394 -13.7409656 8.17634949 -22 8 C-22 7.34 -22 6.68 -22 6 C-16.75614911 4.2520497 -12.52677733 3.80607799 -7 4 C-7 3.34 -7 2.68 -7 2 C-4 0 -4 0 0 0 Z " fill="#D2C2AA" transform="translate(143,469)"/>
<path d="M0 0 C1.96502105 6.54514531 0.26601861 13.70550386 -2 20 C-3.625 21.9375 -3.625 21.9375 -5 23 C-4.354523 15.09290669 -2.13002861 7.60866033 0 0 Z " fill="#AE9578" transform="translate(42,198)"/>
<path d="M0 0 C2 1 2 1 2 1 Z M-2 1 C-1.34 1.33 -0.68 1.66 0 2 C-4.6463321 6.97217876 -8.89180978 10.94590489 -15 14 C-15 11 -15 11 -13.6796875 9.28125 C-10.06407783 5.7125963 -6.85375052 2.80604671 -2 1 Z " fill="#B4A48B" transform="translate(135,37)"/>
<path d="M0 0 C0.928125 0.350625 1.85625 0.70125 2.8125 1.0625 C7.17509979 2.35611343 11.10143376 1.73945655 15.546875 1.09375 C18 1 18 1 21 3 C17.49652737 5.14673568 14.57015718 5.32832389 10.5 5.375 C8.81390625 5.41753906 8.81390625 5.41753906 7.09375 5.4609375 C3.40958408 4.91203399 2.25989784 3.89133989 0 1 C0 0.67 0 0.34 0 0 Z " fill="#C2A586" transform="translate(411,408)"/>
<path d="M0 0 C0.33 0 0.66 0 1 0 C1.58912359 9.90600407 -0.20865113 19.30752309 -2 29 C-2.33 29 -2.66 29 -3 29 C-4.23272915 20.48971319 -3.5832526 14.14314653 -1 6 C-0.62837884 4.00675922 -0.27153025 2.00932387 0 0 Z " fill="#CBB290" transform="translate(494,263)"/>
<path d="M0 0 C0.66 0 1.32 0 2 0 C2.31453125 0.62648438 2.6290625 1.25296875 2.953125 1.8984375 C3.38109375 2.71570313 3.8090625 3.53296875 4.25 4.375 C4.66765625 5.18710937 5.0853125 5.99921875 5.515625 6.8359375 C6.82179122 9.11647935 6.82179122 9.11647935 9.02734375 10.0078125 C11.69032876 11.34721486 12.17284904 12.78947879 13.3125 15.5 C13.65925781 16.2940625 14.00601563 17.088125 14.36328125 17.90625 C15 20 15 20 14 22 C12.22643924 19.60614464 10.45609117 17.2100227 8.6875 14.8125 C7.93823242 13.80219727 7.93823242 13.80219727 7.17382812 12.77148438 C0 3.03218129 0 3.03218129 0 0 Z " fill="#796B5B" transform="translate(70,422)"/>
<path d="M0 0 C5.54998697 -0.22023758 10.37000125 0.55112596 15.75 1.875 C16.88115234 2.13603516 16.88115234 2.13603516 18.03515625 2.40234375 C21.49358724 3.23163004 24.01444439 4.00962959 27 6 C20.38330397 5.58713555 14.36181435 4.95748134 8 3 C5.3361995 2.57417043 2.68441704 2.28257021 0 2 C0 1.34 0 0.68 0 0 Z " fill="#E3D4BB" transform="translate(309,5)"/>
<path d="M0 0 C0.99 0 1.98 0 3 0 C3.0825 0.763125 3.165 1.52625 3.25 2.3125 C4.15495191 5.55524435 5.28773348 6.16265816 8 8 C8 8.66 8 9.32 8 10 C8.66 10 9.32 10 10 10 C10.33 12.64 10.66 15.28 11 18 C7.67140292 14.95124073 5.49564707 11.78089042 3.25 7.875 C2.63640625 6.82054687 2.0228125 5.76609375 1.390625 4.6796875 C0 2 0 2 0 0 Z " fill="#837153" transform="translate(314,297)"/>
<path d="M0 0 C1 2 1 2 0.3190918 4.12304688 C-0.05046631 4.97962891 -0.42002441 5.83621094 -0.80078125 6.71875 C-1.20103516 7.65074219 -1.60128906 8.58273437 -2.01367188 9.54296875 C-2.44228516 10.51878906 -2.87089844 11.49460937 -3.3125 12.5 C-3.72951172 13.47582031 -4.14652344 14.45164062 -4.57617188 15.45703125 C-7.72965316 22.72965316 -7.72965316 22.72965316 -10 25 C-9.17812739 20.61667943 -8.09845718 16.32059823 -7 12 C-6.34 12 -5.68 12 -5 12 C-5 11.01 -5 10.02 -5 9 C-4.34 9 -3.68 9 -3 9 C-2.814375 7.88625 -2.814375 7.88625 -2.625 6.75 C-2.04513299 4.19858515 -1.26291261 2.2732427 0 0 Z " fill="#EADABF" transform="translate(215,360)"/>
<path d="M0 0 C1.32 0.66 2.64 1.32 4 2 C1.69 5.96 -0.62 9.92 -3 14 C-4.3609623 11.2780754 -3.70366248 9.8168043 -3.0625 6.875 C-2.86785156 5.96492188 -2.67320312 5.05484375 -2.47265625 4.1171875 C-2.31667969 3.41851562 -2.16070312 2.71984375 -2 2 C-1.34 2 -0.68 2 0 2 C0 1.34 0 0.68 0 0 Z " fill="#DCC6A9" transform="translate(463,362)"/>
<path d="M0 0 C4.03385783 4.32199053 6.37128749 9.35446276 8 15 C7.67 15.66 7.34 16.32 7 17 C2.63839087 13.54079276 1.22409651 9.26732436 0 4 C0 2.68 0 1.36 0 0 Z " fill="#DECCB0" transform="translate(478,143)"/>
<path d="M0 0 C5.875 3.75 5.875 3.75 7 6 C7.66 6 8.32 6 9 6 C10.66666667 9.33333333 12.33333333 12.66666667 14 16 C8.83534582 11.78395577 3.98712997 7.38080761 0 2 C0 1.34 0 0.68 0 0 Z " fill="#907960" transform="translate(362,364)"/>
<path d="M0 0 C0.66 0.66 1.32 1.32 2 2 C1.34 2 0.68 2 0 2 C-0.66 8.27 -1.32 14.54 -2 21 C-2.33 21 -2.66 21 -3 21 C-4.55659432 8.18964942 -4.55659432 8.18964942 -2 2 C-1.34 1.34 -0.68 0.68 0 0 Z " fill="#BF9D6B" transform="translate(242,203)"/>
<path d="M0 0 C0 3 0 3 -1.75 5.04296875 C-2.4925 5.75066406 -3.235 6.45835937 -4 7.1875 C-4.7425 7.90292969 -5.485 8.61835938 -6.25 9.35546875 C-6.8275 9.89816406 -7.405 10.44085938 -8 11 C-8.33 9.68 -8.66 8.36 -9 7 C-8.34 7 -7.68 7 -7 7 C-6.773125 6.21625 -6.54625 5.4325 -6.3125 4.625 C-5 2 -5 2 -2.375 0.6875 C-1.59125 0.460625 -0.8075 0.23375 0 0 Z " fill="#D6C09D" transform="translate(163,448)"/>
<path d="M0 0 C0.33 0 0.66 0 1 0 C1.33 2.64 1.66 5.28 2 8 C1.01 8.495 1.01 8.495 0 9 C-0.33 9.99 -0.66 10.98 -1 12 C-1.66 12 -2.32 12 -3 12 C-3.33 12.99 -3.66 13.98 -4 15 C-5.32830615 11.01508155 -4.23204404 9.59951452 -2.5625 5.8125 C-2.08941406 4.72582031 -1.61632813 3.63914063 -1.12890625 2.51953125 C-0.75636719 1.68808594 -0.38382813 0.85664063 0 0 Z " fill="#9B8567" transform="translate(63,136)"/>
<path d="M0 0 C3.40603712 6.3085731 5.58288899 13.81103584 5 21 C0.5573366 14.3360049 -0.3754415 7.88427144 0 0 Z " fill="#E7D9C3" transform="translate(486,160)"/>
<path d="M0 0 C0.33 0.66 0.66 1.32 1 2 C0 5 0 5 -1.9375 6.8125 C-4.22242806 8.92063801 -4.22242806 8.92063801 -5 12.125 C-6 15 -6 15 -8.125 16.375 C-8.74375 16.58125 -9.3625 16.7875 -10 17 C-8.68018255 12.31812124 -6.80204328 8.99625079 -3.875 5.125 C-3.15054688 4.15820312 -2.42609375 3.19140625 -1.6796875 2.1953125 C-1.12539062 1.47085938 -0.57109375 0.74640625 0 0 Z " fill="#85735C" transform="translate(98,72)"/>
<path d="M0 0 C4.13501801 2.89451261 6.11330247 6.01723683 8.1875 10.5625 C8.55230469 11.34753906 8.91710937 12.13257813 9.29296875 12.94140625 C9.52628906 13.62074219 9.75960937 14.30007813 10 15 C9.67 15.66 9.34 16.32 9 17 C7.68085608 14.92062051 6.36961787 12.83691981 5.0625 10.75 C4.68931641 10.16347656 4.31613281 9.57695312 3.93164062 8.97265625 C2.1034339 6.04093735 0.53724618 3.44519771 0 0 Z " fill="#8A7A66" transform="translate(60,405)"/>
<path d="M0 0 C2.475 0.495 2.475 0.495 5 1 C5.66 0.67 6.32 0.34 7 0 C6.42655063 2.86724686 6.1385485 3.8614515 4 6 C3.34 7.32 2.68 8.64 2 10 C1.34 6.7 0.68 3.4 0 0 Z " fill="#B99470" transform="translate(40,350)"/>
<path d="M0 0 C1.32 0.33 2.64 0.66 4 1 C3.79375 1.515625 3.5875 2.03125 3.375 2.5625 C2.84112974 6.03265671 3.92323239 8.70635791 5 12 C1.71211176 8.88983545 -0.83735988 5.98381075 -3 2 C-2.01 2 -1.02 2 0 2 C0 1.34 0 0.68 0 0 Z " fill="#A08558" transform="translate(347,340)"/>
<path d="M0 0 C0.33 0 0.66 0 1 0 C1.33 2.31 1.66 4.62 2 7 C1.34 7 0.68 7 0 7 C-0.06058594 7.80824219 -0.12117188 8.61648437 -0.18359375 9.44921875 C-0.26738281 10.51785156 -0.35117187 11.58648437 -0.4375 12.6875 C-0.51871094 13.74324219 -0.59992187 14.79898438 -0.68359375 15.88671875 C-0.96451681 18.65086297 -1.40156852 21.28945741 -2 24 C-2.33 24 -2.66 24 -3 24 C-3.15490223 18.26861756 -2.65244885 13.10650794 -1.5 7.5 C-1.35691406 6.77296875 -1.21382812 6.0459375 -1.06640625 5.296875 C-0.71766302 3.52990929 -0.35980277 1.76474691 0 0 Z " fill="#8B785C" transform="translate(36,222)"/>
<path d="M0 0 C0.33 0.66 0.66 1.32 1 2 C0.0625 4.625 0.0625 4.625 -1 7 C-0.34 7.33 0.32 7.66 1 8 C0.34 9.98 -0.32 11.96 -1 14 C-1.66 13.34 -2.32 12.68 -3 12 C-2.67 11.01 -2.34 10.02 -2 9 C-2.99 9.33 -3.98 9.66 -5 10 C-3.84414715 6.08788267 -2.64465038 3.1254959 0 0 Z " fill="#AC9071" transform="translate(87,89)"/>
<path d="M0 0 C0.99 0 1.98 0 3 0 C2.71848913 1.31471568 2.42446661 2.62675767 2.125 3.9375 C1.96257812 4.66839844 1.80015625 5.39929688 1.6328125 6.15234375 C1 8 1 8 -1 9 C-1.72159424 10.64363134 -2.39351421 12.31050386 -3 14 C-3.66 13.67 -4.32 13.34 -5 13 C-4.58419156 10.58831107 -4.33582033 9.30783531 -2.5 7.625 C-0.36072601 5.30745317 -0.340489 3.06440101 0 0 Z " fill="#D4BF9A" transform="translate(216,352)"/>
<path d="M0 0 C0.66 0 1.32 0 2 0 C1.67 5.94 1.34 11.88 1 18 C0.34 18.33 -0.32 18.66 -1 19 C-2.38017078 14.44543643 -1.32587846 11.4748398 0 7 C-0.33 6.01 -0.66 5.02 -1 4 C-0.5625 1.8125 -0.5625 1.8125 0 0 Z " fill="#CAA471" transform="translate(234,261)"/>
<path d="M0 0 C0.66 1.32 1.32 2.64 2 4 C-0.31 7.3 -2.62 10.6 -5 14 C-6 12 -6 12 -5.0625 8.875 C-4.711875 7.92625 -4.36125 6.9775 -4 6 C-3.01 6 -2.02 6 -1 6 C-1.020625 5.195625 -1.04125 4.39125 -1.0625 3.5625 C-1 1 -1 1 0 0 Z " fill="#DBC5A9" transform="translate(454,378)"/>
<path d="M0 0 C1.8125 0.0625 1.8125 0.0625 4 1 C7.21472063 6.87517908 7.21472063 6.87517908 6.57421875 10.23046875 C6.38472656 10.81441406 6.19523437 11.39835937 6 12 C4.99466333 10.37829621 3.99588093 8.75252763 3 7.125 C2.443125 6.22007812 1.88625 5.31515625 1.3125 4.3828125 C0 2 0 2 0 0 Z " fill="#958058" transform="translate(303,277)"/>
<path d="M0 0 C0.99 0.33 1.98 0.66 3 1 C-1.01254885 4.51098025 -5.20983041 6.76537994 -10 9 C-10 8.34 -10 7.68 -10 7 C-7.91796875 5.23828125 -7.91796875 5.23828125 -5.1875 3.3125 C-4.29417969 2.66925781 -3.40085938 2.02601562 -2.48046875 1.36328125 C-1.25263672 0.68845703 -1.25263672 0.68845703 0 0 Z " fill="#BFAC96" transform="translate(139,32)"/>
<path d="M0 0 C-0.99 0.33 -1.98 0.66 -3 1 C-3.99 2.485 -3.99 2.485 -5 4 C-5.66 3.34 -6.32 2.68 -7 2 C-8.175625 2.5259375 -8.175625 2.5259375 -9.375 3.0625 C-10.674375 3.5265625 -10.674375 3.5265625 -12 4 C-12.66 3.67 -13.32 3.34 -14 3 C-14 2.34 -14 1.68 -14 1 C-12.41913952 0.63495397 -10.83516093 0.28339494 -9.25 -0.0625 C-8.36828125 -0.25972656 -7.4865625 -0.45695313 -6.578125 -0.66015625 C-4.01320972 -0.99825872 -2.42908361 -0.81158635 0 0 Z " fill="#C8A374" transform="translate(196,12)"/>
<path d="M0 0 C0.66 0 1.32 0 2 0 C4.20808081 5.19548425 3.93402724 8.58264203 3 14 C2.67 14 2.34 14 2 14 C0.66416101 9.15758367 -0.25328119 5.06562383 0 0 Z " fill="#A58D73" transform="translate(37,336)"/>
<path d="M0 0 C1.485 0.99 1.485 0.99 3 2 C3 2.66 3 3.32 3 4 C3.66 4 4.32 4 5 4 C5.99 6.97 6.98 9.94 8 13 C3.11431361 9.74287574 1.66233832 5.49850367 0 0 Z " fill="#B89D71" transform="translate(371,370)"/>
<path d="M0 0 C3.09592835 3.5087188 4.74194623 6.49197399 6 11 C4.125 10.875 4.125 10.875 2 10 C0.40155515 6.40349908 0 3.96602757 0 0 Z " fill="#E2CFB2" transform="translate(472,132)"/>
<path d="M0 0 C4.25171681 3.3618226 7.6381774 6.74828319 11 11 C10.67 11.66 10.34 12.32 10 13 C8.29115995 11.37660195 6.62553283 9.70680947 5 8 C5 7.34 5 6.68 5 6 C3.68 5.67 2.36 5.34 1 5 C0.67 3.35 0.34 1.7 0 0 Z " fill="#DECCB2" transform="translate(427,68)"/>
<path d="M0 0 C2 1 2 1 2 1 Z M-2 1 C-1.34 1.33 -0.68 1.66 0 2 C-2.64 4.64 -5.28 7.28 -8 10 C-8.66 9.67 -9.32 9.34 -10 9 C-7.94872955 5.0054207 -6.11087838 2.89732848 -2 1 Z " fill="#BDA583" transform="translate(135,37)"/>
<path d="M0 0 C2.375 0.1875 2.375 0.1875 5 1 C6.375 3.4375 6.375 3.4375 7 6 C6.67 6.66 6.34 7.32 6 8 C4.9970458 6.85675161 3.99770973 5.71032809 3 4.5625 C2.443125 3.92441406 1.88625 3.28632813 1.3125 2.62890625 C0 1 0 1 0 0 Z " fill="#A69375" transform="translate(88,448)"/>
<path d="M0 0 C0.99 0 1.98 0 3 0 C2.8125 1.8125 2.8125 1.8125 2 4 C-0.5625 5.75 -0.5625 5.75 -3 7 C-3 3.47190093 -2.35723489 2.53184488 0 0 Z " fill="#C8A26D" transform="translate(181,404)"/>
<path d="M0 0 C1.25955231 3.77865693 0.48087189 5.03411786 -0.9375 8.6875 C-1.31777344 9.68136719 -1.69804687 10.67523438 -2.08984375 11.69921875 C-2.39019531 12.45847656 -2.69054687 13.21773438 -3 14 C-3.84062397 10.90226756 -4.08935201 8.21667249 -4 5 C-3.01 4.67 -2.02 4.34 -1 4 C-0.26676204 1.98491642 -0.26676204 1.98491642 0 0 Z " fill="#E7D7C0" transform="translate(223,338)"/>
<path d="M0 0 C0.66 0 1.32 0 2 0 C2.34833144 4.87664009 1.41685712 7.77050005 -1 12 C-2.09898702 8.70303895 -1.87124444 7.59505097 -1.0625 4.3125 C-0.86785156 3.50425781 -0.67320312 2.69601562 -0.47265625 1.86328125 C-0.31667969 1.24839844 -0.16070312 0.63351562 0 0 Z " fill="#DDC7B2" transform="translate(476,337)"/>
<path d="M0 0 C1.97749439 2.96624159 2.40230872 4.58462127 3 8 C3.33 8.99 3.66 9.98 4 11 C3.67 11.66 3.34 12.32 3 13 C-0.54039643 9.30567329 -0.67693402 5.9267562 -1 1 C-0.67 0.67 -0.34 0.34 0 0 Z " fill="#AE8F62" transform="translate(340,328)"/>
<path d="M0 0 C1.04005702 3.38018531 1.08004482 6.4780279 1 10 C0.01 10.495 0.01 10.495 -1 11 C-1.66 11.99 -2.32 12.98 -3 14 C-2.40380045 9.13103697 -1.43023178 4.67209049 0 0 Z " fill="#8F7862" transform="translate(42,198)"/>
<path d="M0 0 C3 1 3 1 4.203125 2.99609375 C4.54859375 3.80175781 4.8940625 4.60742188 5.25 5.4375 C5.78367187 6.64212891 5.78367187 6.64212891 6.328125 7.87109375 C7 10 7 10 6 12 C2.44992282 8.0949151 1.18180084 5.02265357 0 0 Z " fill="#8F8067" transform="translate(78,432)"/>
<path d="M0 0 C0.99 0 1.98 0 3 0 C3.66 3.63 4.32 7.26 5 11 C3 10 3 10 2.1484375 7.96875 C1.89320313 7.1540625 1.63796875 6.339375 1.375 5.5 C0.98441406 4.27796875 0.98441406 4.27796875 0.5859375 3.03125 C0 1 0 1 0 0 Z " fill="#9B8463" transform="translate(290,251)"/>
<path d="M0 0 C2.00720923 0.28674418 4.0085944 0.61866701 6 1 C6 1.33 6 1.66 6 2 C-3.41002278 4.48063781 -3.41002278 4.48063781 -8 3 C-8 2.67 -8 2.34 -8 2 C-6.865625 1.855625 -5.73125 1.71125 -4.5625 1.5625 C-1.19222799 1.38828522 -1.19222799 1.38828522 0 0 Z " fill="#BEA074" transform="translate(257,198)"/>
<path d="M0 0 C6.52307692 0.61538462 6.52307692 0.61538462 8.9375 2.5625 C9.288125 3.036875 9.63875 3.51125 10 4 C3.47692308 3.38461538 3.47692308 3.38461538 1.0625 1.4375 C0.711875 0.963125 0.36125 0.48875 0 0 Z " fill="#DCCCB4" transform="translate(358,20)"/>
<path d="M0 0 C0.763125 0.309375 1.52625 0.61875 2.3125 0.9375 C4.18789677 1.67893593 6.08684652 2.36228217 8 3 C8.6875 5.0625 8.6875 5.0625 9 7 C4.58110387 5.64978174 2.65654657 3.73884332 0 0 Z " fill="#94836A" transform="translate(398,400)"/>
<path d="M0 0 C3 3.625 3 3.625 3 7 C3.99 7.33 4.98 7.66 6 8 C6 9.65 6 11.3 6 13 C2.47612355 8.88881081 0 5.53491888 0 0 Z " fill="#978371" transform="translate(54,392)"/>
<path d="M0 0 C0.33 0.66 0.66 1.32 1 2 C1.66 2 2.32 2 3 2 C3.33 4.64 3.66 7.28 4 10 C0.77686187 7.19275066 -0.64998321 5.31687378 -1 1 C-0.67 0.67 -0.34 0.34 0 0 Z " fill="#9B8061" transform="translate(321,305)"/>
<path d="M0 0 C3.08089673 2.77280706 4.68775452 5.06326356 6 9 C3.525 8.01 3.525 8.01 1 7 C0.67 4.69 0.34 2.38 0 0 Z " fill="#DAC4AD" transform="translate(459,110)"/>
<path d="M0 0 C0.99 0.33 1.98 0.66 3 1 C1 4 1 4 -2.125 4.6875 C-3.07375 4.790625 -4.0225 4.89375 -5 5 C-3.35 3.35 -1.7 1.7 0 0 Z " fill="#C3B399" transform="translate(118,50)"/>
<path d="M0 0 C0.99 0.33 1.98 0.66 3 1 C1.26440562 4.057952 -0.38472619 6.63379989 -3 9 C-3 7.35 -3 5.7 -3 4 C-2.34 4 -1.68 4 -1 4 C-0.67 2.68 -0.34 1.36 0 0 Z " fill="#D7BEA5" transform="translate(444,392)"/>
<path d="M0 0 C2.31 0 4.62 0 7 0 C7 1.65 7 3.3 7 5 C5.68 4.34 4.36 3.68 3 3 C3 2.34 3 1.68 3 1 C2.01 0.67 1.02 0.34 0 0 Z " fill="#A3875F" transform="translate(258,200)"/>
<path d="M0 0 C-2 3 -2 3 -3.9453125 3.51171875 C-4.66460937 3.56972656 -5.38390625 3.62773437 -6.125 3.6875 C-8.043125 3.8421875 -8.043125 3.8421875 -10 4 C-6.66064924 0.50886057 -4.84725717 -0.1275594 0 0 Z " fill="#BFA48B" transform="translate(171,17)"/>
<path d="M0 0 C0.99 0.33 1.98 0.66 3 1 C-3.14285714 6.57142857 -3.14285714 6.57142857 -8 7 C-8 6.34 -8 5.68 -8 5 C-7.05125 4.54625 -6.1025 4.0925 -5.125 3.625 C-1.99686321 2.19761746 -1.99686321 2.19761746 0 0 Z " fill="#C8A474" transform="translate(171,17)"/>
<path d="M0 0 C1.65 0 3.3 0 5 0 C5.309375 0.78375 5.61875 1.5675 5.9375 2.375 C6.92875038 4.92330128 6.92875038 4.92330128 8 7 C4.2047869 5.50902342 2.38957269 3.24299151 0 0 Z " fill="#948062" transform="translate(381,385)"/>
<path d="M0 0 C0.33 0 0.66 0 1 0 C1.125 5.75 1.125 5.75 0 8 C-0.66 8 -1.32 8 -2 8 C-2.125 5.125 -2.125 5.125 -2 2 C-1.34 1.34 -0.68 0.68 0 0 Z " fill="#D9CBAE" transform="translate(486,312)"/>
<path d="M0 0 C3.37503669 1.1858237 5.64722731 2.27573689 8 5 C5.69 4.67 3.38 4.34 1 4 C0.67 2.68 0.34 1.36 0 0 Z " fill="#E0CCB1" transform="translate(370,25)"/>
<path d="M0 0 C0 0.66 0 1.32 0 2 C-3.96 3.98 -3.96 3.98 -8 6 C-8.33 5.01 -8.66 4.02 -9 3 C-2.25 0 -2.25 0 0 0 Z " fill="#BFA789" transform="translate(160,21)"/>
<path d="M0 0 C0.99 0.33 1.98 0.66 3 1 C2.37240135 3.92879371 1.41377341 6.36095629 0 9 C-1.53445094 5.93109813 -0.54984289 3.29905734 0 0 Z " fill="#E1CCB1" transform="translate(471,348)"/>
<path d="M0 0 C3.37503669 1.1858237 5.64722731 2.27573689 8 5 C5.69 4.67 3.38 4.34 1 4 C0.67 2.68 0.34 1.36 0 0 Z " fill="#DFCCB6" transform="translate(382,32)"/>
<path d="M0 0 C0.99 0 1.98 0 3 0 C2.6875 2.375 2.6875 2.375 2 5 C1.01 5.66 0.02 6.32 -1 7 C-0.67 4.69 -0.34 2.38 0 0 Z " fill="#D7C4A1" transform="translate(165,441)"/>
<path d="M0 0 C0.99 0.33 1.98 0.66 3 1 C1.70700306 3.88437779 0.34058637 5.87219421 -2 8 C-1.125 1.125 -1.125 1.125 0 0 Z " fill="#DEC8AE" transform="translate(171,434)"/>
<path d="M0 0 C0.99 0.33 1.98 0.66 3 1 C3 3.97 3 6.94 3 10 C1.19669467 6.39338934 0.53400897 3.91606575 0 0 Z " fill="#9D8C6C" transform="translate(43,360)"/>
<path d="M0 0 C0.66 0 1.32 0 2 0 C1.67 2.31 1.34 4.62 1 7 C0.34 7 -0.32 7 -1 7 C-1.04254356 5.00045254 -1.04080783 2.99958364 -1 1 C-0.67 0.67 -0.34 0.34 0 0 Z " fill="#C4A476" transform="translate(484,232)"/>
<path d="M0 0 C5.875 3.75 5.875 3.75 7 6 C4.03 5.505 4.03 5.505 1 5 C0.67 3.35 0.34 1.7 0 0 Z " fill="#DAC4AB" transform="translate(401,45)"/>
</svg>
