<?xml version="1.0" encoding="UTF-8"?>
<svg version="1.1" xmlns="http://www.w3.org/2000/svg" width="500" height="500">
<path d="M0 0 C11.54247437 4.21822506 20.88157002 10.41756255 28.69921875 20.02734375 C29.70017744 22.36026598 30.70014635 24.69361309 31.69921875 27.02734375 C33.32080394 29.13102183 34.92337838 31.06987979 36.69921875 33.02734375 C46.49422809 44.24339071 54.79421882 56.32472638 62.49951172 69.04980469 C63.68219926 70.99928964 64.87881336 72.93961488 66.078125 74.87890625 C70.42472589 81.95546792 74.32151703 89.09741942 77.953125 96.5703125 C79.73583325 100.09983554 81.68895718 103.50047356 83.69921875 106.90234375 C86.97621833 112.48429798 89.68395598 118.2001729 92.17773438 124.17138672 C93.70899321 127.83056074 95.35817199 131.38682805 97.15234375 134.92578125 C111.47300533 163.29269008 120.33390476 194.75472133 127.82641602 225.52050781 C128.74036138 229.1926508 129.71087522 232.84615493 130.6953125 236.5 C132.03113422 241.46700361 133.30610803 246.44213565 134.515625 251.44140625 C134.9497168 253.22998047 134.9497168 253.22998047 135.39257812 255.0546875 C135.9811385 257.49093066 136.56431462 259.92847978 137.14257812 262.3671875 C137.43068359 263.54667969 137.71878906 264.72617187 138.015625 265.94140625 C138.26771729 266.99279785 138.51980957 268.04418945 138.77954102 269.12744141 C139.72401292 272.10552404 141.08264548 274.37126386 142.69921875 277.02734375 C142.859375 280.04296875 142.859375 280.04296875 142.76171875 283.27734375 C143.06450415 288.84733348 144.1454205 291.30611228 148.26171875 295.08984375 C150.03207872 296.45865275 151.8438804 297.77613149 153.69921875 299.02734375 C154.43527344 299.52492188 155.17132813 300.0225 155.9296875 300.53515625 C159.0911067 302.38186534 161.17726632 303.10041709 164.82421875 302.58984375 C170.14058985 299.70051163 174.01334673 296.47119174 176.69921875 291.02734375 C177.61255395 287.77145181 178.2142398 284.48218921 178.79296875 281.15234375 C178.96453491 280.18417725 179.13610107 279.21601074 179.31286621 278.21850586 C181.10137321 267.53565072 181.69080399 256.83343519 182.19921875 246.02734375 C184.45530398 198.07542479 198.89848402 151.44527165 226.4453125 111.84130859 C227.73613384 109.9739405 229.00095632 108.09089505 230.26171875 106.203125 C231.07379749 104.99841385 231.88628062 103.79397515 232.69921875 102.58984375 C233.78203125 100.98302734 233.78203125 100.98302734 234.88671875 99.34375 C235.48484375 98.57933594 236.08296875 97.81492187 236.69921875 97.02734375 C237.35921875 97.02734375 238.01921875 97.02734375 238.69921875 97.02734375 C238.92480469 96.32996094 239.15039062 95.63257812 239.3828125 94.9140625 C240.98642467 91.3975361 243.24291278 88.72204181 245.76171875 85.83984375 C249.0669648 82.16861432 249.0669648 82.16861432 251.69921875 78.02734375 C252.35921875 78.02734375 253.01921875 78.02734375 253.69921875 78.02734375 C254.055 77.19396484 254.055 77.19396484 254.41796875 76.34375 C255.99995615 73.48363254 257.9758459 71.35785706 260.19921875 68.96484375 C262.60458606 66.3681404 264.73326079 63.97628069 266.69921875 61.02734375 C267.35921875 61.02734375 268.01921875 61.02734375 268.69921875 61.02734375 C268.93640625 60.4653125 269.17359375 59.90328125 269.41796875 59.32421875 C270.98869572 56.50840333 272.91393339 54.54778959 275.19921875 52.27734375 C275.99328125 51.478125 276.78734375 50.67890625 277.60546875 49.85546875 C279.69921875 48.02734375 279.69921875 48.02734375 281.69921875 48.02734375 C281.69921875 47.36734375 281.69921875 46.70734375 281.69921875 46.02734375 C285.18949455 42.81936967 288.97050144 39.95250043 292.69921875 37.02734375 C293.50488281 36.39183594 294.31054688 35.75632813 295.140625 35.1015625 C300.42057913 31.02734375 300.42057913 31.02734375 302.69921875 31.02734375 C302.69921875 30.36734375 302.69921875 29.70734375 302.69921875 29.02734375 C304.67921875 28.36734375 306.65921875 27.70734375 308.69921875 27.02734375 C308.69921875 26.36734375 308.69921875 25.70734375 308.69921875 25.02734375 C319.96798159 18.54729568 330.45779685 14.399254 343.65234375 17.78515625 C348.20580327 19.51656152 352.21563782 21.54376282 355.69921875 25.02734375 C355.69921875 25.68734375 355.69921875 26.34734375 355.69921875 27.02734375 C356.35921875 27.02734375 357.01921875 27.02734375 357.69921875 27.02734375 C364.54630751 35.55814286 368.37924817 47.07691236 372.69921875 57.02734375 C373.05306641 57.83445801 373.40691406 58.64157227 373.77148438 59.47314453 C379.0159773 71.46090967 383.61100716 83.59811551 387.69921875 96.02734375 C387.97008301 96.84315918 388.24094727 97.65897461 388.52001953 98.49951172 C392.77858432 111.47076555 395.73980964 124.51608125 397.69921875 138.02734375 C397.87727051 139.21400635 398.05532227 140.40066895 398.23876953 141.62329102 C400.0038951 154.25141981 400.09744502 166.85691966 400.07421875 179.58984375 C400.07340302 181.27451752 400.07340302 181.27451752 400.0725708 182.9932251 C400.03114095 201.6568772 399.01573936 219.63481788 395.69921875 238.02734375 C395.47959473 239.25984863 395.2599707 240.49235352 395.03369141 241.76220703 C386.24554029 289.77051453 368.536729 333.87922139 340.69921875 374.02734375 C339.96960938 375.105 339.24 376.18265625 338.48828125 377.29296875 C328.67975404 391.73627149 328.67975404 391.73627149 323.69921875 397.02734375 C323.03921875 397.02734375 322.37921875 397.02734375 321.69921875 397.02734375 C321.47621094 397.56746094 321.25320313 398.10757812 321.0234375 398.6640625 C319.27385834 401.78646778 316.947094 404.24899297 314.51171875 406.83984375 C314.01414062 407.37391846 313.5165625 407.90799316 313.00390625 408.45825195 C311.5745867 409.98664933 310.13796063 411.50782113 308.69921875 413.02734375 C307.76142578 414.02894531 307.76142578 414.02894531 306.8046875 415.05078125 C296.44148578 425.79220201 283.78799192 434.36770193 271.69921875 443.02734375 C270.5707251 443.83921143 270.5707251 443.83921143 269.41943359 444.66748047 C257.8090952 452.94591101 245.7460509 459.30533014 232.69921875 465.02734375 C231.6927832 465.47932129 231.6927832 465.47932129 230.66601562 465.94042969 C184.09652078 486.7277594 127.76659954 484.5423404 80.71948242 466.75195312 C57.38837865 457.55720708 36.87040723 444.05765745 17.69921875 428.02734375 C16.95800781 427.42277344 16.21679688 426.81820313 15.453125 426.1953125 C13.82907007 424.85228116 12.25702791 423.44668099 10.69921875 422.02734375 C10.69921875 421.36734375 10.69921875 420.70734375 10.69921875 420.02734375 C10.03921875 420.02734375 9.37921875 420.02734375 8.69921875 420.02734375 C8.69921875 419.36734375 8.69921875 418.70734375 8.69921875 418.02734375 C8.03921875 418.02734375 7.37921875 418.02734375 6.69921875 418.02734375 C6.69921875 417.36734375 6.69921875 416.70734375 6.69921875 416.02734375 C6.03921875 416.02734375 5.37921875 416.02734375 4.69921875 416.02734375 C4.69921875 415.36734375 4.69921875 414.70734375 4.69921875 414.02734375 C4.03921875 414.02734375 3.37921875 414.02734375 2.69921875 414.02734375 C2.69921875 413.36734375 2.69921875 412.70734375 2.69921875 412.02734375 C1.86390625 411.68703125 1.86390625 411.68703125 1.01171875 411.33984375 C-1.96237713 409.65184339 -4.0208699 407.56057858 -6.30078125 405.02734375 C-6.30078125 404.36734375 -6.30078125 403.70734375 -6.30078125 403.02734375 C-6.96078125 403.02734375 -7.62078125 403.02734375 -8.30078125 403.02734375 C-8.30078125 402.36734375 -8.30078125 401.70734375 -8.30078125 401.02734375 C-8.96078125 401.02734375 -9.62078125 401.02734375 -10.30078125 401.02734375 C-11.640625 399.734375 -11.640625 399.734375 -13.23828125 397.83984375 C-14.16833984 396.74349609 -14.16833984 396.74349609 -15.1171875 395.625 C-16.19806641 394.33916016 -16.19806641 394.33916016 -17.30078125 393.02734375 C-18.15542969 392.03605469 -19.01007813 391.04476563 -19.890625 390.0234375 C-39.22149239 367.56627503 -53.69128969 343.10016599 -63.30078125 315.02734375 C-63.54393066 314.32770508 -63.78708008 313.62806641 -64.03759766 312.90722656 C-67.3746167 303.20623684 -70.09346019 293.3762633 -72.48828125 283.40234375 C-72.72611328 282.44602051 -72.96394531 281.48969727 -73.20898438 280.50439453 C-78.204895 258.8939324 -78.80927992 236.98541996 -78.67578125 214.90234375 C-78.67133536 213.54929737 -78.66731094 212.19624954 -78.66369629 210.84320068 C-78.60309031 191.43254214 -78.19519344 172.25340724 -75.30078125 153.02734375 C-75.15624512 152.01929688 -75.01170898 151.01125 -74.86279297 149.97265625 C-70.47794691 120.06052812 -62.16321448 90.83122233 -50.30078125 63.02734375 C-49.60527245 61.37117617 -48.90997591 59.71491945 -48.21484375 58.05859375 C-45.95261297 52.69606963 -43.64174673 47.35593343 -41.30078125 42.02734375 C-40.95756836 41.24472168 -40.61435547 40.46209961 -40.26074219 39.65576172 C-35.25561881 28.34653132 -29.69998601 17.32595424 -21.63671875 7.83984375 C-19.30460014 5.03194174 -17.89409347 2.28984019 -16.30078125 -0.97265625 C-11.4920849 -3.37700442 -4.91165653 -1.44734021 0 0 Z " fill="#CAAB81" transform="translate(93.30078125,2.97265625)"/>
<path d="M0 0 C0.495 0.99 0.495 0.99 1 2 C0.67 2.99 0.34 3.98 0 5 C-0.66 5 -1.32 5 -2 5 C-2.66 7.31 -3.32 9.62 -4 12 C-4.66 12 -5.32 12 -6 12 C-6.103125 12.70125 -6.20625 13.4025 -6.3125 14.125 C-7.35290658 18.47579114 -9.53848862 22.13022855 -11.625 26.0625 C-12.89280693 28.77099662 -13.56722623 31.05713835 -14 34 C-13.34 34 -12.68 34 -12 34 C-12.60900386 38.14122627 -14.07171272 41.30411604 -16 45 C-16.33 45.99 -16.66 46.98 -17 48 C-17.99 48.495 -17.99 48.495 -19 49 C-20.31745857 52.87918356 -21 55.88375865 -21 60 C-21.99 60 -22.98 60 -24 60 C-24.33 60.66 -24.66 61.32 -25 62 C-25.66 62 -26.32 62 -27 62 C-27.02578125 62.62003906 -27.0515625 63.24007812 -27.078125 63.87890625 C-27.53551265 71.02039074 -29.08969059 77.53373161 -31.015625 84.4140625 C-33.70253151 94.20207909 -35.18412604 103.95610427 -35.0625 114.11328125 C-35.05871338 114.84951218 -35.05492676 115.5857431 -35.05102539 116.34428406 C-35.03893493 118.66708606 -35.0202923 120.98975611 -35 123.3125 C-34.97340138 126.39192351 -34.9534422 129.47128628 -34.9375 132.55078125 C-34.92920166 133.25390945 -34.92090332 133.95703766 -34.91235352 134.68147278 C-34.89689212 137.74572748 -35.02226029 140.06678087 -36 143 C-35.34 143 -34.68 143 -34 143 C-33 146 -33 146 -33.8125 148.12109375 C-34.60310967 149.66330274 -35.39477388 151.20497159 -36.1875 152.74609375 C-37.14112411 155.39148371 -36.68019659 156.35303344 -36 159 C-36.77734375 160.96484375 -36.77734375 160.96484375 -37.9375 162.9375 C-39.67163375 166.05230788 -39.67163375 166.05230788 -39.9375 169.5625 C-40.03904543 173.52277177 -42.18899554 176.30521277 -45 179 C-48.3125 179.9375 -48.3125 179.9375 -51 180 C-50.38511719 179.12988281 -50.38511719 179.12988281 -49.7578125 178.2421875 C-49.21898437 177.46101562 -48.68015625 176.67984375 -48.125 175.875 C-47.59132813 175.10929688 -47.05765625 174.34359375 -46.5078125 173.5546875 C-38.06256107 159.24589362 -39.20491413 138.41709392 -38.41870117 122.37915039 C-36.4086596 82.45499142 -25.91907437 31.95055708 0 0 Z " fill="#927A53" transform="translate(314,124)"/>
<path d="M0 0 C0.99 0.495 0.99 0.495 2 1 C1.09522263 2.46573934 0.17565859 3.92235756 -0.75 5.375 C-1.51570313 6.59316406 -1.51570313 6.59316406 -2.296875 7.8359375 C-4.09146151 10.11621485 -5.40601696 10.8273035 -8 12 C-8.61875 13.0828125 -8.61875 13.0828125 -9.25 14.1875 C-11.32224137 17.51788792 -13.75544207 19.52162491 -16.7421875 22.0234375 C-20.00535727 24.88012245 -22.9491252 28.02515084 -25.921875 31.1796875 C-28 33 -28 33 -29.93359375 33.3828125 C-33.35819741 34.40566199 -35.14638987 37.30715097 -37.3125 40 C-37.79307861 40.58289795 -38.27365723 41.1657959 -38.76879883 41.76635742 C-42.60292358 46.43909663 -46.35143852 51.18091026 -50 56 C-46.40365256 52.50640535 -43.16548033 48.88901869 -40 45 C-40 48.93602341 -41.58022978 49.99361881 -44 53 C-44.1340625 53.6496875 -44.268125 54.299375 -44.40625 54.96875 C-45.18065733 57.61803824 -46.38615268 58.41375203 -48.5625 60.0625 C-50.49174728 61.46192868 -50.49174728 61.46192868 -52 63 C-52 63.99 -52 64.98 -52 66 C-57.10652613 70.8744113 -57.10652613 70.8744113 -59.9453125 71.2734375 C-63.27039072 72.44922562 -64.31008347 75.07405091 -66.125 78 C-69.81818182 83.90909091 -69.81818182 83.90909091 -72 85 C-69.96432098 79.4769392 -66.81715534 75.01212615 -63.5 70.1875 C-62.90574219 69.30384766 -62.31148438 68.42019531 -61.69921875 67.50976562 C-60.84263672 66.25776367 -60.84263672 66.25776367 -59.96875 64.98046875 C-59.44732422 64.21629639 -58.92589844 63.45212402 -58.38867188 62.66479492 C-57.93041016 62.1154126 -57.47214844 61.56603027 -57 61 C-56.34 61 -55.68 61 -55 61 C-54.77441406 60.30261719 -54.54882812 59.60523438 -54.31640625 58.88671875 C-52.71279408 55.37019235 -50.45630597 52.69469806 -47.9375 49.8125 C-44.63225395 46.14127057 -44.63225395 46.14127057 -42 42 C-41.34 42 -40.68 42 -40 42 C-39.7628125 41.44441406 -39.525625 40.88882813 -39.28125 40.31640625 C-37.6992626 37.45628879 -35.72337285 35.33051331 -33.5 32.9375 C-31.09463269 30.34079665 -28.96595796 27.94893694 -27 25 C-26.34 25 -25.68 25 -25 25 C-24.7628125 24.43796875 -24.525625 23.8759375 -24.28125 23.296875 C-22.71052303 20.48105958 -20.78528536 18.52044584 -18.5 16.25 C-17.7059375 15.45078125 -16.911875 14.6515625 -16.09375 13.828125 C-14 12 -14 12 -12 12 C-12 11.34 -12 10.68 -12 10 C-10.23947136 8.41929472 -8.41580202 6.90833714 -6.5625 5.4375 C-5.55316406 4.63183594 -4.54382813 3.82617188 -3.50390625 2.99609375 C-2.67761719 2.33738281 -1.85132813 1.67867187 -1 1 C-0.67 0.67 -0.34 0.34 0 0 Z " fill="#C6A371" transform="translate(387,39)"/>
<path d="M0 0 C2.20479592 3.78132693 3.06423765 7.87325037 4.05859375 12.08984375 C4.44838121 13.69470677 4.83836111 15.29952305 5.22851562 16.90429688 C5.83484901 19.42270466 6.43850088 21.94170483 7.03833008 24.46166992 C7.62116623 26.90204282 8.21429485 29.33974101 8.80859375 31.77734375 C8.9836998 32.52644516 9.15880585 33.27554657 9.33921814 34.04734802 C10.35648694 38.19521969 11.72351417 41.4082202 14 45 C14.265625 48.05078125 14.265625 48.05078125 14.25 51.3125 C14.55264999 57.50626723 16.11360119 60.42272953 20.50390625 64.70703125 C20.99761719 65.13371094 21.49132812 65.56039062 22 66 C21.34 66.99 20.68 67.98 20 69 C18.88625 67.8553125 18.88625 67.8553125 17.75 66.6875 C15.18870238 64.05190726 15.18870238 64.05190726 12.75 62.375 C11 61 11 61 10 58 C9.9805726 56.43748189 10.00611493 54.87412127 10.0625 53.3125 C10.12582116 48.52119894 9.35789849 44.5829074 8 40 C7.34 40 6.68 40 6 40 C6 39.34 6 38.68 6 38 C5.01 37.67 4.02 37.34 3 37 C2.87625 35.700625 2.7525 34.40125 2.625 33.0625 C2.17882903 28.96290012 1.4001062 25.04130148 0.40234375 21.04296875 C0 19 0 19 0 15 C0.66 15 1.32 15 2 15 C1.855625 14.41992188 1.71125 13.83984375 1.5625 13.2421875 C0.49110572 8.73340325 -0.23945936 4.66945753 0 0 Z " fill="#B5966D" transform="translate(222,235)"/>
<path d="M0 0 C0.33 0.66 0.66 1.32 1 2 C0.67 2.99 0.34 3.98 0 5 C-0.66 5 -1.32 5 -2 5 C-2.66 7.31 -3.32 9.62 -4 12 C-4.66 12 -5.32 12 -6 12 C-6.103125 12.70125 -6.20625 13.4025 -6.3125 14.125 C-7.35290658 18.47579114 -9.53848862 22.13022855 -11.625 26.0625 C-12.89280693 28.77099662 -13.56722623 31.05713835 -14 34 C-13.34 34 -12.68 34 -12 34 C-12.60900386 38.14122627 -14.07171272 41.30411604 -16 45 C-16.33 45.99 -16.66 46.98 -17 48 C-17.99 48.495 -17.99 48.495 -19 49 C-20.31745857 52.87918356 -21 55.88375865 -21 60 C-23 59 -23 59 -24 58 C-25.07594794 49.08500274 -21.61441763 41.93209298 -18 34 C-17.58717773 33.09217773 -17.17435547 32.18435547 -16.74902344 31.24902344 C-6.71382835 9.37186279 -6.71382835 9.37186279 0 0 Z " fill="#A98D66" transform="translate(314,124)"/>
<path d="M0 0 C0.66 0.33 1.32 0.66 2 1 C1.09522263 2.46573934 0.17565859 3.92235756 -0.75 5.375 C-1.26046875 6.18710937 -1.7709375 6.99921875 -2.296875 7.8359375 C-4.09146151 10.11621485 -5.40601696 10.8273035 -8 12 C-8.4125 12.721875 -8.825 13.44375 -9.25 14.1875 C-11.79188975 18.27267996 -15.31734269 20.95539254 -19 24 C-19.61230469 24.51433594 -20.22460938 25.02867188 -20.85546875 25.55859375 C-22.23146443 26.71233834 -23.61485527 27.8572556 -25 29 C-25.3359375 26.3671875 -25.3359375 26.3671875 -25 23 C-23.24853639 20.75648641 -21.68714837 19.0221765 -19.625 17.125 C-19.11710937 16.62742187 -18.60921875 16.12984375 -18.0859375 15.6171875 C-14.30975275 12 -14.30975275 12 -12 12 C-12 11.34 -12 10.68 -12 10 C-10.23947136 8.41929472 -8.41580202 6.90833714 -6.5625 5.4375 C-5.55316406 4.63183594 -4.54382813 3.82617188 -3.50390625 2.99609375 C-2.67761719 2.33738281 -1.85132813 1.67867187 -1 1 C-0.67 0.67 -0.34 0.34 0 0 Z M-28 29 C-27.01 29.33 -26.02 29.66 -25 30 C-26.32 30.99 -27.64 31.98 -29 33 C-29 30 -29 30 -28 29 Z " fill="#C5A273" transform="translate(387,39)"/>
<path d="M0 0 C0.33 0 0.66 0 1 0 C1.60595029 11.17641652 0.58130385 22.05311149 -0.8125 33.125 C-0.89536255 33.79619873 -0.9782251 34.46739746 -1.06359863 35.15893555 C-2.27600395 44.87831571 -3.9621705 54.42142845 -6 64 C-6.33 64 -6.66 64 -7 64 C-6.91148745 61.08213785 -6.80443506 58.16675751 -6.6875 55.25 C-6.66494141 54.44433594 -6.64238281 53.63867188 -6.61914062 52.80859375 C-6.41437293 48.08032162 -5.76939629 43.84573181 -4.5 39.28125 C-2.63412298 32.28912138 -2.44412649 25.45561027 -2.3125 18.25 C-2.27833984 16.96867187 -2.24417969 15.68734375 -2.20898438 14.3671875 C-2.12743155 11.24487938 -2.05798423 8.12281941 -2 5 C-1.67 5 -1.34 5 -1 5 C-0.67 3.35 -0.34 1.7 0 0 Z " fill="#CBB599" transform="translate(492,192)"/>
<path d="M0 0 C2.8125 0.625 2.8125 0.625 6 2 C7.05008653 3.97416268 8.04987876 5.97582866 9 8 C11.23908207 9.66331811 13.51805734 10.77200405 16.03125 11.9609375 C16.7428125 12.30382812 17.454375 12.64671875 18.1875 13 C18.86167969 13.309375 19.53585938 13.61875 20.23046875 13.9375 C22 15 22 15 24 18 C24.66 18 25.32 18 26 18 C26 18.66 26 19.32 26 20 C25.34 20.33 24.68 20.66 24 21 C24 21.66 24 22.32 24 23 C24.99 23.33 25.98 23.66 27 24 C26.67 24.99 26.34 25.98 26 27 C22.18063472 25.44396229 19.73955562 23.04395069 17 20 C17 19.34 17 18.68 17 18 C16.34 18 15.68 18 15 18 C15 17.34 15 16.68 15 16 C14.34 16 13.68 16 13 16 C8.08004294 11.23220656 4.01534513 5.53029219 0 0 Z " fill="#B09570" transform="translate(70,388)"/>
<path d="M0 0 C0.33 0 0.66 0 1 0 C2.25 6.625 2.25 6.625 0 10 C-0.66 10 -1.32 10 -2 10 C-2.02578125 10.62003906 -2.0515625 11.24007812 -2.078125 11.87890625 C-2.53542155 19.01896831 -4.10877241 25.58811703 -6.01953125 32.4609375 C-9.07183261 43.47840774 -9.97214255 54.64729792 -11 66 C-11.33 66 -11.66 66 -12 66 C-13.16027395 43.50357726 -7.25576263 21.15255062 0 0 Z " fill="#8A7554" transform="translate(289,176)"/>
<path d="M0 0 C6.44953936 11.30121987 6.56788098 25.39619718 6 38 C5.01 37.67 4.02 37.34 3 37 C2.87625 35.700625 2.7525 34.40125 2.625 33.0625 C2.17882903 28.96290012 1.4001062 25.04130148 0.40234375 21.04296875 C0 19 0 19 0 15 C0.66 15 1.32 15 2 15 C1.855625 14.41992188 1.71125 13.83984375 1.5625 13.2421875 C0.49110572 8.73340325 -0.23945936 4.66945753 0 0 Z " fill="#BDA071" transform="translate(222,235)"/>
<path d="M0 0 C0.33 0 0.66 0 1 0 C1.13277344 1.13179687 1.26554687 2.26359375 1.40234375 3.4296875 C1.5805342 4.91148179 1.75893029 6.39325136 1.9375 7.875 C2.06801758 8.99455078 2.06801758 8.99455078 2.20117188 10.13671875 C2.63326063 14.1953231 2.63326063 14.1953231 4 18 C4.40637115 21.26205205 4.76486427 24.52243671 5.07421875 27.79492188 C5.61772371 32.72792033 6.88381699 36.50929475 9 41 C10.93235041 46.49194326 11.23438372 51.25759877 11 57 C8.80528515 53.15672054 7.72835037 48.98717662 6.5625 44.75 C6.23427246 43.55987305 6.23427246 43.55987305 5.89941406 42.34570312 C2.14860959 28.41730958 -0.23314603 14.45505405 0 0 Z " fill="#8E8069" transform="translate(16,248)"/>
<path d="M0 0 C-16.76991238 7.51754693 -34.41805434 13.93658039 -53 14 C-53 13.67 -53 13.34 -53 13 C-52.42967041 12.88406494 -51.85934082 12.76812988 -51.27172852 12.64868164 C-48.70116824 12.12386875 -46.13183782 11.59326385 -43.5625 11.0625 C-42.66466797 10.88009766 -41.76683594 10.69769531 -40.84179688 10.50976562 C-39.98779297 10.33251953 -39.13378906 10.15527344 -38.25390625 9.97265625 C-37.46314697 9.81031494 -36.6723877 9.64797363 -35.85766602 9.48071289 C-33.99795332 9.16709107 -33.99795332 9.16709107 -33 8 C-31.7625 7.9175 -30.525 7.835 -29.25 7.75 C-23.70025099 7.22357686 -18.93188657 5.19143731 -13.8203125 3.05859375 C-11 2 -11 2 -8 2 C-8 1.34 -8 0.68 -8 0 C-4.71303767 -0.79953138 -3.28976808 -1.09658936 0 0 Z " fill="#917D69" transform="translate(328,467)"/>
<path d="M0 0 C0.66 0 1.32 0 2 0 C3.87414528 3.74829057 3.03055654 8.55383012 2.9609375 12.703125 C2.95320313 13.44820313 2.94546875 14.19328125 2.9375 14.9609375 C2.92009766 15.97873291 2.92009766 15.97873291 2.90234375 17.01708984 C3.00612323 19.12433209 3.42502956 20.97458741 4 23 C4.66 23 5.32 23 6 23 C6 25.97 6 28.94 6 32 C0.67008582 26.67008582 0.59176193 17.48888372 0.2109375 10.37109375 C0.25965358 8.04576461 0.25965358 8.04576461 -1 7 C-1.125 4 -1.125 4 -1 1 C-0.67 0.67 -0.34 0.34 0 0 Z " fill="#C8A678" transform="translate(26,288)"/>
<path d="M0 0 C1.0625 1.75 1.0625 1.75 2 4 C1.814375 4.639375 1.62875 5.27875 1.4375 5.9375 C0.71180132 8.18267312 0.71180132 8.18267312 2.5625 10.5 C3.036875 11.325 3.51125 12.15 4 13 C3.1875 15.3125 3.1875 15.3125 2 17 C-0.9555377 14.24829249 -3.11563315 11.58029701 -5 8 C-5 7.34 -5 6.68 -5 6 C-4.34 6 -3.68 6 -3 6 C-2.87625 5.195625 -2.7525 4.39125 -2.625 3.5625 C-2.41875 2.716875 -2.2125 1.87125 -2 1 C-1.34 0.67 -0.68 0.34 0 0 Z " fill="#C9A571" transform="translate(54,352)"/>
<path d="M0 0 C0.66 0 1.32 0 2 0 C2 1.32 2 2.64 2 4 C-0.2734375 5.51171875 -0.2734375 5.51171875 -3 7 C-8.68727891 12.43531085 -13.40121997 18.95397652 -18.14306641 25.21411133 C-20.50834072 28.29447858 -22.72914313 30.87547147 -26 33 C-24.31906944 29.23617723 -21.95783133 26.03234344 -19.5 22.75 C-19.09652344 22.19570312 -18.69304687 21.64140625 -18.27734375 21.0703125 C-17.23549829 19.67430835 -16.12254588 18.33197608 -15 17 C-14.34 17 -13.68 17 -13 17 C-12.7628125 16.44441406 -12.525625 15.88882813 -12.28125 15.31640625 C-10.6992626 12.45628879 -8.72337285 10.33051331 -6.5 7.9375 C-4.09463269 5.34079665 -1.96595796 2.94893694 0 0 Z " fill="#816F59" transform="translate(360,64)"/>
<path d="M0 0 C0.66 0.33 1.32 0.66 2 1 C1.34 1.66 0.68 2.32 0 3 C-0.268125 3.763125 -0.53625 4.52625 -0.8125 5.3125 C-2.29772027 8.67378798 -4.31882283 10.51033548 -7 13 C-7.763125 13.763125 -8.52625 14.52625 -9.3125 15.3125 C-10.1478125 16.1478125 -10.1478125 16.1478125 -11 17 C-11.34375 14.3671875 -11.34375 14.3671875 -11 11 C-9.20515074 8.76809329 -7.59338551 7.01779083 -5.5 5.125 C-4.97535156 4.62742187 -4.45070313 4.12984375 -3.91015625 3.6171875 C-2.61995498 2.39736085 -1.31168268 1.19669751 0 0 Z M-14 17 C-13.01 17.33 -12.02 17.66 -11 18 C-12.32 18.99 -13.64 19.98 -15 21 C-15 18 -15 18 -14 17 Z " fill="#B0916E" transform="translate(373,51)"/>
<path d="M0 0 C0.66 0.66 1.32 1.32 2 2 C1.01 2.66 0.02 3.32 -1 4 C-1.144375 4.99 -1.28875 5.98 -1.4375 7 C-1.623125 7.99 -1.80875 8.98 -2 10 C-3.75 11.0625 -3.75 11.0625 -6 12 C-10.01194886 15.69521605 -13.50060247 19.82717889 -17 24 C-17.66 23.67 -18.32 23.34 -19 23 C-18.29875 22.17757812 -17.5975 21.35515625 -16.875 20.5078125 C-11.1352658 13.75989739 -5.48303813 6.95984496 0 0 Z " fill="#C0A27B" transform="translate(355,72)"/>
<path d="M0 0 C2.875 0.1875 2.875 0.1875 6 1 C7.1875 3.5 7.1875 3.5 8 6 C8.99 6.33 9.98 6.66 11 7 C11 7.66 11 8.32 11 9 C11.66 9 12.32 9 13 9 C13.66 10.32 14.32 11.64 15 13 C15.99 13 16.98 13 18 13 C18 14.65 18 16.3 18 18 C17.52949219 17.59007812 17.05898437 17.18015625 16.57421875 16.7578125 C15.95160156 16.21898437 15.32898438 15.68015625 14.6875 15.125 C13.76517578 14.32449219 13.76517578 14.32449219 12.82421875 13.5078125 C10.86501788 11.8359553 10.86501788 11.8359553 8 10 C8 9.34 8 8.68 8 8 C7.34 8 6.68 8 6 8 C6 7.34 6 6.68 6 6 C5.34 6 4.68 6 4 6 C4 5.34 4 4.68 4 4 C3.34 4 2.68 4 2 4 C2 3.34 2 2.68 2 2 C1.34 2 0.68 2 0 2 C0 1.34 0 0.68 0 0 Z " fill="#998360" transform="translate(96,415)"/>
<path d="M0 0 C0.33 0.66 0.66 1.32 1 2 C0 5 0 5 -3 7 C-3.73343428 10.06556598 -3.73343428 10.06556598 -4 13 C-4.57492187 13.04125 -5.14984375 13.0825 -5.7421875 13.125 C-9.18111398 14.45773275 -10.21176775 16.91554954 -12.125 20 C-15.81818182 25.90909091 -15.81818182 25.90909091 -18 27 C-15.96432098 21.4769392 -12.81715534 17.01212615 -9.5 12.1875 C-8.90574219 11.30384766 -8.31148438 10.42019531 -7.69921875 9.50976562 C-7.12816406 8.67509766 -6.55710937 7.84042969 -5.96875 6.98046875 C-5.44732422 6.21629639 -4.92589844 5.45212402 -4.38867188 4.66479492 C-3.93041016 4.1154126 -3.47214844 3.56603027 -3 3 C-2.34 3 -1.68 3 -1 3 C-0.67 2.01 -0.34 1.02 0 0 Z " fill="#87765B" transform="translate(333,97)"/>
<path d="M0 0 C0.33 0 0.66 0 1 0 C1.56009739 6.18596449 1.56394204 10.78029568 -2.48828125 15.7265625 C-4.81903829 17.68993923 -7.02222188 17.93074935 -10 18 C-9.38511719 17.12988281 -9.38511719 17.12988281 -8.7578125 16.2421875 C-5.78971393 11.93915465 -3.31573874 8.1313811 -2 3 C-1.34 3 -0.68 3 0 3 C0 2.01 0 1.02 0 0 Z " fill="#977B53" transform="translate(273,286)"/>
<path d="M0 0 C0.99 0 1.98 0 3 0 C2.79375 0.61875 2.5875 1.2375 2.375 1.875 C2.25125 2.57625 2.1275 3.2775 2 4 C2.66 4.66 3.32 5.32 4 6 C2.73608512 7.00873016 1.46359117 8.00671822 0.1875 9 C-0.87404297 9.8353125 -0.87404297 9.8353125 -1.95703125 10.6875 C-4 12 -4 12 -7 12 C-5.52410328 7.57230983 -3.26930159 3.3663135 0 0 Z " fill="#C1A276" transform="translate(325,110)"/>
<path d="M0 0 C1.0219601 3.18184739 0.94954615 5.32243328 0.1875 8.5625 C0.01605469 9.32691406 -0.15539063 10.09132813 -0.33203125 10.87890625 C-1 13 -1 13 -3 16 C-3.39013716 17.9896995 -3.73202649 19.99019869 -4 22 C-4.66 22 -5.32 22 -6 22 C-6.66 22.99 -7.32 23.98 -8 25 C-6.7286622 16.26928222 -3.6404012 8.00888263 0 0 Z " fill="#AD886C" transform="translate(40,74)"/>
<path d="M0 0 C0.99 0 1.98 0 3 0 C2.09476787 4.2002771 0.09717906 7.57966461 -2.0625 11.25 C-2.43955078 11.8996875 -2.81660156 12.549375 -3.20507812 13.21875 C-4.13234115 14.81505091 -5.06558456 16.40787529 -6 18 C-7.57799862 13.26600414 -5.47321538 9.98283195 -3.375 5.625 C-2.92125 4.75875 -2.4675 3.8925 -2 3 C-1.34 3 -0.68 3 0 3 C0 2.01 0 1.02 0 0 Z " fill="#DBC5AD" transform="translate(448,347)"/>
<path d="M0 0 C2.34498152 3.51747228 3.11486323 6.95002383 4.0625 11 C5.37173476 16.54369807 5.37173476 16.54369807 7 22 C5.68 21.67 4.36 21.34 3 21 C3 20.34 3 19.68 3 19 C2.34 19 1.68 19 1 19 C0.67 12.73 0.34 6.46 0 0 Z " fill="#AB936F" transform="translate(227,256)"/>
<path d="M0 0 C0.99 0 1.98 0 3 0 C2.7009375 0.85980469 2.401875 1.71960938 2.09375 2.60546875 C1.05575703 5.82695407 0.24158353 9.01164722 -0.5 12.3125 C-0.88478516 14.00052734 -0.88478516 14.00052734 -1.27734375 15.72265625 C-1.72385931 17.74766467 -2.15646792 19.77586508 -2.56640625 21.80859375 C-2.98824503 23.88457199 -3.48621167 25.94484668 -4 28 C-4.66 28.33 -5.32 28.66 -6 29 C-5.61236507 21.22056804 -4.48615531 14.36967467 -2 7 C-1.59586433 5.62741726 -1.19901462 4.25264853 -0.8125 2.875 C-0.544375 1.92625 -0.27625 0.9775 0 0 Z " fill="#C2A171" transform="translate(285,197)"/>
<path d="M0 0 C0 0.33 0 0.66 0 1 C-1.98 1 -3.96 1 -6 1 C-6.185625 1.66 -6.37125 2.32 -6.5625 3 C-8.60808774 7.26905268 -11.57184643 10.74163706 -15 14 C-15.66 14 -16.32 14 -17 14 C-16.49259538 9.60249328 -13.91706686 7.13051078 -11 4 C-10.34 4 -9.68 4 -9 4 C-9 3.01 -9 2.02 -9 1 C-6.04335481 -0.4783226 -3.25770263 -0.06032783 0 0 Z " fill="#C1A98B" transform="translate(86,3)"/>
<path d="M0 0 C6.0546875 -0.1953125 6.0546875 -0.1953125 8 0 C10 2 10 2 10 5 C10.99 5 11.98 5 13 5 C14.5 6.3125 14.5 6.3125 16 8 C16.556875 8.556875 17.11375 9.11375 17.6875 9.6875 C18.120625 10.120625 18.55375 10.55375 19 11 C14.25652774 9.62309544 10.27474838 7.56160559 6.125 4.9375 C5.53203125 4.57333984 4.9390625 4.20917969 4.328125 3.83398438 C2.86464287 2.9218371 1.4292745 1.96486632 0 1 C0 0.67 0 0.34 0 0 Z " fill="#9D876D" transform="translate(136,449)"/>
<path d="M0 0 C0.99 0 1.98 0 3 0 C4.32 4.29 5.64 8.58 7 13 C6.01 13 5.02 13 4 13 C3.34 12.34 2.68 11.68 2 11 C2 9.68 2 8.36 2 7 C0.35 7.66 -1.3 8.32 -3 9 C-2.34 8.01 -1.68 7.02 -1 6 C-0.60986284 4.0103005 -0.26797351 2.00980131 0 0 Z " fill="#BEA16D" transform="translate(201,170)"/>
<path d="M0 0 C1.97885999 2.96828999 3.25864997 5.77447054 4.625 9.0625 C5.07101563 10.12597656 5.51703125 11.18945312 5.9765625 12.28515625 C7 15 7 15 7 17 C5.35 16.67 3.7 16.34 2 16 C2 13.69 2 11.38 2 9 C1.34 9 0.68 9 0 9 C0 6.03 0 3.06 0 0 Z " fill="#B89D77" transform="translate(192,143)"/>
<path d="M0 0 C0.66 0.99 1.32 1.98 2 3 C1.26156434 5.95374264 0.64906171 7.5456568 -1.875 9.3125 C-5.0846832 11.86136607 -6.35312642 15.31205437 -8 19 C-8.33 18.34 -8.66 17.68 -9 17 C-8.39501953 15.32006836 -8.39501953 15.32006836 -7.3828125 13.33984375 C-6.84333984 12.2734668 -6.84333984 12.2734668 -6.29296875 11.18554688 C-5.90753906 10.44369141 -5.52210937 9.70183594 -5.125 8.9375 C-4.74730469 8.19177734 -4.36960937 7.44605469 -3.98046875 6.67773438 C-1.16810645 1.16810645 -1.16810645 1.16810645 0 0 Z " fill="#B19470" transform="translate(60,30)"/>
<path d="M0 0 C1.14373642 3.98998124 0.93116313 6.9172078 0 11 C-1.875 13.6875 -1.875 13.6875 -4 16 C-5.00573778 17.32901064 -6.00795408 18.66073801 -7 20 C-5.69039355 12.73763698 -3.24043814 6.6169252 0 0 Z " fill="#867357" transform="translate(297,156)"/>
<path d="M0 0 C0.763125 0.309375 1.52625 0.61875 2.3125 0.9375 C2.3125 1.2675 2.3125 1.5975 2.3125 1.9375 C0.83343108 1.96439216 -0.64577483 1.98384621 -2.125 2 C-3.36056641 2.01740234 -3.36056641 2.01740234 -4.62109375 2.03515625 C-6.6875 1.9375 -6.6875 1.9375 -7.6875 0.9375 C-9.20678038 0.86570036 -10.72917482 0.85357993 -12.25 0.875 C-13.48943359 0.88853516 -13.48943359 0.88853516 -14.75390625 0.90234375 C-15.71103516 0.91974609 -15.71103516 0.91974609 -16.6875 0.9375 C-16.6875 1.9275 -16.6875 2.9175 -16.6875 3.9375 C-17.3475 3.9375 -18.0075 3.9375 -18.6875 3.9375 C-15.56406099 -4.76350868 -7.75525609 -2.23456531 0 0 Z " fill="#DDCAAE" transform="translate(93.6875,3.0625)"/>
<path d="M0 0 C1.32 0.33 2.64 0.66 4 1 C3.52570343 5.26866909 0.96478822 7.10933148 -2 10 C-2.33 10.99 -2.66 11.98 -3 13 C-3.99 13.33 -4.98 13.66 -6 14 C-4.50829734 9.0276578 -2.39542583 4.58154261 0 0 Z " fill="#C5A173" transform="translate(308,136)"/>
<path d="M0 0 C2.44168979 3.03056792 4.13027389 6.09018596 5.75 9.625 C6.19859375 10.58664063 6.6471875 11.54828125 7.109375 12.5390625 C7.40328125 13.35117188 7.6971875 14.16328125 8 15 C7.67 15.66 7.34 16.32 7 17 C6.01 16.34 5.02 15.68 4 15 C4 14.01 4 13.02 4 12 C3.34 12 2.68 12 2 12 C0.40861915 7.82262526 -0.21278058 4.46839215 0 0 Z " fill="#BFA27A" transform="translate(182,122)"/>
<path d="M0 0 C2.98479194 4.47718792 4 8.63824093 4 14 C3.01 14.33 2.02 14.66 1 15 C-0.97153141 10.07117148 -1.26582874 6.2279653 -1 1 C-0.67 0.67 -0.34 0.34 0 0 Z " fill="#B7A17B" transform="translate(213,202)"/>
<path d="M0 0 C1.32 0.66 2.64 1.32 4 2 C2.51461988 6.7037037 2.51461988 6.7037037 -0.0625 8.1875 C-0.701875 8.455625 -1.34125 8.72375 -2 9 C-2.33 9.66 -2.66 10.32 -3 11 C-3.99 10.67 -4.98 10.34 -6 10 C-5.34 8.68 -4.68 7.36 -4 6 C-3.34 6 -2.68 6 -2 6 C-1.855625 5.195625 -1.71125 4.39125 -1.5625 3.5625 C-1 1 -1 1 0 0 Z " fill="#C2A071" transform="translate(316,123)"/>
<path d="M0 0 C1.98 0 3.96 0 6 0 C0.36448598 5.94859813 0.36448598 5.94859813 -3 7 C-5.75 6.625 -5.75 6.625 -8 6 C-4.25 4 -4.25 4 -2 4 C-1.34 2.68 -0.68 1.36 0 0 Z M-11 6 C-10.01 6 -9.02 6 -8 6 C-8 6.66 -8 7.32 -8 8 C-8.99 8 -9.98 8 -11 8 C-11 7.34 -11 6.68 -11 6 Z " fill="#C3A276" transform="translate(262,303)"/>
<path d="M0 0 C0.99 0.495 0.99 0.495 2 1 C2.59765625 3.03125 2.59765625 3.03125 3.0625 5.5 C3.45864843 8.53773221 3.45864843 8.53773221 5 11 C5.07179964 12.51928038 5.08392007 14.04167482 5.0625 15.5625 C5.05347656 16.38878906 5.04445313 17.21507812 5.03515625 18.06640625 C5.02355469 18.70449219 5.01195312 19.34257812 5 20 C1.72679447 13.82360349 -0.55618343 7.04499011 0 0 Z " fill="#9B886A" transform="translate(22,285)"/>
<path d="M0 0 C0.66 0.33 1.32 0.66 2 1 C-1.727404 7.25241962 -5.16674258 9.60314936 -12 12 C-12 11.34 -12 10.68 -12 10 C-10.23947136 8.41929472 -8.41580202 6.90833714 -6.5625 5.4375 C-5.55316406 4.63183594 -4.54382813 3.82617188 -3.50390625 2.99609375 C-2.67761719 2.33738281 -1.85132813 1.67867187 -1 1 C-0.67 0.67 -0.34 0.34 0 0 Z " fill="#B09069" transform="translate(387,39)"/>
<path d="M0 0 C0.33 0 0.66 0 1 0 C2.25 6.625 2.25 6.625 0 10 C-0.66 10 -1.32 10 -2 10 C-2.12375 11.0725 -2.2475 12.145 -2.375 13.25 C-2.89643936 16.37863615 -3.40088254 18.33480424 -5 21 C-6.33201473 18.33597054 -5.69751146 17.4413616 -4.78515625 14.6484375 C-4.51123047 13.79765625 -4.23730469 12.946875 -3.95507812 12.0703125 C-3.66052734 11.18085938 -3.36597656 10.29140625 -3.0625 9.375 C-2.77181641 8.4778125 -2.48113281 7.580625 -2.18164062 6.65625 C-1.46100166 4.43526435 -0.73354395 2.21675021 0 0 Z " fill="#6E5D3D" transform="translate(289,176)"/>
<path d="M0 0 C0.61488281 0.22816406 1.22976562 0.45632813 1.86328125 0.69140625 C2.67152344 0.97886719 3.47976562 1.26632812 4.3125 1.5625 C5.11300781 1.85253906 5.91351563 2.14257812 6.73828125 2.44140625 C9.1433174 3.24915625 9.1433174 3.24915625 12 2 C12 2.66 12 3.32 12 4 C7.23947038 5.97387813 4.03511899 6.0070238 -1 5 C-0.67 3.35 -0.34 1.7 0 0 Z " fill="#CEB28F" transform="translate(248,303)"/>
<path d="M0 0 C1.98 0.99 1.98 0.99 4 2 C3.71937057 4.48088355 3.42609401 6.95909185 3.125 9.4375 C3.04636719 10.14455078 2.96773437 10.85160156 2.88671875 11.58007812 C2.66072324 13.39673432 2.33699273 15.20062522 2 17 C1.34 17.33 0.68 17.66 0 18 C0 12.06 0 6.12 0 0 Z " fill="#C19F6A" transform="translate(232,278)"/>
<path d="M0 0 C0.66 0.33 1.32 0.66 2 1 C0.68 1.99 -0.64 2.98 -2 4 C-1.67 4.66 -1.34 5.32 -1 6 C-1.598125 6.103125 -2.19625 6.20625 -2.8125 6.3125 C-5.28243264 7.08876455 -6.32251235 8.07088921 -8 10 C-8.99 9.34 -9.98 8.68 -11 8 C-6.25 4 -6.25 4 -4 4 C-4 3.34 -4 2.68 -4 2 C-2.125 0.9375 -2.125 0.9375 0 0 Z " fill="#B29B75" transform="translate(400,30)"/>
<path d="M0 0 C3.32604248 1.66302124 3.80042476 4.62976481 5 8 C4.58203125 10.23046875 4.58203125 10.23046875 4 12 C2.9944239 10.54550599 1.99569565 9.08627557 1 7.625 C0.443125 6.81289063 -0.11375 6.00078125 -0.6875 5.1640625 C-2 3 -2 3 -2 1 C-1.34 0.67 -0.68 0.34 0 0 Z " fill="#A58B6E" transform="translate(51,357)"/>
<path d="M0 0 C3.3 0 6.6 0 10 0 C10 0.66 10 1.32 10 2 C10.99 2.33 11.98 2.66 13 3 C9.04 3 5.08 3 1 3 C0.67 2.01 0.34 1.02 0 0 Z " fill="#BCA98F" transform="translate(420,20)"/>
<path d="M0 0 C2.784293 2.784293 2.94910069 5.886863 3.625 9.625 C3.7590625 10.33140625 3.893125 11.0378125 4.03125 11.765625 C4.36110025 13.50911918 4.68146056 15.25440389 5 17 C4.34 17 3.68 17 3 17 C1.25314692 13.17254549 0.65113667 9.87557277 0.375 5.6875 C0.26285156 4.08455078 0.26285156 4.08455078 0.1484375 2.44921875 C0.09945312 1.64097656 0.05046875 0.83273438 0 0 Z " fill="#AD987B" transform="translate(217,217)"/>
<path d="M0 0 C2.8125 0.625 2.8125 0.625 6 2 C7.6875 4.9375 7.6875 4.9375 9 8 C10.56102491 9.81554159 10.56102491 9.81554159 12 11 C11.67 11.66 11.34 12.32 11 13 C9.16365966 11.02354928 7.33083938 9.044035 5.5 7.0625 C4.71302734 6.21655273 4.71302734 6.21655273 3.91015625 5.35351562 C0 1.11328125 0 1.11328125 0 0 Z " fill="#948067" transform="translate(70,388)"/>
<path d="M0 0 C1.5 1.3125 1.5 1.3125 3 3 C3 3.99 3 4.98 3 6 C3.66 6 4.32 6 5 6 C5 8.97 5 11.94 5 15 C2.68994131 12.68994131 2.27825897 11.16916343 1.375 8.0625 C1.11460938 7.18722656 0.85421875 6.31195313 0.5859375 5.41015625 C0 3 0 3 0 0 Z " fill="#9D8870" transform="translate(27,305)"/>
<path d="M0 0 C1.485 0.99 1.485 0.99 3 2 C3 2.66 3 3.32 3 4 C3.66 4 4.32 4 5 4 C6.38938077 5.96147874 7.7260411 7.96166576 9 10 C8.67 10.66 8.34 11.32 8 12 C6.68 11.34 5.36 10.68 4 10 C4 8.68 4 7.36 4 6 C3.01 6 2.02 6 1 6 C0.67 4.02 0.34 2.04 0 0 Z " fill="#DDCAAF" transform="translate(446,26)"/>
<path d="M0 0 C0 3.77910478 -0.99703962 4.46106101 -3.5 7.1875 C-4.47453125 8.26064453 -4.47453125 8.26064453 -5.46875 9.35546875 C-5.9740625 9.89816406 -6.479375 10.44085938 -7 11 C-7.33 9.68 -7.66 8.36 -8 7 C-7.34 7 -6.68 7 -6 7 C-6 6.01 -6 5.02 -6 4 C-5.34 4 -4.68 4 -4 4 C-4 3.34 -4 2.68 -4 2 C-2.68 1.34 -1.36 0.68 0 0 Z " fill="#D4C1A0" transform="translate(414,400)"/>
<path d="M0 0 C0.33 0 0.66 0 1 0 C1 4.29 1 8.58 1 13 C0.01 13.33 -0.98 13.66 -2 14 C-1.85866501 12.22880197 -1.71176792 10.45804713 -1.5625 8.6875 C-1.48128906 7.70136719 -1.40007813 6.71523437 -1.31640625 5.69921875 C-1 3 -1 3 0 0 Z " fill="#9A856F" transform="translate(23,130)"/>
<path d="M0 0 C2.20080053 3.3012008 2.21218749 3.89101158 1.75 7.625 C1.66234375 8.42164063 1.5746875 9.21828125 1.484375 10.0390625 C1.32453125 10.68617188 1.1646875 11.33328125 1 12 C0.01 12.495 0.01 12.495 -1 13 C-1.02708567 11.39592672 -1.04643483 9.7917215 -1.0625 8.1875 C-1.07410156 7.29417969 -1.08570312 6.40085937 -1.09765625 5.48046875 C-1 3 -1 3 0 0 Z " fill="#B19C7D" transform="translate(25,121)"/>
<path d="M0 0 C1.30249153 3.59855032 0.69931441 5.58099473 -0.75 9.0625 C-1.09546875 9.91972656 -1.4409375 10.77695312 -1.796875 11.66015625 C-2.96264917 13.92735991 -4.09652606 15.33172543 -6 17 C-4.33846988 11.14340094 -2.52958084 5.5409866 0 0 Z " fill="#A67E63" transform="translate(50,49)"/>
<path d="M0 0 C5.77378925 0.4811491 9.95859836 2.18467181 15 5 C11.8568669 6.57156655 9.634536 5.11705576 6.375 4.0625 C4.59222656 3.49208984 4.59222656 3.49208984 2.7734375 2.91015625 C1.85820312 2.60980469 0.94296875 2.30945313 0 2 C0 1.34 0 0.68 0 0 Z " fill="#D9C6AC" transform="translate(430,20)"/>
<path d="M0 0 C-1.40929697 3.47132095 -2.90605083 4.88093274 -6.125 6.75 C-6.84945313 7.17796875 -7.57390625 7.6059375 -8.3203125 8.046875 C-8.87460937 8.36140625 -9.42890625 8.6759375 -10 9 C-9.6875 7.0625 -9.6875 7.0625 -9 5 C-8.01 4.67 -7.02 4.34 -6 4 C-5.67 3.01 -5.34 2.02 -5 1 C-2 0 -2 0 0 0 Z " fill="#BBA78C" transform="translate(378,434)"/>
<path d="M0 0 C1.65 0 3.3 0 5 0 C4.04882866 1.1725131 3.08882991 2.33787015 2.125 3.5 C1.59132813 4.1496875 1.05765625 4.799375 0.5078125 5.46875 C0.01023437 5.9740625 -0.48734375 6.479375 -1 7 C-1.66 7 -2.32 7 -3 7 C-3.33 6.01 -3.66 5.02 -4 4 C-2.68 4 -1.36 4 0 4 C0 2.68 0 1.36 0 0 Z " fill="#CFBA9F" transform="translate(388,423)"/>
<path d="M0 0 C0.66 0 1.32 0 2 0 C1.39254603 4.85963179 -0.72758967 8.7405518 -3 13 C-4.31223496 9.06329512 -3.24296256 6.87511856 -2 3 C-1.34 3 -0.68 3 0 3 C0 2.01 0 1.02 0 0 Z " fill="#CAB28F" transform="translate(460,323)"/>
<path d="M0 0 C0.99 0.33 1.98 0.66 3 1 C2.690625 1.680625 2.38125 2.36125 2.0625 3.0625 C0.86629351 6.36965912 0.40994603 9.51545878 0 13 C-0.33 13 -0.66 13 -1 13 C-1.02696365 11.20841511 -1.04637917 9.41671527 -1.0625 7.625 C-1.07410156 6.62726563 -1.08570313 5.62953125 -1.09765625 4.6015625 C-1 2 -1 2 0 0 Z " fill="#C3A06F" transform="translate(279,246)"/>
<path d="M0 0 C0 1.32 0 2.64 0 4 C-2.1875 5.5 -2.1875 5.5 -5 7 C-6.68477344 8.31037934 -8.35648543 9.63823078 -10 11 C-8.64763423 8.06120516 -7.10057341 5.70767089 -5 3.25 C-4.484375 2.63640625 -3.96875 2.0228125 -3.4375 1.390625 C-2 0 -2 0 0 0 Z " fill="#907D61" transform="translate(362,64)"/>
<path d="M0 0 C2 1 2 1 2.8515625 3.06640625 C3.10679687 3.89011719 3.36203125 4.71382812 3.625 5.5625 C3.88539063 6.38878906 4.14578125 7.21507812 4.4140625 8.06640625 C4.60742188 8.70449219 4.80078125 9.34257813 5 10 C3 10 3 10 1.375 8.9375 C-0.68369484 6.03661182 -0.19557733 3.45519943 0 0 Z " fill="#D3C4A4" transform="translate(455,39)"/>
<path d="M0 0 C0.33 0 0.66 0 1 0 C1.66 3.96 2.32 7.92 3 12 C-0.94520548 6.73972603 -0.94520548 6.73972603 -2 3 C-1.34 2.01 -0.68 1.02 0 0 Z " fill="#C3A57A" transform="translate(45,342)"/>
<path d="M0 0 C1.65 0.33 3.3 0.66 5 1 C4.67 1.66 4.34 2.32 4 3 C3.34 2.67 2.68 2.34 2 2 C2.99 3.32 3.98 4.64 5 6 C4.67 6.66 4.34 7.32 4 8 C2.5 6.625 2.5 6.625 1 5 C1 4.34 1 3.68 1 3 C0.34 3 -0.32 3 -1 3 C-0.67 2.01 -0.34 1.02 0 0 Z " fill="#8E7C63" transform="translate(86,403)"/>
<path d="M0 0 C0.99 0 1.98 0 3 0 C1.8141763 3.37503669 0.72426311 5.64722731 -2 8 C-2.6875 6.25 -2.6875 6.25 -3 4 C-1.75 1.75 -1.75 1.75 0 0 Z " fill="#D6C1A3" transform="translate(433,372)"/>
<path d="M0 0 C1.21386936 3.64160808 0.6674695 4.33165469 -0.9375 7.6875 C-1.31777344 8.49574219 -1.69804687 9.30398438 -2.08984375 10.13671875 C-2.39019531 10.75160156 -2.69054687 11.36648438 -3 12 C-4.22419163 8.06204091 -3.48320272 5.83887763 -2 2 C-1.34 2 -0.68 2 0 2 C0 1.34 0 0.68 0 0 Z " fill="#DEC6AF" transform="translate(469,308)"/>
<path d="M0 0 C1.32 0.66 2.64 1.32 4 2 C2.70982586 2.98113243 1.41780894 3.95984199 0.125 4.9375 C-0.59429687 5.48277344 -1.31359375 6.02804688 -2.0546875 6.58984375 C-4 8 -4 8 -6 9 C-4.47291037 5.56404834 -2.40072955 2.88087546 0 0 Z " fill="#C7A16B" transform="translate(325,114)"/>
<path d="M0 0 C0.66 0 1.32 0 2 0 C1.65120368 3.25543229 0.97866739 4.01873107 -1.5625 6.25 C-2.366875 6.8275 -3.17125 7.405 -4 8 C-3.67 6.02 -3.34 4.04 -3 2 C-2.34 2 -1.68 2 -1 2 C-0.67 1.34 -0.34 0.68 0 0 Z " fill="#DABE9C" transform="translate(399,414)"/>
<path d="M0 0 C0.66 0 1.32 0 2 0 C3.21386936 3.64160808 2.6674695 4.33165469 1.0625 7.6875 C0.68222656 8.49574219 0.30195313 9.30398438 -0.08984375 10.13671875 C-0.39019531 10.75160156 -0.69054687 11.36648438 -1 12 C-2.3609623 9.2780754 -1.70366248 7.8168043 -1.0625 4.875 C-0.86785156 3.96492188 -0.67320312 3.05484375 -0.47265625 2.1171875 C-0.31667969 1.41851562 -0.16070312 0.71984375 0 0 Z " fill="#C49B66" transform="translate(278,267)"/>
<path d="M0 0 C1.32 0.33 2.64 0.66 4 1 C2 4 2 4 -1.125 4.6875 C-2.07375 4.790625 -3.0225 4.89375 -4 5 C-2.68 3.35 -1.36 1.7 0 0 Z " fill="#AB8E63" transform="translate(267,299)"/>
<path d="M0 0 C2.5654594 2.5654594 2.54046087 4.47686668 3 8 C2.01 8.33 1.02 8.66 0 9 C-1.125 2.25 -1.125 2.25 0 0 Z " fill="#BCA07A" transform="translate(200,163)"/>
<path d="M0 0 C1.32 0.66 2.64 1.32 4 2 C3.34 3.32 2.68 4.64 2 6 C1.01 5.67 0.02 5.34 -1 5 C-0.67 3.35 -0.34 1.7 0 0 Z " fill="#D1A879" transform="translate(37,90)"/>
<path d="M0 0 C0.66 1.32 1.32 2.64 2 4 C0.35 5.32 -1.3 6.64 -3 8 C-3 4.42424104 -1.91159393 2.94704065 0 0 Z " fill="#D0B29A" transform="translate(68,15)"/>
<path d="M0 0 C2.31 0 4.62 0 7 0 C7 0.66 7 1.32 7 2 C7.66 2 8.32 2 9 2 C9 2.66 9 3.32 9 4 C6.03 3.01 3.06 2.02 0 1 C0 0.67 0 0.34 0 0 Z " fill="#95846D" transform="translate(163,464)"/>
<path d="M0 0 C-3.13498292 1.85776765 -5.37471432 2.20140476 -9 2 C-9 1.34 -9 0.68 -9 0 C-5.93109813 -1.53445094 -3.29905734 -0.54984289 0 0 Z " fill="#C6B49B" transform="translate(420,23)"/>
<path d="M0 0 C1.98 1.65 3.96 3.3 6 5 C4.02 5.99 4.02 5.99 2 7 C1.34 4.69 0.68 2.38 0 0 Z " fill="#D4C0A2" transform="translate(113,15)"/>
<path d="M0 0 C1.65 0 3.3 0 5 0 C2.47211993 2.79872437 0.79588866 4.45773019 -3 5 C-3 4.01 -3 3.02 -3 2 C-2.34 2 -1.68 2 -1 2 C-0.67 1.34 -0.34 0.68 0 0 Z " fill="#AA977E" transform="translate(361,444)"/>
<path d="M0 0 C0.33 0 0.66 0 1 0 C1.6875 3.3125 1.6875 3.3125 2 7 C0.5625 8.9375 0.5625 8.9375 -1 10 C-1.125 2.25 -1.125 2.25 0 0 Z " fill="#8F7856" transform="translate(289,176)"/>
<path d="M0 0 C1.5 1.375 1.5 1.375 3 3 C3 3.66 3 4.32 3 5 C3.66 5 4.32 5 5 5 C5 5.99 5 6.98 5 8 C4.01 8 3.02 8 2 8 C0.74335022 5.09399739 0 3.20395416 0 0 Z " fill="#C3A372" transform="translate(176,114)"/>
<path d="M0 0 C4 4.625 4 4.625 4 8 C3.34 8 2.68 8 2 8 C-0.1519437 4.77208445 -0.20086443 3.71599191 0 0 Z " fill="#C5A476" transform="translate(167,96)"/>
<path d="M0 0 C0.66 0 1.32 0 2 0 C1.34 1.65 0.68 3.3 0 5 C-0.99 5 -1.98 5 -3 5 C-1.125 1.125 -1.125 1.125 0 0 Z " fill="#C9A372" transform="translate(352,78)"/>
</svg>
