<?xml version="1.0" encoding="UTF-8"?>
<svg version="1.1" xmlns="http://www.w3.org/2000/svg" width="524" height="476">
<path d="M0 0 C2.53859068 -0.00963961 5.07634663 -0.04071434 7.61474609 -0.07226562 C17.53322202 -0.13568961 26.8990188 0.66369995 36.64599609 2.50048828 C39.7693231 3.08902565 42.85726266 3.58823664 46.00927734 3.97851562 C82.27327593 8.51199897 118.4254129 19.75905836 150.57177734 37.24023438 C151.2134082 37.58908691 151.85503906 37.93793945 152.51611328 38.29736328 C157.23723264 40.8831805 161.91264952 43.54458043 166.57177734 46.24023438 C167.29075195 46.65595703 168.00972656 47.07167969 168.75048828 47.5 C170.96448521 48.78378704 173.17520214 50.07299838 175.38427734 51.36523438 C176.04097412 51.74856934 176.6976709 52.1319043 177.37426758 52.52685547 C195.49975396 63.20372755 213.1739144 75.05361959 229.57177734 88.24023438 C230.52052734 88.99691406 231.46927734 89.75359375 232.44677734 90.53320312 C248.54921752 103.52697777 263.8741862 117.86176849 276.57177734 134.24023438 C277.58751419 135.43209662 278.60749278 136.62037639 279.63427734 137.80273438 C281.57177734 140.24023438 281.57177734 140.24023438 281.57177734 142.24023438 C282.39162109 142.53027344 282.39162109 142.53027344 283.22802734 142.82617188 C286.5986373 144.85977321 288.71060191 147.78481351 291.07177734 150.86523438 C291.56226563 151.50041992 292.05275391 152.13560547 292.55810547 152.79003906 C299.90011314 162.45915683 304.84132441 173.86032274 304.57177734 186.24023438 C303.70347486 192.40148712 301.70762967 197.32361784 297.04443359 201.52148438 C291.87875532 205.11216122 286.17168308 207.72165438 280.47558594 210.35742188 C278.87002966 211.1019322 277.2760909 211.87142128 275.68505859 212.64648438 C256.58716855 221.7713568 235.8434774 227.33786118 214.64208984 227.44335938 C213.70243881 227.45032837 212.76278778 227.45729736 211.79466248 227.46447754 C208.76198839 227.48184504 205.72949916 227.48820238 202.69677734 227.49023438 C201.14444901 227.491745 201.14444901 227.491745 199.5607605 227.49328613 C183.68032852 227.48282218 168.26660015 226.83475675 152.57177734 224.24023438 C151.58290527 224.08506348 150.5940332 223.92989258 149.57519531 223.77001953 C142.8827241 222.71501162 136.22242299 221.53206852 129.57177734 220.24023438 C128.76272949 220.08441895 127.95368164 219.92860352 127.12011719 219.76806641 C117.13299985 217.80634828 107.61231479 215.07510113 98.00146484 211.74023438 C93.75185002 210.27472169 89.45902325 209.02457322 85.13427734 207.80273438 C75.75836389 205.10907789 66.67806654 201.72573945 57.57177734 198.24023438 C56.56904785 197.85673828 55.56631836 197.47324219 54.53320312 197.078125 C51.25350629 195.82196466 47.97510869 194.56245358 44.69677734 193.30273438 C43.57634033 192.87387939 42.45590332 192.44502441 41.30151367 192.00317383 C36.37138636 190.11137663 31.45318298 188.20730655 26.57958984 186.17382812 C10.88385965 179.7338937 -5.5147218 175.77269668 -21.94419861 171.67396545 C-27.21447174 170.34710983 -27.21447174 170.34710983 -29.42822266 169.24023438 C-33.45787482 168.86007851 -35.80937625 168.91791854 -39.42822266 170.80273438 C-41.78967032 173.13162714 -41.78967032 173.13162714 -41.30712891 176.47070312 C-40.18680763 181.2756366 -37.94173591 184.63564363 -35.22314453 188.69726562 C-32.42822266 192.97304122 -32.42822266 192.97304122 -32.42822266 196.24023438 C-31.76822266 196.24023438 -31.10822266 196.24023438 -30.42822266 196.24023438 C-29.96673828 197.06523437 -29.50525391 197.89023438 -29.02978516 198.74023438 C-25.35636651 205.26012177 -21.56669434 211.67355035 -17.55322266 217.99023438 C-12.53678965 225.91076486 -7.97647608 234.05362373 -3.49316406 242.28515625 C-2.59486786 243.93429793 -1.6900209 245.57986891 -0.78369141 247.22460938 C0.68186966 249.88926586 2.12890323 252.56322681 3.57177734 255.24023438 C3.88405273 255.81435059 4.19632813 256.3884668 4.51806641 256.97998047 C28.71262744 301.52778598 52.03049591 350.95508804 51.88745117 402.54125977 C51.88426527 404.93681383 51.90796775 407.33115725 51.93310547 409.7265625 C51.9831442 421.90351399 50.33794177 432.68635359 45.47021484 443.95898438 C44.60199405 446.16351022 44.0929068 448.23362692 43.63427734 450.55273438 C42.10392322 455.86396339 39.11690308 458.25301576 34.52099609 461.18945312 C25.684874 465.89852418 17.79837903 469.50183383 7.57177734 468.24023438 C4.50927734 466.92773437 4.50927734 466.92773437 1.57177734 465.24023438 C-0.29470505 464.51983766 -2.16253336 463.80240075 -4.04150391 463.11523438 C-24.8638401 455.48151374 -44.68382809 446.77428912 -63.66015625 435.29443359 C-65.82144936 434.00577526 -68.02229396 432.80239352 -70.24072266 431.61523438 C-85.24389166 423.33762389 -98.63512143 412.60294872 -110.42822266 400.24023438 C-113.00583681 397.64179942 -115.60429817 395.06858534 -118.22509766 392.51367188 C-124.78263853 386.09945318 -130.74588381 379.45606947 -136.42822266 372.24023438 C-137.19779297 371.30308594 -137.96736328 370.3659375 -138.76025391 369.40039062 C-139.49630859 368.50191406 -140.23236328 367.6034375 -140.99072266 366.67773438 C-141.65201172 365.87207031 -142.31330078 365.06640625 -142.99462891 364.23632812 C-144.42822266 362.24023438 -144.42822266 362.24023438 -144.42822266 360.24023438 C-145.08822266 360.24023438 -145.74822266 360.24023438 -146.42822266 360.24023438 C-147.84863281 358.54370117 -147.84863281 358.54370117 -149.46728516 356.18945312 C-150.33740234 354.92391602 -150.33740234 354.92391602 -151.22509766 353.6328125 C-151.82837891 352.74013672 -152.43166016 351.84746094 -153.05322266 350.92773438 C-153.66423828 350.04666016 -154.27525391 349.16558594 -154.90478516 348.2578125 C-155.48228516 347.41025391 -156.05978516 346.56269531 -156.65478516 345.68945312 C-157.45263428 344.51902466 -157.45263428 344.51902466 -158.26660156 343.32495117 C-159.42822266 341.24023438 -159.42822266 341.24023438 -159.42822266 338.24023438 C-160.08822266 338.24023438 -160.74822266 338.24023438 -161.42822266 338.24023438 C-164.13081048 333.59355068 -166.79016729 328.92383478 -169.42822266 324.24023438 C-169.96527832 323.29349854 -169.96527832 323.29349854 -170.51318359 322.32763672 C-177.94861379 309.12616355 -183.76402751 295.27690861 -189.42822266 281.24023438 C-189.78190918 280.37076172 -190.1355957 279.50128906 -190.5 278.60546875 C-201.21791748 251.98580442 -205.63347499 224.66594621 -205.61572266 196.05273438 C-205.61578308 195.37591614 -205.61584351 194.6990979 -205.61590576 194.00177002 C-205.60232552 183.28253947 -205.04214935 172.83649793 -203.42822266 162.24023438 C-203.27224609 161.11617187 -203.11626953 159.99210938 -202.95556641 158.83398438 C-202.49237695 155.62668931 -201.97087312 152.43499345 -201.42822266 149.24023438 C-201.22455078 147.97695312 -201.02087891 146.71367187 -200.81103516 145.41210938 C-199.23058046 136.00828959 -196.74362151 127.20409055 -193.42822266 118.24023438 C-192.98607422 117.02722656 -192.54392578 115.81421875 -192.08837891 114.56445312 C-185.45087439 97.1524953 -176.29520416 78.87627684 -163.42822266 65.24023438 C-162.76822266 65.24023438 -162.10822266 65.24023438 -161.42822266 65.24023438 C-161.22197266 64.68335937 -161.01572266 64.12648437 -160.80322266 63.55273438 C-158.85139234 60.27011066 -156.48591271 58.53350192 -153.42822266 56.24023438 C-152.76822266 56.24023438 -152.10822266 56.24023438 -151.42822266 56.24023438 C-151.42822266 55.58023438 -151.42822266 54.92023437 -151.42822266 54.24023438 C-148.45745968 51.47784155 -145.23262174 49.02311104 -142.04443359 46.51660156 C-140.49743066 45.29488988 -138.96631074 44.05314663 -137.43603516 42.81054688 C-105.59390565 17.45027579 -66.45210594 5.83728735 -26.42822266 1.24023438 C-25.71907715 1.14597168 -25.00993164 1.05170898 -24.27929688 0.95458984 C-16.2145704 -0.01888934 -8.11174769 0.01853055 0 0 Z " fill="#CBAC83" transform="translate(219.42822265625,-0.240234375)"/>
<path d="M0 0 C2.11688269 0.00319474 4.23240573 -0.0205655 6.34912109 -0.0456543 C14.55264595 -0.08363137 22.60999269 0.29033698 30.35302734 3.31567383 C30.84802734 4.30567383 30.84802734 4.30567383 31.35302734 5.31567383 C30.36302734 5.31567383 29.37302734 5.31567383 28.35302734 5.31567383 C28.02302734 6.30567383 27.69302734 7.29567383 27.35302734 8.31567383 C25.04302734 8.31567383 22.73302734 8.31567383 20.35302734 8.31567383 C20.35302734 7.65567383 20.35302734 6.99567383 20.35302734 6.31567383 C18.04302734 5.98567383 15.73302734 5.65567383 13.35302734 5.31567383 C12.85802734 3.83067383 12.85802734 3.83067383 12.35302734 2.31567383 C10.71325612 2.55480713 9.07366939 2.79527666 7.43505859 3.04223633 C6.02098098 3.22795009 4.60015915 3.36703647 3.17724609 3.46411133 C-0.99773341 3.67658762 -0.99773341 3.67658762 -4.20947266 6.06567383 C-4.73401863 8.76333883 -4.3778694 10.68444556 -3.64697266 13.31567383 C-4.30697266 13.31567383 -4.96697266 13.31567383 -5.64697266 13.31567383 C-5.64697266 12.32567383 -5.64697266 11.33567383 -5.64697266 10.31567383 C-8.49775356 9.54850531 -8.49775356 9.54850531 -11.64697266 9.31567383 C-13.54655347 10.62885645 -13.54655347 10.62885645 -14.64697266 12.31567383 C-14.97697266 11.65567383 -15.30697266 10.99567383 -15.64697266 10.31567383 C-15.31697266 9.65567383 -14.98697266 8.99567383 -14.64697266 8.31567383 C-15.96697266 7.98567383 -17.28697266 7.65567383 -18.64697266 7.31567383 C-17.98697266 7.31567383 -17.32697266 7.31567383 -16.64697266 7.31567383 C-16.97697266 6.65567383 -17.30697266 5.99567383 -17.64697266 5.31567383 C-20.61697266 5.31567383 -23.58697266 5.31567383 -26.64697266 5.31567383 C-26.97697266 5.97567383 -27.30697266 6.63567383 -27.64697266 7.31567383 C-27.64697266 6.65567383 -27.64697266 5.99567383 -27.64697266 5.31567383 C-29.62697266 5.31567383 -31.60697266 5.31567383 -33.64697266 5.31567383 C-32.65697266 4.98567383 -31.66697266 4.65567383 -30.64697266 4.31567383 C-30.64697266 3.65567383 -30.64697266 2.99567383 -30.64697266 2.31567383 C-20.40064225 0.81447128 -10.35789597 -0.032572 0 0 Z " fill="#C4A170" transform="translate(219.64697265625,0.684326171875)"/>
<path d="M0 0 C3.91544352 0.41653655 7.29013502 1.0475095 10.97265625 2.4453125 C16.70592214 4.40225315 22.49867151 4.94856264 28.5 5.5625 C30.65713242 5.78455775 32.81346528 6.01457873 34.96875 6.25390625 C36.38317383 6.39807983 36.38317383 6.39807983 37.82617188 6.54516602 C38.54353516 6.69526123 39.26089844 6.84535645 40 7 C40.495 7.99 40.495 7.99 41 9 C43.47090974 9.91638103 43.47090974 9.91638103 46.375 10.625 C47.35210937 10.88539063 48.32921875 11.14578125 49.3359375 11.4140625 C52.03370533 12.10740357 52.03370533 12.10740357 55 12 C55.66 12 56.32 12 57 12 C56.67 12.99 56.34 13.98 56 15 C62.435 14.505 62.435 14.505 69 14 C69 14.66 69 15.32 69 16 C71.64 15.67 74.28 15.34 77 15 C77 15.66 77 16.32 77 17 C79.64 17 82.28 17 85 17 C85 17.66 85 18.32 85 19 C85.99 19.99 85.99 19.99 87 21 C80.12675446 21.19698145 73.81509235 20.49520753 67.0625 19.25 C66.05614502 19.06808105 65.04979004 18.88616211 64.01293945 18.69873047 C61.00571514 18.14676705 58.0022999 17.57810783 55 17 C54.16629883 16.83983398 53.33259766 16.67966797 52.47363281 16.51464844 C42.53605332 14.5619576 33.05752703 11.84387412 23.49609375 8.51953125 C18.16205159 6.67903482 12.74554304 5.1388883 7.30444336 3.64868164 C2.21279674 2.21279674 2.21279674 2.21279674 0 0 Z " fill="#BA9B71" transform="translate(294,203)"/>
<path d="M0 0 C1.65 0 3.3 0 5 0 C5.33 0.66 5.66 1.32 6 2 C8.11327425 2.90725434 8.11327425 2.90725434 10.5625 3.625 C11.38878906 3.88539063 12.21507812 4.14578125 13.06640625 4.4140625 C14.02353516 4.70410156 14.02353516 4.70410156 15 5 C15.33 4.34 15.66 3.68 16 3 C21.32683552 2.49268233 23.82526994 3.73281996 28 7 C30.375 9.0625 30.375 9.0625 32 11 C32 11.99 32 12.98 32 14 C36.455 16.475 36.455 16.475 41 19 C35.96811818 20.25797046 33.40617989 18.73694324 28.9375 16.625 C28.15906738 16.26792969 27.38063477 15.91085937 26.57861328 15.54296875 C24.04575029 14.37574147 21.52228151 13.18990725 19 12 C17.66364502 11.37303223 17.66364502 11.37303223 16.30029297 10.73339844 C10.8562331 8.17760308 5.4241287 5.59780887 0 3 C0 2.01 0 1.02 0 0 Z " fill="#BB9D75" transform="translate(167,439)"/>
<path d="M0 0 C0.928125 0.0825 1.85625 0.165 2.8125 0.25 C2.1525 2.23 1.4925 4.21 0.8125 6.25 C0.1525 6.25 -0.5075 6.25 -1.1875 6.25 C-1.1875 6.91 -1.1875 7.57 -1.1875 8.25 C-2.5075 8.58 -3.8275 8.91 -5.1875 9.25 C-5.27 9.806875 -5.3525 10.36375 -5.4375 10.9375 C-6.40980042 13.93542629 -8.22886503 15.80170629 -10.1875 18.25 C-10.91132467 20.30925139 -10.91132467 20.30925139 -11.1875 22.25 C-11.5175 23.24 -11.8475 24.23 -12.1875 25.25 C-12.78949219 25.50136719 -13.39148438 25.75273438 -14.01171875 26.01171875 C-17.27289965 27.86772296 -18.42470453 30.79551377 -20 34.0625 C-20.51276489 35.10809082 -20.51276489 35.10809082 -21.03588867 36.17480469 C-27.02681815 48.83415162 -31.21519323 62.57738884 -34.1875 76.25 C-34.5175 76.25 -34.8475 76.25 -35.1875 76.25 C-34.69273688 67.17934288 -31.9174293 58.85117447 -29.1875 50.25 C-28.64802734 48.49623047 -28.64802734 48.49623047 -28.09765625 46.70703125 C-23.12579541 31.61451419 -14.90748221 17.48101227 -6.1875 4.25 C-5.68476562 3.48042969 -5.18203125 2.71085937 -4.6640625 1.91796875 C-3.1875 0.25 -3.1875 0.25 0 0 Z " fill="#C5A06B" transform="translate(54.1875,70.75)"/>
<path d="M0 0 C0.763125 0.33 1.52625 0.66 2.3125 1 C4.99069135 2.17436686 4.99069135 2.17436686 8 2 C9.134375 2.33 10.26875 2.66 11.4375 3 C15.02516059 4.18017093 15.02516059 4.18017093 19 4 C19 4.66 19 5.32 19 6 C19.99 6 20.98 6 22 6 C22 6.66 22 7.32 22 8 C22.66 8 23.32 8 24 8 C24 8.66 24 9.32 24 10 C25.65 9.34 27.3 8.68 29 8 C30.0209375 8.8971875 30.0209375 8.8971875 31.0625 9.8125 C34.31674834 12.23587643 37.23936225 13.5252401 41 15 C39.4375 15.6875 39.4375 15.6875 37 16 C35.32031034 15.28475291 33.64213129 14.56550964 31.97579956 13.81967163 C28.7001159 12.46073572 25.30873162 11.61747895 21.87890625 10.73828125 C21.13414536 10.54276169 20.38938446 10.34724213 19.62205505 10.14579773 C17.27016684 9.52960008 14.91640761 8.92093242 12.5625 8.3125 C10.95624992 7.89307676 9.35012875 7.47315953 7.74414062 7.05273438 C3.83089327 6.02944261 -0.08404898 5.01289381 -4 4 C-2.68 2.68 -1.36 1.36 0 0 Z " fill="#987E58" transform="translate(200,167)"/>
<path d="M0 0 C2.97 0.495 2.97 0.495 6 1 C2.56789849 3.79652716 -0.75553824 5.45588806 -5.0625 6.5 C-7.22848064 7.05896274 -9.03315788 7.94633458 -11 9 C-10.67 9.66 -10.34 10.32 -10 11 C-13.93434363 15.34848507 -18.10369689 17.60691313 -24 18 C-26 16 -26 16 -27 14 C-26.01 13.67 -25.02 13.34 -24 13 C-24.33 12.34 -24.66 11.68 -25 11 C-24.319375 11.0825 -23.63875 11.165 -22.9375 11.25 C-18.0607768 10.83495973 -14.25251846 8.46127154 -11.125 4.8125 C-7.84429975 2.01425567 -4.19361144 2.17921416 0 2 C0 1.34 0 0.68 0 0 Z " fill="#C7A26F" transform="translate(136,15)"/>
<path d="M0 0 C0.33 0 0.66 0 1 0 C0.9278125 0.70898438 0.855625 1.41796875 0.78125 2.1484375 C-0.05668829 11.76145179 -0.05047055 21.29103278 0.125 30.93505859 C0.18433423 36.47704079 -0.02592516 40.77056402 -2 46 C-2.36997253 48.78510012 -2.50323684 51.56937376 -2.625 54.375 C-2.66367188 55.11105469 -2.70234375 55.84710938 -2.7421875 56.60546875 C-2.83557998 58.40327406 -2.9188371 60.20160108 -3 62 C-3.33 62 -3.66 62 -4 62 C-4.41190439 28.77515842 -4.41190439 28.77515842 -2 13 C-1.8067617 11.67716064 -1.61404908 10.35424438 -1.421875 9.03125 C-0.97093501 6.01639404 -0.49941779 3.00713264 0 0 Z " fill="#997F5E" transform="translate(18,149)"/>
<path d="M0 0 C0.66 0.33 1.32 0.66 2 1 C2 1.66 2 2.32 2 3 C2.99 3 3.98 3 5 3 C5 3.66 5 4.32 5 5 C5.99 5.33 6.98 5.66 8 6 C9.1194613 8.8914086 9.10768197 11.67762612 9.0625 14.75 C9.05347656 15.54921875 9.04445312 16.3484375 9.03515625 17.171875 C9.02355469 17.77515625 9.01195312 18.3784375 9 19 C6.53199953 17.84826645 4.95216435 16.95216435 3 15 C2.60235737 13.01178687 2.26224651 11.01055661 2 9 C1.34 9 0.68 9 0 9 C-1.125 3.375 -1.125 3.375 0 0 Z " fill="#CBA572" transform="translate(185,199)"/>
<path d="M0 0 C3.94651629 0.41984216 7.39545901 1.07252936 11.125 2.4375 C16.04304505 4.11450747 20.92957564 4.95877606 26.0625 5.6875 C26.92810547 5.81705078 27.79371094 5.94660156 28.68554688 6.08007812 C30.78930608 6.39389856 32.89451257 6.69799214 35 7 C35 7.66 35 8.32 35 9 C35.99 9 36.98 9 38 9 C38.495 9.99 38.495 9.99 39 11 C39.99 11.66 40.98 12.32 42 13 C36.11729855 12.32769126 30.61682598 10.90154862 24.9375 9.25 C24.01880127 8.98558105 23.10010254 8.72116211 22.15356445 8.44873047 C14.65307011 6.2585468 7.3041728 3.77435807 0 1 C0 0.67 0 0.34 0 0 Z " fill="#9F8562" transform="translate(294,203)"/>
<path d="M0 0 C-7.14364505 3.50349201 -14.31420399 6.60276252 -21.8125 9.25 C-22.504646 9.49572754 -23.19679199 9.74145508 -23.90991211 9.99462891 C-37.0392564 14.53861902 -37.0392564 14.53861902 -42 13 C-41.34 13 -40.68 13 -40 13 C-40 12.34 -40 11.68 -40 11 C-33.2173913 9.04347826 -33.2173913 9.04347826 -30.8125 8.5625 C-28.86007285 8.07258431 -28.86007285 8.07258431 -27.0625 6.5 C-23.87134144 4.17915741 -21.08027548 3.9459111 -17.19140625 4.140625 C-13.59052788 3.98195716 -11.50180809 3.06996314 -8.3125 1.4375 C-3.32459016 -1.10819672 -3.32459016 -1.10819672 0 0 Z " fill="#937F61" transform="translate(500,210)"/>
<path d="M0 0 C1 3 1 3 0.3984375 4.75146484 C0.06070313 5.39809082 -0.27703125 6.0447168 -0.625 6.7109375 C-0.99866699 7.45077881 -1.37233398 8.19062012 -1.75732422 8.95288086 C-2.16740723 9.75218018 -2.57749023 10.55147949 -3 11.375 C-9.83475459 25.2225394 -14.71929014 39.90873464 -18 55 C-18.33 55 -18.66 55 -19 55 C-18.50550565 45.93427031 -15.74069389 37.59410366 -13 29 C-12.61714844 27.78441406 -12.23429687 26.56882812 -11.83984375 25.31640625 C-8.82750856 16.32024592 -4.6464885 8.23224017 0 0 Z " fill="#796545" transform="translate(38,92)"/>
<path d="M0 0 C0.99 0.33 1.98 0.66 3 1 C1.57573507 2.66164242 0.15138349 4.3232093 -1.2734375 5.984375 C-2.40537007 7.30581665 -3.53563964 8.62868503 -4.6640625 9.953125 C-5.44910156 10.87351562 -5.44910156 10.87351562 -6.25 11.8125 C-6.72953125 12.37582031 -7.2090625 12.93914063 -7.703125 13.51953125 C-8.75610282 14.7215752 -9.87002833 15.87002833 -11 17 C-11.99 16.67 -12.98 16.34 -14 16 C-14 16.66 -14 17.32 -14 18 C-14.99 18.33 -15.98 18.66 -17 19 C-16.62403791 16.21788056 -16.32681541 14.4120716 -14.5625 12.1875 C-13 11 -13 11 -11 11 C-11 10.34 -11 9.68 -11 9 C-9.2928269 7.36818599 -7.50811916 5.81669508 -5.6875 4.3125 C-4.70136719 3.48363281 -3.71523437 2.65476563 -2.69921875 1.80078125 C-1.80847656 1.20652344 -0.91773437 0.61226562 0 0 Z " fill="#C19E6F" transform="translate(79,45)"/>
<path d="M0 0 C5.4389165 -0.21755666 9.87080814 -0.10428384 15 2 C14.67 2.66 14.34 3.32 14 4 C14.886875 4.144375 15.77375 4.28875 16.6875 4.4375 C19.47117646 4.91019978 22.23483757 5.43070185 25 6 C25 6.99 25 7.98 25 9 C26.3921875 8.87625 26.3921875 8.87625 27.8125 8.75 C31 9 31 9 32.875 11 C33.24625 11.66 33.6175 12.32 34 13 C29.03035696 12.24396911 24.49467943 10.44566318 19.8125 8.6875 C18.54635864 8.21654907 18.54635864 8.21654907 17.25463867 7.73608398 C11.46896615 5.57543859 5.706927 3.36199292 0 1 C0 0.67 0 0.34 0 0 Z " fill="#9C815D" transform="translate(241,183)"/>
<path d="M0 0 C1.32 0 2.64 0 4 0 C4.144375 0.78375 4.28875 1.5675 4.4375 2.375 C5.69900253 5.14651912 5.69900253 5.14651912 8.03125 5.671875 C9.61656861 5.97040902 11.2099327 6.2293484 12.80859375 6.4453125 C15.35395917 7.08959394 16.33338994 8.01721632 18 10 C17.67 10.66 17.34 11.32 17 12 C12.39583374 11.39124245 8.43516676 10.15277044 4.125 8.4375 C2.97257812 7.98246094 1.82015625 7.52742187 0.6328125 7.05859375 C-0.23601562 6.70925781 -1.10484375 6.35992187 -2 6 C-1.34 4.02 -0.68 2.04 0 0 Z " fill="#AE9064" transform="translate(277,191)"/>
<path d="M0 0 C-1.65 0.33 -3.3 0.66 -5 1 C-5 1.66 -5 2.32 -5 3 C-7.97 3.66 -10.94 4.32 -14 5 C-14 5.66 -14 6.32 -14 7 C-15.74552473 7.84266711 -17.4966208 8.67380038 -19.25 9.5 C-20.22453125 9.9640625 -21.1990625 10.428125 -22.203125 10.90625 C-25 12 -25 12 -29 12 C-29 11.01 -29 10.02 -29 9 C-22.33637116 6.08162241 -15.66342067 3.18049715 -8.875 0.5625 C-8.02679688 0.23378906 -7.17859375 -0.09492188 -6.3046875 -0.43359375 C-3.78235206 -1.05348975 -2.42262279 -0.85405826 0 0 Z " fill="#D4BA97" transform="translate(141,14)"/>
<path d="M0 0 C0.33 0 0.66 0 1 0 C1.83809547 5.12514694 2.1729752 10.12433039 2.203125 15.3203125 C2.20882507 16.10082977 2.21452515 16.88134705 2.22039795 17.68551636 C2.22979579 19.33102079 2.23636103 20.9765436 2.24023438 22.62207031 C2.24989213 25.09735342 2.2809451 27.57178778 2.3125 30.046875 C2.37364697 39.49266003 1.70805664 47.88124215 -1 57 C-2.215287 53.354139 -1.70276338 51.37285625 -1.0703125 47.58984375 C0.3832193 37.92643284 0.22044137 28.3110261 0.125 18.5625 C0.11493873 16.75195814 0.10581851 14.94141079 0.09765625 13.13085938 C0.07591823 8.75376742 0.04156645 4.3769467 0 0 Z " fill="#F1E5D5" transform="translate(269,379)"/>
<path d="M0 0 C1.0546875 1.859375 1.0546875 1.859375 2 4 C1.125 6.25 1.125 6.25 0 8 C0.66 8.33 1.32 8.66 2 9 C1.01 9.495 1.01 9.495 0 10 C-1.41644354 14.09194801 -2.26260116 17.66708088 -2 22 C-2.66 22 -3.32 22 -4 22 C-4.33 23.65 -4.66 25.3 -5 27 C-5.66 26.67 -6.32 26.34 -7 26 C-6.43737174 19.78972353 -4.99833221 14.37169827 -2.9375 8.5 C-2.65583984 7.67757812 -2.37417969 6.85515625 -2.08398438 6.0078125 C-1.39622757 4.00282657 -0.69908924 2.00106277 0 0 Z " fill="#BF9D6E" transform="translate(29,114)"/>
<path d="M0 0 C0.33 0.99 0.66 1.98 1 3 C2.98 3 4.96 3 7 3 C7.33 3.99 7.66 4.98 8 6 C10.00016466 7.20882096 10.00016466 7.20882096 12 8 C11.07316406 7.91621094 10.14632812 7.83242187 9.19140625 7.74609375 C7.99386719 7.64425781 6.79632813 7.54242188 5.5625 7.4375 C4.36753906 7.33308594 3.17257813 7.22867188 1.94140625 7.12109375 C0.48541016 7.06115234 0.48541016 7.06115234 -1 7 C-1.33 7.33 -1.66 7.66 -2 8 C-3.66617115 8.04063832 -5.33388095 8.042721 -7 8 C-6.67 7.34 -6.34 6.68 -6 6 C-5.34 6.33 -4.68 6.66 -4 7 C-4 6.34 -4 5.68 -4 5 C-5.32 4.67 -6.64 4.34 -8 4 C-5.37801226 1.84622436 -3.35595828 0.59927826 0 0 Z " fill="#C6A16E" transform="translate(184,162)"/>
<path d="M0 0 C0.763125 0.33 1.52625 0.66 2.3125 1 C4.99069135 2.17436686 4.99069135 2.17436686 8 2 C9.134375 2.33 10.26875 2.66 11.4375 3 C15.02516059 4.18017093 15.02516059 4.18017093 19 4 C19 4.99 19 5.98 19 7 C16.4783624 6.88496731 13.9581881 6.75825223 11.4375 6.625 C10.38079102 6.57859375 10.38079102 6.57859375 9.30273438 6.53125 C4.58704259 6.27047442 0.49614504 5.45341877 -4 4 C-2.68 2.68 -1.36 1.36 0 0 Z " fill="#C3A476" transform="translate(200,167)"/>
<path d="M0 0 C-1.32 0.33 -2.64 0.66 -4 1 C-4 1.66 -4 2.32 -4 3 C-8.38531212 4.86375765 -11.14240133 4.88209058 -15.7890625 4.08984375 C-19.32739597 3.94605988 -22.34118044 5.23267882 -25.65625 6.36328125 C-28.68070322 7.18492438 -31.01258947 6.86477673 -34 6 C-29.62616355 3.63285147 -25.21670912 2.83763731 -20.375 1.875 C-19.09689453 1.60236328 -19.09689453 1.60236328 -17.79296875 1.32421875 C-11.79659102 0.11768586 -6.10911787 -0.22092979 0 0 Z " fill="#D4BD9C" transform="translate(193,2)"/>
<path d="M0 0 C2.64 0.33 5.28 0.66 8 1 C7 4 7 4 5.36328125 5.16796875 C1.06030271 7.30716379 -2.07385397 8.4926146 -7 8 C-6.875 6.125 -6.875 6.125 -6 4 C-2.9375 2.75 -2.9375 2.75 0 2 C0 1.34 0 0.68 0 0 Z " fill="#C6A575" transform="translate(504,201)"/>
<path d="M0 0 C1.70884005 1.62339805 3.37446717 3.29319053 5 5 C5 5.66 5 6.32 5 7 C5.56203125 7.21398437 6.1240625 7.42796875 6.703125 7.6484375 C9.7956629 9.4681962 11.53092586 11.81852388 13.75 14.625 C14.54921875 15.62789062 15.3484375 16.63078125 16.171875 17.6640625 C16.77515625 18.43492187 17.3784375 19.20578125 18 20 C17.67 20.66 17.34 21.32 17 22 C16.60167969 21.50628906 16.20335937 21.01257813 15.79296875 20.50390625 C15.26316406 19.86324219 14.73335938 19.22257812 14.1875 18.5625 C13.66542969 17.92441406 13.14335937 17.28632813 12.60546875 16.62890625 C10.99165589 14.7451725 10.99165589 14.7451725 8 14 C6.24609375 11.96875 6.24609375 11.96875 4.4375 9.5 C2.168506 6.2216853 2.168506 6.2216853 -1 4 C-0.67 2.68 -0.34 1.36 0 0 Z " fill="#DECDB4" transform="translate(496,135)"/>
<path d="M0 0 C0.99 0.33 1.98 0.66 3 1 C1.66666667 2.33333333 0.33333333 3.66666667 -1 5 C-1 4.34 -1 3.68 -1 3 C-1.78375 3.474375 -2.5675 3.94875 -3.375 4.4375 C-7.846813 6.3650056 -12.12204679 7.16903798 -17 7 C-19.3046875 6.01171875 -19.3046875 6.01171875 -21 5 C-19.88625 4.87625 -18.7725 4.7525 -17.625 4.625 C-13.96896323 4.3534187 -13.96896323 4.3534187 -12 2 C-9.6875 1.62109375 -9.6875 1.62109375 -7 1.4375 C-3.36281225 1.22782477 -3.36281225 1.22782477 0 0 Z " fill="#BF9E70" transform="translate(160,9)"/>
<path d="M0 0 C2.61715838 2.38923768 4.36199113 4.97100751 6.1875 8 C6.98220703 9.299375 6.98220703 9.299375 7.79296875 10.625 C9 13 9 13 9 16 C9.66 16 10.32 16 11 16 C14.22265625 21.2734375 14.22265625 21.2734375 15 23 C14.67 23.66 14.34 24.32 14 25 C13.34 24.67 12.68 24.34 12 24 C12 23.34 12 22.68 12 22 C11.01 22 10.02 22 9 22 C9 20.68 9 19.36 9 18 C8.34 17.54625 7.68 17.0925 7 16.625 C6.34 16.08875 5.68 15.5525 5 15 C4.75 11.8125 4.75 11.8125 5 9 C4.34 9 3.68 9 3 9 C3 8.01 3 7.02 3 6 C2.34 6 1.68 6 1 6 C0.67 4.02 0.34 2.04 0 0 Z " fill="#DECAAE" transform="translate(178,180)"/>
<path d="M0 0 C2.38066675 2.38066675 2.65402357 3.84796543 3.47265625 7.0859375 C3.73240234 8.09914063 3.99214844 9.11234375 4.25976562 10.15625 C4.52466797 11.2184375 4.78957031 12.280625 5.0625 13.375 C5.33126953 14.42945313 5.60003906 15.48390625 5.87695312 16.5703125 C6.59148499 19.37854747 7.29809486 22.18858682 8 25 C8.28701782 26.03954834 8.28701782 26.03954834 8.57983398 27.10009766 C9.23389926 30.05764327 9.05798 32.98503979 9 36 C7.08541998 33.12812997 6.56686094 31.68525737 5.9296875 28.40234375 C5.75566406 27.51869141 5.58164062 26.63503906 5.40234375 25.72460938 C5.22832031 24.80486328 5.05429687 23.88511719 4.875 22.9375 C4.69324219 22.01388672 4.51148438 21.09027344 4.32421875 20.13867188 C3 13.32342575 3 13.32342575 3 11 C2.34 11 1.68 11 1 11 C0.67 7.37 0.34 3.74 0 0 Z " fill="#E9DECA" transform="translate(260,341)"/>
<path d="M0 0 C2.31 0 4.62 0 7 0 C7.33 0.99 7.66 1.98 8 3 C8.66 3 9.32 3 10 3 C10.33 2.34 10.66 1.68 11 1 C11.33 3.64 11.66 6.28 12 9 C9.525 8.01 9.525 8.01 7 7 C7 6.34 7 5.68 7 5 C6.34 5 5.68 5 5 5 C4.67 5.66 4.34 6.32 4 7 C2.68 6.34 1.36 5.68 0 5 C0.66 4.67 1.32 4.34 2 4 C1.34 2.68 0.68 1.36 0 0 Z " fill="#C9A573" transform="translate(192,224)"/>
<path d="M0 0 C2 3.75 2 3.75 2 6 C2.99 6 3.98 6 5 6 C5.82916967 8.8697044 6.08469597 11.33226054 6 14.3125 C5.94680663 18.32859925 6.32663508 22.04398109 7 26 C4.47129376 22.20694064 3.56818412 18.48844659 2.375 14.125 C2.03082031 12.92037109 2.03082031 12.92037109 1.6796875 11.69140625 C0.57842182 7.71242846 -0.32084607 4.17099893 0 0 Z " fill="#978060" transform="translate(19,242)"/>
<path d="M0 0 C0.66 0 1.32 0 2 0 C2 1.32 2 2.64 2 4 C2.66 4 3.32 4 4 4 C4.33 4.99 4.66 5.98 5 7 C6.0209375 7.99 6.0209375 7.99 7.0625 9 C9 11 9 11 9 14 C9.99 14 10.98 14 12 14 C12.33 14.99 12.66 15.98 13 17 C12.34 17.66 11.68 18.32 11 19 C10.67 18.01 10.34 17.02 10 16 C9.34 16 8.68 16 8 16 C6.3359207 13.92802914 4.81438893 11.87185469 3.3125 9.6875 C2.88388672 9.09259766 2.45527344 8.49769531 2.01367188 7.88476562 C0.92301365 6.31288299 -0.04744898 4.65921576 -1 3 C-0.67 2.01 -0.34 1.02 0 0 Z " fill="#9D896A" transform="translate(65,344)"/>
<path d="M0 0 C-0.66 1.98 -1.32 3.96 -2 6 C-2.66 6 -3.32 6 -4 6 C-3.34 7.98 -2.68 9.96 -2 12 C-4.66666667 9.33333333 -7.33333333 6.66666667 -10 4 C-9.67 3.34 -9.34 2.68 -9 2 C-8.67 2 -8.34 2 -8 2 C-7.67 1.34 -7.34 0.68 -7 0 C-4.3333581 -1.33332095 -2.83319697 -0.67102033 0 0 Z " fill="#CBA97C" transform="translate(87,361)"/>
<path d="M0 0 C-0.99 1.485 -0.99 1.485 -2 3 C-4.6796875 3.51171875 -4.6796875 3.51171875 -7.875 3.6875 C-8.92429688 3.75324219 -9.97359375 3.81898437 -11.0546875 3.88671875 C-13.36838891 3.97570727 -15.68458791 4 -18 4 C-15.71070878 0.85222457 -12.84037146 0.10930614 -9.140625 -0.7265625 C-5.89799167 -1.14076749 -3.19036984 -0.66466038 0 0 Z " fill="#C7A577" transform="translate(182,6)"/>
<path d="M0 0 C1.65 0 3.3 0 5 0 C5.33 0.66 5.66 1.32 6 2 C7.73388976 2.71972783 9.46861963 3.43764059 11.2109375 4.13671875 C13.64603963 5.31173528 15.24886323 6.96868134 17 9 C16.01 9.495 16.01 9.495 15 10 C13.30419922 9.37915039 13.30419922 9.37915039 11.3046875 8.34765625 C10.58925781 7.98349609 9.87382812 7.61933594 9.13671875 7.24414062 C8.39035156 6.85419922 7.64398438 6.46425781 6.875 6.0625 C5.74384766 5.48338867 5.74384766 5.48338867 4.58984375 4.89257812 C2.72290903 3.93547868 0.86097372 2.96863894 -1 2 C-0.67 1.34 -0.34 0.68 0 0 Z " fill="#A28B70" transform="translate(167,439)"/>
<path d="M0 0 C2.89932357 2.39509338 3.50168276 4.31245243 4 8 C1.625 9.5625 1.625 9.5625 -1 11 C-1.66 10.67 -2.32 10.34 -3 10 C-3 7.69 -3 5.38 -3 3 C-2.01 2.67 -1.02 2.34 0 2 C0 1.34 0 0.68 0 0 Z " fill="#C9AB7E" transform="translate(219,253)"/>
<path d="M0 0 C2.16981208 2.33544659 3.00080331 3.44651619 2.99609375 6.69140625 C2.81175781 7.63886719 2.62742187 8.58632812 2.4375 9.5625 C2.27121094 10.51253906 2.10492187 11.46257812 1.93359375 12.44140625 C0.84232785 15.43211406 -0.31884593 16.371569 -3 18 C-2.57045059 11.74892565 -1.98598493 5.95795479 0 0 Z " fill="#C0A073" transform="translate(21,140)"/>
<path d="M0 0 C3.465 1.485 3.465 1.485 7 3 C7 3.66 7 4.32 7 5 C8.98 5 10.96 5 13 5 C13 5.66 13 6.32 13 7 C6.54487966 7.56131481 1.84560277 5.63463787 -4 3 C-3.67 2.34 -3.34 1.68 -3 1 C-2.01 1.33 -1.02 1.66 0 2 C0 1.34 0 0.68 0 0 Z " fill="#C79E67" transform="translate(239,177)"/>
<path d="M0 0 C0.28875 0.598125 0.5775 1.19625 0.875 1.8125 C2.04742026 4.19327792 2.04742026 4.19327792 4 7 C4.33 7.66 4.66 8.32 5 9 C4.34 9 3.68 9 3 9 C3.165 9.94875 3.33 10.8975 3.5 11.875 C4.18541792 16.5763877 4.08583441 21.26003286 4 26 C-0.71275795 18.93086308 -0.28649599 8.30838372 0 0 Z " fill="#988161" transform="translate(15,215)"/>
<path d="M0 0 C3.45031884 1.72515942 4.42616993 5.60823561 6 9 C6.433125 9.9075 6.86625 10.815 7.3125 11.75 C8.08511471 14.27855724 7.90778139 15.54899025 7 18 C5 17 5 17 4 14 C3.34 13.67 2.68 13.34 2 13 C1.3671875 10.05859375 1.3671875 10.05859375 0.875 6.4375 C0.70742188 5.23996094 0.53984375 4.04242188 0.3671875 2.80859375 C0.24601563 1.88175781 0.12484375 0.95492187 0 0 Z " fill="#DAC8AF" transform="translate(514,157)"/>
<path d="M0 0 C6.72918698 3.43936223 12.24900261 8.13297147 18 13 C16.125 13.625 16.125 13.625 14 14 C13.34 13.34 12.68 12.68 12 12 C9.10151 9.48797533 6.54032693 7.30018163 3.1875 5.4375 C1 4 1 4 0.1875 1.8125 C0.125625 1.214375 0.06375 0.61625 0 0 Z " fill="#D9C7AB" transform="translate(440,82)"/>
<path d="M0 0 C2.10494301 0.08708038 4.20902142 0.19525693 6.3125 0.3125 C8.07013672 0.39951172 8.07013672 0.39951172 9.86328125 0.48828125 C13.0983686 1.01604768 14.08684881 1.42380724 16 4 C15.67 4.66 15.34 5.32 15 6 C12.69 6 10.38 6 8 6 C8 5.34 8 4.68 8 4 C5.69 3.67 3.38 3.34 1 3 C0.67 2.01 0.34 1.02 0 0 Z " fill="#C89F69" transform="translate(232,3)"/>
<path d="M0 0 C4.60895683 1.31684481 8.14140235 3.15198745 12 6 C12 6.33 12 6.66 12 7 C9.03 7.66 6.06 8.32 3 9 C2.61781233 7.34385343 2.28604898 5.67542976 2 4 C2.33 3.67 2.66 3.34 3 3 C1.68 2.34 0.36 1.68 -1 1 C-0.67 0.67 -0.34 0.34 0 0 Z " fill="#DBC4A6" transform="translate(366,36)"/>
<path d="M0 0 C0.99 0.33 1.98 0.66 3 1 C2.34 2.65 1.68 4.3 1 6 C-1.46038493 5.55102465 -3.91789621 5.09131167 -6.375 4.625 C-7.07367188 4.49867188 -7.77234375 4.37234375 -8.4921875 4.2421875 C-13.7734375 3.2265625 -13.7734375 3.2265625 -16 1 C-10.53862186 0.90247539 -5.40744018 1.22750855 0 2 C0 1.34 0 0.68 0 0 Z " fill="#C7A677" transform="translate(308,200)"/>
<path d="M0 0 C2.39614126 -0.05425226 4.79103853 -0.09379027 7.1875 -0.125 C8.19780273 -0.15013672 8.19780273 -0.15013672 9.22851562 -0.17578125 C13.32526055 -0.21574949 16.29832014 0.27950091 20 2 C21.9924325 2.37593066 23.9918674 2.71979545 26 3 C26 3.33 26 3.66 26 4 C17.10708083 4.48506832 8.69059407 2.67625695 0 1 C0 0.67 0 0.34 0 0 Z " fill="#957E63" transform="translate(355,220)"/>
<path d="M0 0 C2.08163365 3.12245047 3.32575613 6.07034881 4.6875 9.5625 C5.14511719 10.71878906 5.60273438 11.87507813 6.07421875 13.06640625 C7 16 7 16 6 18 C5.34 16.02 4.68 14.04 4 12 C3.01 12.33 2.02 12.66 1 13 C0 12 0 12 -0.09765625 9.27734375 C-0.08605469 8.17519531 -0.07445312 7.07304687 -0.0625 5.9375 C-0.05347656 4.83277344 -0.04445312 3.72804688 -0.03515625 2.58984375 C-0.02355469 1.73519531 -0.01195312 0.88054687 0 0 Z " fill="#E1D2B8" transform="translate(251,316)"/>
<path d="M0 0 C0.33 0 0.66 0 1 0 C1 1.65 1 3.3 1 5 C1.66 5 2.32 5 3 5 C5.03993514 9.92984325 6.40652968 13.57960425 6 19 C3.44761309 16.44761309 2.62898015 13.982213 1.3125 10.625 C0.62607422 8.91183594 0.62607422 8.91183594 -0.07421875 7.1640625 C-0.96548195 4.11797309 -1.169555 2.87781411 0 0 Z " fill="#937D5D" transform="translate(28,269)"/>
<path d="M0 0 C7.47093223 -0.29883729 14.63044989 0.84074493 22 2 C22 2.33 22 2.66 22 3 C20.02 3.33 18.04 3.66 16 4 C16 4.33 16 4.66 16 5 C9.68750771 5.46188968 5.19849651 3.46566434 0 0 Z " fill="#E0CDAF" transform="translate(248,2)"/>
<path d="M0 0 C3.98069267 2.87494471 6.43571997 5.82117329 9 10 C2.58374793 8.54726368 2.58374793 8.54726368 0 6.125 C-1 4 -1 4 -0.6875 1.75 C-0.460625 1.1725 -0.23375 0.595 0 0 Z " fill="#D9C5AD" transform="translate(482,119)"/>
<path d="M0 0 C0.33 0 0.66 0 1 0 C2.25908847 7.12977809 2.21689349 13.36196581 -1 20 C-1.99 20.66 -2.98 21.32 -4 22 C-4.20140476 18.37471432 -3.85776765 16.13498292 -2 13 C-1.34 13 -0.68 13 0 13 C0 8.71 0 4.42 0 0 Z " fill="#DFCEB5" transform="translate(522,176)"/>
<path d="M0 0 C0.66 0.33 1.32 0.66 2 1 C0.7934375 2.36125 0.7934375 2.36125 -0.4375 3.75 C-2.43469531 6.14100847 -3.56651405 7.85722688 -4 11 C-4.33 11.99 -4.66 12.98 -5 14 C-7.0625 14.6875 -7.0625 14.6875 -9 15 C-7.27277012 9.09863124 -5.25528174 3.50352116 0 0 Z " fill="#C29F6E" transform="translate(47,82)"/>
<path d="M0 0 C0.99 0.33 1.98 0.66 3 1 C-5.07744875 9.81548975 -5.07744875 9.81548975 -11 11 C-11 10.34 -11 9.68 -11 9 C-9.2928269 7.36818599 -7.50811916 5.81669508 -5.6875 4.3125 C-4.70136719 3.48363281 -3.71523437 2.65476563 -2.69921875 1.80078125 C-1.36310547 0.90939453 -1.36310547 0.90939453 0 0 Z " fill="#B89F80" transform="translate(79,45)"/>
<path d="M0 0 C5.4389165 -0.21755666 9.87080814 -0.10428384 15 2 C14.01 2.33 13.02 2.66 12 3 C12 3.66 12 4.32 12 5 C11.34 5 10.68 5 10 5 C10 4.34 10 3.68 10 3 C7.98177083 3.09765625 5.96354167 3.1953125 3.9453125 3.29296875 C3.30335938 3.19628906 2.66140625 3.09960938 2 3 C1.34 2.01 0.68 1.02 0 0 Z " fill="#C7A578" transform="translate(289,11)"/>
<path d="M0 0 C0.66 0.33 1.32 0.66 2 1 C1.34 1.66 0.68 2.32 0 3 C0.66 3.33 1.32 3.66 2 4 C0.30820672 6.04219706 -0.63727666 6.91793306 -3.26171875 7.51171875 C-4.06222656 7.56972656 -4.86273438 7.62773438 -5.6875 7.6875 C-6.49574219 7.75324219 -7.30398437 7.81898437 -8.13671875 7.88671875 C-9.05904297 7.94279297 -9.05904297 7.94279297 -10 8 C-6.91367389 4.7373124 -4.06516496 1.97764782 0 0 Z " fill="#DAC3A3" transform="translate(100,30)"/>
<path d="M0 0 C0.8971875 0.928125 0.8971875 0.928125 1.8125 1.875 C4.31850737 4.30940716 6.83619841 5.56190837 10 7 C8.375 7.6875 8.375 7.6875 6 8 C2.75 6.5625 2.75 6.5625 0 5 C0 4.34 0 3.68 0 3 C-0.61875 2.87625 -1.2375 2.7525 -1.875 2.625 C-4 2 -4 2 -6 0 C-3 -1 -3 -1 0 0 Z " fill="#9C8A6D" transform="translate(198,451)"/>
<path d="M0 0 C0.433125 0.639375 0.86625 1.27875 1.3125 1.9375 C2.91239177 4.26746003 2.91239177 4.26746003 6 5 C7.125 12.625 7.125 12.625 6 16 C4.99303432 13.89915791 3.9946411 11.79420511 3 9.6875 C2.443125 8.51574219 1.88625 7.34398437 1.3125 6.13671875 C0 3 0 3 0 0 Z " fill="#977C61" transform="translate(34,288)"/>
<path d="M0 0 C2 1 2 1 2 1 Z M-1 1 C0.2818632 3.5637264 0.27122178 5.15217131 0 8 C-1.81883916 11.09202657 -4.06585641 12.9764527 -7 15 C-5.7023817 9.70139194 -3.84984298 5.65474354 -1 1 Z " fill="#C29D6C" transform="translate(37,99)"/>
<path d="M0 0 C2.83967231 2.83967231 4.8346853 5.64002892 7 9 C6.67 9.66 6.34 10.32 6 11 C4.35 10.67 2.7 10.34 1 10 C0.67 6.7 0.34 3.4 0 0 Z " fill="#D8C3A2" transform="translate(193,205)"/>
<path d="M0 0 C0 0.66 0 1.32 0 2 C1.32 2.66 2.64 3.32 4 4 C3.08476562 3.91621094 2.16953125 3.83242187 1.2265625 3.74609375 C0.03804687 3.64425781 -1.15046875 3.54242188 -2.375 3.4375 C-3.55835938 3.33308594 -4.74171875 3.22867188 -5.9609375 3.12109375 C-8.91898631 2.75846404 -8.91898631 2.75846404 -11 4 C-10.67 3.01 -10.34 2.02 -10 1 C-3.84210526 -1.28070175 -3.84210526 -1.28070175 0 0 Z " fill="#99805D" transform="translate(192,166)"/>
<path d="M0 0 C3.91402949 1.26941497 5.79072873 2.51167694 8 6 C-0.57142857 5.14285714 -0.57142857 5.14285714 -4 3 C-3.01 2.34 -2.02 1.68 -1 1 C-0.67 0.67 -0.34 0.34 0 0 Z " fill="#98805B" transform="translate(200,167)"/>
<path d="M0 0 C0 0.33 0 0.66 0 1 C-0.91523438 1.20496094 -1.83046875 1.40992188 -2.7734375 1.62109375 C-3.96195313 1.89050781 -5.15046875 2.15992188 -6.375 2.4375 C-7.55835938 2.70433594 -8.74171875 2.97117187 -9.9609375 3.24609375 C-12.89494581 3.85634695 -12.89494581 3.85634695 -15 5 C-17.00800456 4.71887936 -19.01014051 4.38932033 -21 4 C-14.32562227 0.42229302 -7.47078902 -0.27166506 0 0 Z " fill="#E9D5BE" transform="translate(180,4)"/>
<path d="M0 0 C3.71888239 0.50712033 6.73454239 1.11608215 10 3 C10 3.66 10 4.32 10 5 C10.66 5 11.32 5 12 5 C12 5.66 12 6.32 12 7 C7.39104317 5.68315519 3.85859765 3.84801255 0 1 C0 0.67 0 0.34 0 0 Z " fill="#9B8169" transform="translate(154,433)"/>
<path d="M0 0 C0.66 0.33 1.32 0.66 2 1 C2.4140625 3.28515625 2.4140625 3.28515625 2.625 6.0625 C2.69976563 6.98160156 2.77453125 7.90070313 2.8515625 8.84765625 C2.92503906 9.91306641 2.92503906 9.91306641 3 11 C3.66 11 4.32 11 5 11 C4.67 11.99 4.34 12.98 4 14 C3.01 14 2.02 14 1 14 C0.63659714 12.23103898 0.28459117 10.45973374 -0.0625 8.6875 C-0.25972656 7.70136719 -0.45695312 6.71523438 -0.66015625 5.69921875 C-1 3 -1 3 0 0 Z " fill="#BA996D" transform="translate(25,256)"/>
<path d="M0 0 C1 3 1 3 -0.21484375 5.91796875 C-0.78332031 6.99691406 -1.35179687 8.07585937 -1.9375 9.1875 C-2.50339844 10.27417969 -3.06929687 11.36085938 -3.65234375 12.48046875 C-4.09707031 13.31191406 -4.54179688 14.14335938 -5 15 C-5.68359375 13.359375 -5.68359375 13.359375 -6 11 C-4.78515625 8.203125 -4.78515625 8.203125 -3.0625 5.25 C-2.49660156 4.26515625 -1.93070313 3.2803125 -1.34765625 2.265625 C-0.90292969 1.51796875 -0.45820312 0.7703125 0 0 Z " fill="#9B6E48" transform="translate(38,92)"/>
<path d="M0 0 C0.66 0 1.32 0 2 0 C1.49396008 2.16874252 1.00016187 3.99967627 0 6 C-0.66 6 -1.32 6 -2 6 C-2.268125 6.94875 -2.53625 7.8975 -2.8125 8.875 C-4 12 -4 12 -7 14 C-5.58163643 8.8423143 -3.32608425 4.20024742 0 0 Z " fill="#A0855C" transform="translate(46,78)"/>
<path d="M0 0 C-1.65 0.33 -3.3 0.66 -5 1 C-5 1.66 -5 2.32 -5 3 C-8.96 3.66 -12.92 4.32 -17 5 C-14.65117776 2.65117776 -12.72876333 1.96496976 -9.625 0.8125 C-8.66851562 0.44769531 -7.71203125 0.08289063 -6.7265625 -0.29296875 C-3.94714704 -1.01370542 -2.64891897 -0.98549829 0 0 Z " fill="#DACAAE" transform="translate(141,14)"/>
<path d="M0 0 C3.76607955 1.25535985 4.26441793 2.52883585 6 6 C6 6.99 6 7.98 6 9 C5.01 9 4.02 9 3 9 C2.01 6.03 1.02 3.06 0 0 Z " fill="#C6A47D" transform="translate(33,283)"/>
<path d="M0 0 C0.66 0.66 1.32 1.32 2 2 C-0.65728125 3.73745313 -1.89600355 4.00831972 -5.125 3.75 C-8 3 -8 3 -10 1 C-8.37675914 0.77837671 -6.751279 0.57310197 -5.125 0.375 C-4.22007812 0.25898438 -3.31515625 0.14296875 -2.3828125 0.0234375 C-1.59648437 0.01570312 -0.81015625 0.00796875 0 0 Z " fill="#C49E6A" transform="translate(263,185)"/>
<path d="M0 0 C2.56529454 1.28264727 2.66499863 2.22772349 3.625 4.875 C3.88539062 5.57367188 4.14578125 6.27234375 4.4140625 6.9921875 C5 9 5 9 5 12 C2.69 9.36 0.38 6.72 -2 4 C-1.67 3.34 -1.34 2.68 -1 2 C-0.67 2 -0.34 2 0 2 C0 1.34 0 0.68 0 0 Z " fill="#907E5C" transform="translate(79,361)"/>
<path d="M0 0 C1.32 0.66 2.64 1.32 4 2 C2.25 6.875 2.25 6.875 0 8 C0 7.34 0 6.68 0 6 C-0.66 5.67 -1.32 5.34 -2 5 C-1.34 3.35 -0.68 1.7 0 0 Z " fill="#CFB18B" transform="translate(250,344)"/>
<path d="M0 0 C1.81612488 0.95144598 3.62781081 1.91136933 5.4375 2.875 C6.44683594 3.40867188 7.45617187 3.94234375 8.49609375 4.4921875 C11 6 11 6 12 8 C5.25 6.125 5.25 6.125 3 5 C3 4.34 3 3.68 3 3 C2.01 3 1.02 3 0 3 C0 2.01 0 1.02 0 0 Z " fill="#E4D6BF" transform="translate(400,55)"/>
<path d="M0 0 C2.92879371 0.62759865 5.36095629 1.58622659 8 3 C5 5 5 5 2.3125 4.625 C1.549375 4.41875 0.78625 4.2125 0 4 C0 2.68 0 1.36 0 0 Z " fill="#DCC7AD" transform="translate(358,32)"/>
<path d="M0 0 C-1.625 2 -1.625 2 -4 4 C-7.25 4.25 -7.25 4.25 -10 4 C-4.75 -1.425 -4.75 -1.425 0 0 Z " fill="#C7A679" transform="translate(108,30)"/>
<path d="M0 0 C2.475 0.495 2.475 0.495 5 1 C5 1.66 5 2.32 5 3 C5.66 3 6.32 3 7 3 C7.33 4.65 7.66 6.3 8 8 C6.85073734 7.04578192 5.70569459 6.08647955 4.5625 5.125 C3.92441406 4.59132813 3.28632812 4.05765625 2.62890625 3.5078125 C1 2 1 2 0 0 Z " fill="#9C886C" transform="translate(98,388)"/>
<path d="M0 0 C0.66 0 1.32 0 2 0 C2 1.32 2 2.64 2 4 C2.66 4 3.32 4 4 4 C4.33 5.98 4.66 7.96 5 10 C1.91910327 7.22719294 0.31224548 4.93673644 -1 1 C-0.67 0.67 -0.34 0.34 0 0 Z " fill="#8C785D" transform="translate(65,344)"/>
<path d="M0 0 C0.66 0 1.32 0 2 0 C2.80967438 2.91482778 3.21845993 4.46113217 2.0625 7.3125 C1.5365625 8.1478125 1.5365625 8.1478125 1 9 C-0.61949011 6.42786866 -1.04408751 5.32330841 -0.625 2.25 C-0.41875 1.5075 -0.2125 0.765 0 0 Z " fill="#C5A67D" transform="translate(20,237)"/>
<path d="M0 0 C0.66 0.33 1.32 0.66 2 1 C1.67 2.32 1.34 3.64 1 5 C0.34 5 -0.32 5 -1 5 C-1 5.66 -1 6.32 -1 7 C-1.99 7.33 -2.98 7.66 -4 8 C-3.50168276 4.31245243 -2.89932357 2.39509338 0 0 Z " fill="#BDA27A" transform="translate(66,56)"/>
<path d="M0 0 C1.32 0.66 2.64 1.32 4 2 C3.67 2.99 3.34 3.98 3 5 C1.35 5 -0.3 5 -2 5 C-1.125 1.125 -1.125 1.125 0 0 Z " fill="#C6A375" transform="translate(85,346)"/>
<path d="M0 0 C0.99 0.33 1.98 0.66 3 1 C1.625 3.5 1.625 3.5 0 6 C-0.66 6 -1.32 6 -2 6 C-2.33 6.66 -2.66 7.32 -3 8 C-3 3.73173127 -2.62386487 3.06117568 0 0 Z " fill="#B49A7D" transform="translate(51,71)"/>
<path d="M0 0 C0.66 0.33 1.32 0.66 2 1 C-1.17320782 4.53586014 -3.16743695 6.58578031 -8 7 C-5.4837822 4.39391727 -2.94865641 2.10618315 0 0 Z " fill="#C4B295" transform="translate(88,38)"/>
<path d="M0 0 C2 2 2 2 2.1953125 5.2578125 C2.17210937 6.53398437 2.14890625 7.81015625 2.125 9.125 C2.10695313 10.40632812 2.08890625 11.68765625 2.0703125 13.0078125 C2.04710937 13.99523437 2.02390625 14.98265625 2 16 C1.67 16 1.34 16 1 16 C0.83125293 14.08351538 0.66508357 12.16680367 0.5 10.25 C0.4071875 9.18265625 0.314375 8.1153125 0.21875 7.015625 C0.04947717 4.6820782 0 2.33967818 0 0 Z " fill="#C7AC8A" transform="translate(520,173)"/>
<path d="M0 0 C3.66881155 0.70554068 6.70450534 2.27735506 10 4 C10 4.33 10 4.66 10 5 C8.35 5 6.7 5 5 5 C5 4.34 5 3.68 5 3 C3.35 2.67 1.7 2.34 0 2 C0 1.34 0 0.68 0 0 Z " fill="#E0D3BE" transform="translate(378,43)"/>
<path d="M0 0 C1.65 0 3.3 0 5 0 C5.33 1.65 5.66 3.3 6 5 C4.02 4.34 2.04 3.68 0 3 C0 2.01 0 1.02 0 0 Z " fill="#9E7C63" transform="translate(167,439)"/>
<path d="M0 0 C-1.26607607 0.53229326 -2.53810412 1.05044544 -3.8125 1.5625 C-4.52019531 1.85253906 -5.22789062 2.14257812 -5.95703125 2.44140625 C-8 3 -8 3 -11 2 C-10.67 1.34 -10.34 0.68 -10 0 C-6.18015204 -0.77811718 -3.73159669 -1.24386556 0 0 Z " fill="#8F8064" transform="translate(483,217)"/>
<path d="M0 0 C1.32 0 2.64 0 4 0 C4 0.66 4 1.32 4 2 C4.99 2.33 5.98 2.66 7 3 C7 4.32 7 5.64 7 7 C6.34 7 5.68 7 5 7 C3.96210419 5.35666496 2.96432076 3.68756133 2 2 C1.34 1.34 0.68 0.68 0 0 Z " fill="#CAAB80" transform="translate(186,202)"/>
<path d="M0 0 C-5.17578125 3.22265625 -5.17578125 3.22265625 -7 4 C-7.99 3.67 -8.98 3.34 -10 3 C-9.67 2.01 -9.34 1.02 -9 0 C-2.25 -1.125 -2.25 -1.125 0 0 Z " fill="#A37B56" transform="translate(510,205)"/>
<path d="M0 0 C0.99 0.33 1.98 0.66 3 1 C2.34 2.65 1.68 4.3 1 6 C-1.475 5.01 -1.475 5.01 -4 4 C-4 3.34 -4 2.68 -4 2 C-2.68 2 -1.36 2 0 2 C0 1.34 0 0.68 0 0 Z " fill="#C79F66" transform="translate(308,200)"/>
<path d="M0 0 C0.99 0.33 1.98 0.66 3 1 C3 1.66 3 2.32 3 3 C2.01 3 1.02 3 0 3 C0 2.01 0 1.02 0 0 Z M3 0 C5.475 0.495 5.475 0.495 8 1 C7.67 1.99 7.34 2.98 7 4 C6.34 4 5.68 4 5 4 C4.34 2.68 3.68 1.36 3 0 Z " fill="#CCA573" transform="translate(368,44)"/>
<path d="M0 0 C2.50298434 2.93828597 3.46930939 5.17902761 4 9 C2.68 8.67 1.36 8.34 0 8 C0 5.36 0 2.72 0 0 Z " fill="#E2D1B7" transform="translate(242,295)"/>
<path d="M0 0 C1.76462683 3.08809695 2 4.23312136 2 8 C1.01 8 0.02 8 -1 8 C-1.04241723 5.66705225 -1.04092937 3.33297433 -1 1 C-0.67 0.67 -0.34 0.34 0 0 Z " fill="#C8A66E" transform="translate(217,255)"/>
<path d="M0 0 C1.65 1.65 3.3 3.3 5 5 C3.68 5.33 2.36 5.66 1 6 C-0.0625 4.125 -0.0625 4.125 -1 2 C-0.67 1.34 -0.34 0.68 0 0 Z " fill="#DBCAAF" transform="translate(491,129)"/>
<path d="M0 0 C0.99 0.33 1.98 0.66 3 1 C2.67 1.66 2.34 2.32 2 3 C1.34 3 0.68 3 0 3 C-0.33 3.99 -0.66 4.98 -1 6 C-1.66 4.68 -2.32 3.36 -3 2 C-2.01 1.34 -1.02 0.68 0 0 Z " fill="#C9A06D" transform="translate(259,7)"/>
<path d="M0 0 C0.66 0 1.32 0 2 0 C2 1.65 2 3.3 2 5 C1.01 5.33 0.02 5.66 -1 6 C-1.33 4.68 -1.66 3.36 -2 2 C-1.34 2 -0.68 2 0 2 C0 1.34 0 0.68 0 0 Z " fill="#CBA876" transform="translate(179,186)"/>
<path d="M0 0 C2.3125 -0.25 2.3125 -0.25 5 0 C6.8125 2 6.8125 2 8 4 C5.64828869 3.40138258 3.3140622 2.73075648 1 2 C0.67 1.34 0.34 0.68 0 0 Z " fill="#D3BE9B" transform="translate(483,125)"/>
<path d="M0 0 C1.98 1.65 3.96 3.3 6 5 C5.01 5.33 4.02 5.66 3 6 C2.01 5.34 1.02 4.68 0 4 C0 2.68 0 1.36 0 0 Z " fill="#DCC4A9" transform="translate(476,113)"/>
<path d="M0 0 C2.88437779 1.29299694 4.87219421 2.65941363 7 5 C4.69 4.67 2.38 4.34 0 4 C0 2.68 0 1.36 0 0 Z " fill="#DECBB0" transform="translate(433,77)"/>
<path d="M0 0 C3.45925163 1.2491742 6.14693203 2.67527795 9 5 C4.545 4.01 4.545 4.01 0 3 C0 2.01 0 1.02 0 0 Z " fill="#DFD3BA" transform="translate(391,50)"/>
<path d="M0 0 C0.99 0.33 1.98 0.66 3 1 C3 1.99 3 2.98 3 4 C1.35 4.33 -0.3 4.66 -2 5 C-1.125 1.125 -1.125 1.125 0 0 Z " fill="#D1B892" transform="translate(388,48)"/>
<path d="M0 0 C0.66 0.66 1.32 1.32 2 2 C1.01 3.485 1.01 3.485 0 5 C-0.99 5 -1.98 5 -3 5 C-3.33 4.01 -3.66 3.02 -4 2 C-2.68 1.34 -1.36 0.68 0 0 Z " fill="#C6A06F" transform="translate(224,7)"/>
</svg>
