<?xml version="1.0" encoding="UTF-8"?>
<svg version="1.1" xmlns="http://www.w3.org/2000/svg" width="477" height="492">
<path d="M0 0 C3.906572 3.69540595 5.35555559 7.75992744 6 13 C5.625 16 5.625 16 5 18 C6.31878578 17.23997083 7.6298684 16.46656347 8.9375 15.6875 C9.66839844 15.25824219 10.39929688 14.82898438 11.15234375 14.38671875 C13.29977412 13.04889746 13.29977412 13.04889746 14 10 C16.75 7.75 16.75 7.75 20 6 C21.175625 6.2475 21.175625 6.2475 22.375 6.5 C25.53765925 7.10241129 26.153281 6.5492862 28.875 5 C31.94932665 3.3325686 33.02281258 3 36.6875 3 C40.46923059 4.14165452 42.31717316 5.09360426 45 8 C49.62500387 16.77155906 48.98398422 26.36532753 46.4375 35.75 C43.84551942 43.27129103 40.09523788 49.60236723 33 53.5625 C29.23951204 55.1481603 26.08807701 55.5399347 22 55 C19.0625 53.5 19.0625 53.5 17 52 C17.020625 52.804375 17.04125 53.60875 17.0625 54.4375 C17 57 17 57 16 58 C15.5075675 60.76682066 15.06794915 63.52508689 14.66015625 66.3046875 C14.39926952 68.01955879 14.13819596 69.73440167 13.87695312 71.44921875 C13.46831285 74.16349442 13.06204238 76.87808608 12.65942383 79.59326172 C12.27032454 82.20643066 11.87204343 84.81807409 11.47265625 87.4296875 C11.3548732 88.2422702 11.23709015 89.05485291 11.11573792 89.89205933 C10.55266728 93.54472051 10.07885116 95.88172325 8 99 C5.03 98.505 5.03 98.505 2 98 C0.97358363 94.9207509 1.00644761 93.90807986 1.55859375 90.83203125 C1.76645508 89.61483398 1.76645508 89.61483398 1.97851562 88.37304688 C2.20571289 87.10557617 2.20571289 87.10557617 2.4375 85.8125 C3.286334 81.06421895 4.09904315 76.47306905 4.03515625 71.63671875 C4.00555432 68.57456327 4.23550365 66.85362152 5 64 C5.87628507 59.6331794 6.68315656 55.25328084 7.5 50.875 C7.72558594 49.6890625 7.95117188 48.503125 8.18359375 47.28125 C9.44248941 40.53237743 10.47286265 33.84688481 11 27 C10.34 26.67 9.68 26.34 9 26 C7.65812182 26.6492959 6.32520503 27.31731862 5 28 C4.01 28 3.02 28 2 28 C1.67 28.66 1.34 29.32 1 30 C0.54625 30.598125 0.0925 31.19625 -0.375 31.8125 C-2.09433198 34.12698536 -3.52556988 36.52295739 -5 39 C-10.7680975 48.12363618 -18.7228001 58.88299639 -29.4375 62 C-34.28576215 62 -36.1447312 60.93000429 -40 58 C-40.9375 55.8125 -40.9375 55.8125 -41 53 C-41.103125 51.741875 -41.20625 50.48375 -41.3125 49.1875 C-41.09875899 36.29891691 -35.8759034 24.22349093 -30 13 C-29.67523682 12.37810791 -29.35047363 11.75621582 -29.01586914 11.11547852 C-27.20514247 7.77753823 -25.62158036 5.17809702 -22.4375 3.0625 C-21.85871094 2.66160156 -21.27992188 2.26070313 -20.68359375 1.84765625 C-19 1 -19 1 -16 1 C-16 0.34 -16 -0.32 -16 -1 C-9.76283431 -2.96590937 -5.87341093 -3.57011253 0 0 Z M-13.125 7.75 C-13.82882813 8.26046875 -14.53265625 8.7709375 -15.2578125 9.296875 C-17.23346342 11.22822881 -17.6549839 12.29377997 -18 15 C-18.00635246 17.63537508 -18.00635246 17.63537508 -17 20 C-13.14603706 22.38038888 -9.4297131 22.17371424 -5 22 C-4.63355422 20.44033408 -4.28239138 18.87707349 -3.9375 17.3125 C-3.74027344 16.44238281 -3.54304688 15.57226562 -3.33984375 14.67578125 C-2.97368231 11.792786 -3.17202092 9.7772784 -4 7 C-4.66 6.34 -5.32 5.68 -6 5 C-9.51700839 5 -10.36436147 5.69225467 -13.125 7.75 Z M28 15 C22.14697012 22.52945325 18 32.41321775 18 42 C18.99 42 19.98 42 21 42 C21.66 43.65 22.32 45.3 23 47 C26.83590422 47.44603537 28.46515916 47.41743676 31.5625 45 C38.88143178 35.99208397 40.94552863 28.67727858 40 17 C39.24640601 14.62968401 38.38927796 13.08391694 37 11 C33.02059185 11 30.8306448 12.36126332 28 15 Z M-26 22 C-30.29960491 32.61772663 -33.36468815 41.51232323 -33 53 C-31.27135508 53.88582982 -31.27135508 53.88582982 -29 54 C-26.36883976 52.31460604 -26.36883976 52.31460604 -23.875 49.875 C-23.00617188 49.08867187 -22.13734375 48.30234375 -21.2421875 47.4921875 C-19.02550747 45.02835151 -17.9919973 43.13203642 -17 40 C-16.34 40 -15.68 40 -15 40 C-11.80439959 35.93426439 -11.80439959 35.93426439 -11 31 C-10.34 30.67 -9.68 30.34 -9 30 C-10.010625 29.938125 -11.02125 29.87625 -12.0625 29.8125 C-16.52489928 29.19448951 -19.70365054 26.98906264 -23 24 C-23.33 23.34 -23.66 22.68 -24 22 C-24.66 22 -25.32 22 -26 22 Z " fill="#010101" transform="translate(217,392)"/>
<path d="M0 0 C2.52355548 0.99614032 3.73045679 1.79959382 5.375 3.9375 C8.80967 14.24150999 4.67927678 24.54635066 0.375 33.9375 C-0.89963201 36.48676402 -2.05917043 36.80551636 -4.625 37.9375 C-6.11 38.4325 -6.11 38.4325 -7.625 38.9375 C-7.295 39.9275 -6.965 40.9175 -6.625 41.9375 C-2.37013247 43.07904982 0.49797765 43.03592515 4.50390625 41.08203125 C9.21547658 38.20000598 13.34110208 34.96221675 15.875 30 C16.49089823 26.22762332 16.50674079 22.75798303 16.375 18.9375 C16.705 18.9375 17.035 18.9375 17.375 18.9375 C17.643125 17.65875 17.91125 16.38 18.1875 15.0625 C18.94690099 11.44074145 19.07577803 11.13698132 22.375 8.9375 C24.375 9 24.375 9 26.375 9.9375 C28.67626851 12.39747668 29.3875224 14.11853512 29.3359375 17.4921875 C29.08819552 19.99084232 28.77446449 22.45889505 28.375 24.9375 C27.715 24.9375 27.055 24.9375 26.375 24.9375 C25.715 28.8975 25.055 32.8575 24.375 36.9375 C25.15875 35.308125 25.9425 33.67875 26.75 32 C29.125 27.0625 29.125 27.0625 31.375 25.9375 C31.643125 25.091875 31.91125 24.24625 32.1875 23.375 C34.09526577 17.85252013 37.01990176 11.78239594 42.375 8.9375 C44.8125 7.9375 44.8125 7.9375 47.375 7.9375 C50.04296875 10.03125 50.04296875 10.03125 52.375 12.9375 C52.6796875 15.96875 52.6796875 15.96875 52.25 19.4375 C52.11464844 20.73816406 51.97929687 22.03882813 51.83984375 23.37890625 C51.7610498 24.09578613 51.68225586 24.81266602 51.60107422 25.55126953 C51.1655318 30.14845269 51.0101532 34.7625712 50.8125 39.375 C50.7282283 41.20704802 50.64362246 43.03908071 50.55859375 44.87109375 C50.49719081 46.22655323 50.43590952 47.58201826 50.375 48.9375 C51.16132813 48.74929688 51.94765625 48.56109375 52.7578125 48.3671875 C55.375 47.9375 55.375 47.9375 57.25 49.0625 C58.375 50.9375 58.375 50.9375 58.0625 53.625 C57.835625 54.388125 57.60875 55.15125 57.375 55.9375 C54.25 57.1875 54.25 57.1875 50.375 57.9375 C47.125 56.25 47.125 56.25 44.375 53.9375 C43.82481201 53.53168701 43.27462402 53.12587402 42.70776367 52.70776367 C40.64510103 49.96800057 41.13885472 47.67179709 41.30078125 44.30078125 C41.35556641 43.00205078 41.41035156 41.70332031 41.46679688 40.36523438 C41.54002964 38.99347166 41.6136017 37.62172702 41.6875 36.25 C41.75077162 34.86660079 41.81263728 33.48313651 41.87304688 32.09960938 C42.0265223 28.7113442 42.19441114 25.32441079 42.375 21.9375 C40.91548881 24.52017413 39.45735119 27.10360741 38 29.6875 C37.5875 30.41710937 37.175 31.14671875 36.75 31.8984375 C36.35039062 32.60742188 35.95078125 33.31640625 35.5390625 34.046875 C35.17248535 34.69624023 34.8059082 35.34560547 34.42822266 36.01464844 C32.70204299 39.16610672 31.23119124 42.29102986 29.875 45.625 C28.375 48.9375 28.375 48.9375 26.375 49.9375 C26.08625 50.72125 25.7975 51.505 25.5 52.3125 C24.19506621 55.35734551 23.37379393 56.52140286 20.375 57.9375 C17.125 57.125 17.125 57.125 14.375 55.9375 C14.045 52.9675 13.715 49.9975 13.375 46.9375 C12.715 46.9375 12.055 46.9375 11.375 46.9375 C10.715 47.5975 10.055 48.2575 9.375 48.9375 C3.35215732 51.37798272 -2.166733 52.29629261 -8.625 51.9375 C-8.625 51.2775 -8.625 50.6175 -8.625 49.9375 C-9.615 49.9375 -10.605 49.9375 -11.625 49.9375 C-15.80311954 46.56286498 -16.85587598 41.08608058 -17.625 35.9375 C-17.52421933 32.72965805 -17.01519467 29.65314404 -16.4375 26.5 C-16.24704102 25.30793945 -16.24704102 25.30793945 -16.05273438 24.09179688 C-15.1022372 18.50250967 -13.55778215 13.2628046 -11.625 7.9375 C-10.965 7.9375 -10.305 7.9375 -9.625 7.9375 C-9.2846875 7.07125 -9.2846875 7.07125 -8.9375 6.1875 C-6.7882247 2.50302806 -4.435751 -0.10561312 0 0 Z M-2.625 10.9375 C-5.92699356 16.8810884 -7.58018663 22.22869838 -8.625 28.9375 C-7.635 28.6075 -6.645 28.2775 -5.625 27.9375 C-4.63679035 25.90739555 -4.63679035 25.90739555 -4 23.5 C-2.65687251 19.00124502 -2.65687251 19.00124502 -1.625 16.9375 C-1.585008 14.93789988 -1.58153201 12.93702758 -1.625 10.9375 C-1.955 10.9375 -2.285 10.9375 -2.625 10.9375 Z M-9.625 31.9375 C-9.625 33.5875 -9.625 35.2375 -9.625 36.9375 C-8.965 36.9375 -8.305 36.9375 -7.625 36.9375 C-7.955 35.2875 -8.285 33.6375 -8.625 31.9375 C-8.955 31.9375 -9.285 31.9375 -9.625 31.9375 Z " fill="#010101" transform="translate(289.625,396.0625)"/>
<path d="M0 0 C1.9375 0.75 1.9375 0.75 4 2 C5.13726305 5.09320174 4.99753597 7.71238487 4.66015625 10.95703125 C4.5199707 12.37918945 4.5199707 12.37918945 4.37695312 13.83007812 C4.27318359 14.81427734 4.16941406 15.79847656 4.0625 16.8125 C3.23017954 24.42696943 3.23017954 24.42696943 2.99609375 32.07421875 C3 35 3 35 2 37 C6.16793982 35.73331734 10.33410999 34.46090642 14.5 33.1875 C15.67304688 32.83107422 16.84609375 32.47464844 18.0546875 32.10742188 C25.36808421 29.87125977 25.36808421 29.87125977 32.5546875 27.265625 C36.9249928 25.66020673 40.41836542 25.24347778 45 26 C49.84896096 28.37873556 52.68972057 31.12274342 55 36 C55.61400405 40.32898652 55.87037719 44.63171136 56 49 C55.34 49 54.68 49 54 49 C53.9071875 50.4540625 53.9071875 50.4540625 53.8125 51.9375 C52.31064086 62.02431073 44.47641503 69.835893 37.3125 76.5 C33.16887677 79.18775561 28.85849044 79.41348855 24 79 C21.625 77.625 21.625 77.625 20 76 C20 75.34 20 74.68 20 74 C19.01 73.505 19.01 73.505 18 73 C15.78572565 65.25003978 19.77027467 57.57452046 22.3203125 50.25390625 C23.3038568 47.36767208 24 45.07311085 24 42 C23.67 41.34 23.34 40.68 23 40 C21.83082031 40.34933594 20.66164063 40.69867188 19.45703125 41.05859375 C17.90888862 41.5183452 16.36070961 41.97797417 14.8125 42.4375 C14.04357422 42.66759766 13.27464844 42.89769531 12.48242188 43.13476562 C8.67474859 44.26235986 4.91848238 45.3168177 1 46 C0.63421676 49.08207081 0.28442175 52.16575377 -0.0625 55.25 C-0.16626953 56.12269531 -0.27003906 56.99539063 -0.37695312 57.89453125 C-0.51713867 59.16103516 -0.51713867 59.16103516 -0.66015625 60.453125 C-0.74918213 61.22817383 -0.83820801 62.00322266 -0.92993164 62.80175781 C-1.00258807 65.08119494 -0.61792159 66.81773828 0 69 C0 69.66 0 70.32 0 71 C0.020625 71.804375 0.04125 72.60875 0.0625 73.4375 C0 76 0 76 -1 79 C-3.97 79.495 -3.97 79.495 -7 80 C-10.51369551 75.49807763 -11.54903034 72.70991556 -11 67 C-10.505 66.01 -10.505 66.01 -10 65 C-9.92966231 63.12620395 -9.9156978 61.24998898 -9.9375 59.375 C-9.95103516 57.87066406 -9.95103516 57.87066406 -9.96484375 56.3359375 C-9.97644531 55.56507813 -9.98804688 54.79421875 -10 54 C-9.34 54 -8.68 54 -8 54 C-8 51.69 -8 49.38 -8 47 C-10.97 46.67 -13.94 46.34 -17 46 C-17.66 44.02 -18.32 42.04 -19 40 C-19.66 40 -20.32 40 -21 40 C-19.90282539 36.70847618 -18.49152444 33.49152444 -16 31 C-14.33382885 30.95936168 -12.66611905 30.957279 -11 31 C-9.875 32.75 -9.875 32.75 -9 35 C-9.875 37.25 -9.875 37.25 -11 39 C-9.02 38.505 -9.02 38.505 -7 38 C-7.020625 37.05125 -7.04125 36.1025 -7.0625 35.125 C-7 32 -7 32 -6 30 C-5.81515724 27.7320087 -5.67718419 25.4601194 -5.5625 23.1875 C-4.65822207 7.99009432 -4.65822207 7.99009432 -3 2 C-2.01 1.34 -1.02 0.68 0 0 Z M37.15625 36.09765625 C31.07265337 46.98786814 26.32775897 58.33658514 26 71 C30.5076467 70.46968862 33.41954788 68.74778884 37 66 C37 65.34 37 64.68 37 64 C37.99 63.67 38.98 63.34 40 63 C45.80107448 55.78738811 47.2149842 48.77596599 47.36328125 39.70703125 C47.19828191 37.01533183 47.19828191 37.01533183 45.79296875 35.13671875 C42.31132101 32.92939959 39.90565629 32.96962409 37.15625 36.09765625 Z " fill="#010101" transform="translate(419,256)"/>
<path d="M0 0 C1.47339844 0.53560547 1.47339844 0.53560547 2.9765625 1.08203125 C5.375 2.1875 5.375 2.1875 6.375 4.1875 C8.14363233 4.72377598 8.14363233 4.72377598 10.28515625 5.046875 C15.78271076 6.16443206 20.68955461 8.18981004 25.8125 10.4375 C27.20227051 11.04029785 27.20227051 11.04029785 28.62011719 11.65527344 C34.85679013 14.4048691 40.65436157 17.48086911 46.375 21.1875 C49.35578831 22.88952112 52.36223489 24.54285044 55.375 26.1875 C55.375 26.8475 55.375 27.5075 55.375 28.1875 C55.91898437 28.414375 56.46296875 28.64125 57.0234375 28.875 C60.07361982 30.57742734 62.4719786 32.81064678 65 35.1875 C65.54760986 35.69716309 66.09521973 36.20682617 66.65942383 36.73193359 C74.1864608 43.80219015 81.43569474 51.16234747 88.7019043 58.49853516 C89.92311206 59.73132594 91.14798706 60.96048706 92.375 62.1875 C93.28040143 63.35982901 94.16901209 64.54519124 95.046875 65.73828125 C97.30336011 68.77411738 99.60315295 71.76638589 101.953125 74.73046875 C102.55640625 75.49423828 103.1596875 76.25800781 103.78125 77.04492188 C105.02213921 78.6131219 106.26701145 80.17817754 107.515625 81.74023438 C108.11375 82.50013672 108.711875 83.26003906 109.328125 84.04296875 C109.86598633 84.71996826 110.40384766 85.39696777 110.95800781 86.09448242 C112.49785083 88.36896109 113.44403194 90.61049282 114.375 93.1875 C115.035 93.1875 115.695 93.1875 116.375 93.1875 C118.37952325 96.85171118 120.37847975 100.51892231 122.375 104.1875 C122.88740234 105.12754883 123.39980469 106.06759766 123.92773438 107.03613281 C134.53699733 126.6177622 143.72253217 146.59719613 149.53515625 168.15234375 C150.2396592 171.07722488 150.2396592 171.07722488 151.375 173.1875 C150.6875 175.75 150.6875 175.75 149.375 178.1875 C146.44583439 179.51034898 145.49677395 179.22809132 142.375 178.1875 C141.55796961 175.49610577 140.92531283 172.93443965 140.375 170.1875 C140.04522101 168.64506911 139.71190641 167.10338977 139.375 165.5625 C139.21257812 164.81484375 139.05015625 164.0671875 138.8828125 163.296875 C138.3505732 160.95409245 138.3505732 160.95409245 137.25 157.8125 C136.375 155.1875 136.375 155.1875 136.375 152.1875 C135.715 151.8575 135.055 151.5275 134.375 151.1875 C133.41210784 148.87947666 132.55527808 146.61199298 131.75 144.25 C131.52054688 143.60353516 131.29109375 142.95707031 131.0546875 142.29101562 C129.375 137.47691127 129.375 137.47691127 129.375 135.1875 C128.715 134.8575 128.055 134.5275 127.375 134.1875 C126.48046875 132.18359375 126.48046875 132.18359375 125.5625 129.625 C124.23793121 126.14242588 122.81215026 123.10234995 120.75 120 C118.41460917 116.47176339 117.31799793 113.30240005 116.375 109.1875 C115.715 109.1875 115.055 109.1875 114.375 109.1875 C113.70345067 107.89836513 113.03791141 106.60609796 112.375 105.3125 C112.00375 104.59320313 111.6325 103.87390625 111.25 103.1328125 C110.375 101.1875 110.375 101.1875 110.375 99.1875 C109.715 99.1875 109.055 99.1875 108.375 99.1875 C108.045 98.1975 107.715 97.2075 107.375 96.1875 C106.715 95.5275 106.055 94.8675 105.375 94.1875 C104.735625 93.218125 104.09625 92.24875 103.4375 91.25 C101.6207321 88.33275621 101.6207321 88.33275621 99.8984375 86.734375 C98.25030688 85.06088852 97.16536175 83.37553488 95.9375 81.375 C93.0300315 76.93344007 89.75279276 72.9066177 86.3125 68.875 C85.805979 68.27647217 85.29945801 67.67794434 84.77758789 67.0612793 C81.87325941 63.69849702 78.90426753 60.91438705 75.375 58.1875 C73.68767723 56.20489574 72.02133943 54.2042658 70.375 52.1875 C68.72508249 50.50425083 67.0563071 48.83939648 65.375 47.1875 C64.09496094 45.92873047 64.09496094 45.92873047 62.7890625 44.64453125 C50.44949306 32.94440728 36.96363404 24.87149971 21.375 18.1875 C20.73030762 17.90922363 20.08561523 17.63094727 19.42138672 17.34423828 C11.61862749 14.01111839 3.76208527 11.204921 -4.43579102 9.01098633 C-8.41675673 7.87262921 -10.55797735 6.8433535 -12.625 3.1875 C-8.19759708 -1.54524105 -6.09837433 -2.27683369 0 0 Z " fill="#010101" transform="translate(36.625,30.8125)"/>
<path d="M0 0 C2.375 -0.125 2.375 -0.125 5 0 C7.71534532 2.71534532 7.42575277 4.52360156 7.6875 8.3125 C7.77386719 9.44300781 7.86023438 10.57351562 7.94921875 11.73828125 C7.99613339 14.75164473 7.70162976 17.0886921 7 20 C5.00708039 29.87574174 3.3434097 39.79260872 1.8125 49.75 C1.63356201 50.8735791 1.45462402 51.9971582 1.27026367 53.15478516 C0.16683298 60.49198056 -0.21886338 67.5838019 0 75 C3.10892664 75.34064596 3.10892664 75.34064596 5.0859375 73.05859375 C5.84132812 72.19363281 6.59671875 71.32867187 7.375 70.4375 C8.17164063 69.53128906 8.96828125 68.62507813 9.7890625 67.69140625 C11.60881726 65.47619242 13.20016788 63.27872052 14.75 60.875 C17 58 17 58 19.8125 57.5625 C20.534375 57.706875 21.25625 57.85125 22 58 C22 57.34 22 56.68 22 56 C22.66 56 23.32 56 24 56 C24.04898438 55.27296875 24.09796875 54.5459375 24.1484375 53.796875 C25.71316193 32.75402916 25.71316193 32.75402916 31 25 C33.375 25.1875 33.375 25.1875 36 26 C37.5 28.0625 37.5 28.0625 38 31 C37.27142639 32.90180676 36.54034078 34.80271596 35.79248047 36.69702148 C34.41413401 40.70254894 33.89244984 44.81675526 33.3125 49 C33.18294922 49.85078125 33.05339844 50.7015625 32.91992188 51.578125 C31.15316923 61.63732908 31.15316923 61.63732908 34 71 C32.35 72.65 30.7 74.3 29 76 C26.03 75.01 26.03 75.01 23 74 C22.67 71.69 22.34 69.38 22 67 C20.29115995 68.62339805 18.62553283 70.29319053 17 72 C17 72.66 17 73.32 17 74 C15.390625 75.62109375 15.390625 75.62109375 13.25 77.4375 C12.55390625 78.03433594 11.8578125 78.63117188 11.140625 79.24609375 C10.43421875 79.82488281 9.7278125 80.40367187 9 81 C8.33226562 81.54785156 7.66453125 82.09570312 6.9765625 82.66015625 C4.9339543 84.04477011 3.54570674 84.61113145 1.125 85 C0.48820313 85.12375 -0.14859375 85.2475 -0.8046875 85.375 C-4.37595435 84.76496153 -6.79412763 82.7582158 -9 80 C-9.69140625 76.78515625 -9.69140625 76.78515625 -9.5625 73.0625 C-9.54316406 72.38517822 -9.52382812 71.70785645 -9.50390625 71.01000977 C-9.19682762 63.83764465 -8.15688039 56.71670216 -7.06860352 49.62719727 C-6.31115599 44.67934736 -5.94936497 40.01919689 -6 35 C-5.5625 32.828125 -5.5625 32.828125 -5 31 C-3.10150851 23.10939476 -1.59103056 16.10157426 -3 8 C-2.5625 4.625 -2.5625 4.625 -2 2 C-1.34 2 -0.68 2 0 2 C0 1.34 0 0.68 0 0 Z M22 64 C23 66 23 66 23 66 Z " fill="#010101" transform="translate(206,244)"/>
<path d="M0 0 C4.875 1.875 4.875 1.875 6 3 C6.35925413 9.55869071 5.37944847 16.00240983 4.5625 22.5 C4.42779297 23.60214844 4.29308594 24.70429688 4.15429688 25.83984375 C3.49041299 31.23511474 2.79579723 36.62257405 2 42 C6.36494112 40.1095153 9.29298252 37.03822725 12.68359375 33.77734375 C15.22430839 31.82789154 16.81467483 31.17548536 20 31 C22 33 22 33 22.1875 35.6875 C20.58879163 40.14705494 17.93707978 41.72772118 14.12890625 44.38671875 C11.76800426 45.99252235 11.76800426 45.99252235 10 49 C8.36504293 50.05104383 6.70116376 51.05988318 5 52 C5.57234375 52.42152344 6.1446875 52.84304688 6.734375 53.27734375 C8.9690594 54.97647447 11.11897454 56.73534298 13.25 58.5625 C13.95640625 59.16191406 14.6628125 59.76132812 15.390625 60.37890625 C17 62 17 62 17 64 C17.66 64 18.32 64 19 64 C19.53625 65.010625 20.0725 66.02125 20.625 67.0625 C24.33359603 73.52642618 29.17340327 78.42195971 35 83 C34.34 84.65 33.68 86.3 33 88 C29.65747276 88.07427838 27.1964086 88.06546953 24 87 C22.125 84.875 22.125 84.875 20 82 C19.32324219 81.10087891 19.32324219 81.10087891 18.6328125 80.18359375 C15 75.26800847 15 75.26800847 15 73 C14.34 73 13.68 73 13 73 C12.443125 71.9275 11.88625 70.855 11.3125 69.75 C9.3888343 66.35083445 7.23430162 64.24604279 4 62 C3.896875 62.680625 3.79375 63.36125 3.6875 64.0625 C2.84306329 67.67054778 1.60760999 70.65617122 0 74 C-0.99 74.495 -0.99 74.495 -2 75 C-2.68132451 76.66072849 -3.34742127 78.327767 -4 80 C-4.99 80.99 -4.99 80.99 -6 82 C-8.5 81.9375 -8.5 81.9375 -11 81 C-13.03868151 77.20616222 -13.13376663 74.41026304 -12.625 70.1875 C-12.51414062 69.21167969 -12.40328125 68.23585938 -12.2890625 67.23046875 C-12.19367188 66.49441406 -12.09828125 65.75835937 -12 65 C-11.34 65 -10.68 65 -10 65 C-11.61268692 62.28775382 -13.24901874 59.62647188 -15 57 C-14.34 57 -13.68 57 -13 57 C-12.71125 56.360625 -12.4225 55.72125 -12.125 55.0625 C-11 53 -11 53 -9 52 C-8.35455594 49.55153105 -8.35455594 49.55153105 -7.96484375 46.55859375 C-7.79581543 45.42446045 -7.62678711 44.29032715 -7.45263672 43.12182617 C-7.2826416 41.90599854 -7.11264648 40.6901709 -6.9375 39.4375 C-6.67090576 37.597323 -6.67090576 37.597323 -6.39892578 35.7199707 C-5.29455998 27.8530494 -4.50051008 20.07552532 -4.2734375 12.13671875 C-3.86144347 7.41055861 -2.62503546 3.93755319 0 0 Z " fill="#010101" transform="translate(298,241)"/>
<path d="M0 0 C4.474976 0.28412546 8.60276134 1.14911399 12.9375 2.25 C12.9375 2.91 12.9375 3.57 12.9375 4.25 C14.36835937 4.42208984 14.36835937 4.42208984 15.828125 4.59765625 C20.53892361 5.27113474 25.08806442 6.4874959 29.6875 7.6875 C35.18830571 9.10140598 40.63916859 10.4619718 46.25 11.375 C50.57134124 12.10996827 54.10267923 13.08249261 57.9375 15.25 C58.9375 17.3125 58.9375 17.3125 58.9375 19.25 C57.9375 21.25 57.9375 21.25 56.27001953 21.95361328 C53.13504419 22.35196581 50.69097488 21.72320031 47.6171875 20.9921875 C46.36695801 20.69836182 45.11672852 20.40453613 43.82861328 20.10180664 C42.48980298 19.77664002 41.1511003 19.45103001 39.8125 19.125 C38.45436226 18.80094016 37.09612618 18.47729224 35.73779297 18.15405273 C25.73726788 15.75783615 15.80373028 13.15104603 5.9375 10.25 C7.87280952 17.81829975 7.87280952 17.81829975 10.4375 25.1875 C15.72961174 38.98682361 15.72961174 38.98682361 13.625 45 C13.068125 45.7425 12.51125 46.485 11.9375 47.25 C9.9575 46.92 7.9775 46.59 5.9375 46.25 C4.18516037 40.62791036 3.33164853 35.19970053 2.7265625 29.328125 C2.5283935 27.62660494 2.24023372 25.93605864 1.9375 24.25 C1.2775 23.92 0.6175 23.59 -0.0625 23.25 C0.2675 22.59 0.5975 21.93 0.9375 21.25 C0.2775 20.92 -0.3825 20.59 -1.0625 20.25 C-2.0625 17.625 -2.0625 17.625 -3.0625 14.25 C-3.43375 13.074375 -3.805 11.89875 -4.1875 10.6875 C-4.9612451 7.64778712 -5.41691485 5.35112995 -5.0625 2.25 C-3.0625 0.25 -3.0625 0.25 0 0 Z " fill="#010101" transform="translate(9.0625,3.75)"/>
<path d="M0 0 C0.33 0.66 0.66 1.32 1 2 C1.99 2 2.98 2 4 2 C6.57025846 6.2837641 8.58707905 10.1725201 10 15 C8.68 16.32 7.36 17.64 6 19 C1.125 16.375 1.125 16.375 0 13 C0 12.01 0 11.02 0 10 C-3.16326376 12.90882733 -5.21466613 15.78479699 -7.25 19.5625 C-7.77078125 20.51253906 -8.2915625 21.46257812 -8.828125 22.44140625 C-10.20820786 24.98555468 -10.20820786 24.98555468 -10 28 C-10.66 28 -11.32 28 -12 28 C-12.33 30.97 -12.66 33.94 -13 37 C-13.66 37 -14.32 37 -15 37 C-15 40.96 -15 44.92 -15 49 C-13.741875 48.690625 -12.48375 48.38125 -11.1875 48.0625 C-10.47980469 47.88847656 -9.77210938 47.71445312 -9.04296875 47.53515625 C-7.34316798 47.08989295 -5.66698046 46.55566015 -4 46 C-4 45.34 -4 44.68 -4 44 C-2.00715862 42.6559907 -0.00580329 41.32458708 2 40 C2.86625 39.113125 3.7325 38.22625 4.625 37.3125 C7.9178744 34.10628019 7.9178744 34.10628019 11 34 C11.66 34.66 12.32 35.32 13 36 C11.63418983 41.59982171 8.87290505 44.93000054 5 49 C4.30583984 49.76183594 4.30583984 49.76183594 3.59765625 50.5390625 C-0.9289825 54.67833607 -6.80160699 57.32478811 -12.9375 57.375 C-16.37875105 57.21261792 -19.09074126 56.90925874 -21.625 54.375 C-24.65346568 49.14401382 -24.92128487 41.6851395 -23.46875 35.875 C-21.72180552 30.40630423 -19.4380542 25.19069603 -17 20 C-16.63003906 19.17242187 -16.26007813 18.34484375 -15.87890625 17.4921875 C-12.70711841 10.69104242 -8.94187982 4.0128748 -2.0625 0.5 C-1.381875 0.335 -0.70125 0.17 0 0 Z " fill="#020202" transform="translate(272,266)"/>
<path d="M0 0 C0.66 0.5775 1.32 1.155 2 1.75 C1.67 3.73 1.34 5.71 1 7.75 C-0.65 7.75 -2.3 7.75 -4 7.75 C-4.33 8.41 -4.66 9.07 -5 9.75 C-7.0625 10.375 -7.0625 10.375 -9 10.75 C-9 11.41 -9 12.07 -9 12.75 C-9.70125 13.12125 -10.4025 13.4925 -11.125 13.875 C-19.05309493 19.0454967 -24.06021698 29.40907378 -26.375 38.375 C-27.1951098 42.77235066 -26.99526842 46.38613076 -26 50.75 C-21.79345643 53.55436238 -17.7789636 53.27072358 -12.95703125 52.3671875 C-10.8424333 51.85076388 -10.8424333 51.85076388 -8 50.75 C-7.67 50.09 -7.34 49.43 -7 48.75 C-5.15234375 47.8984375 -5.15234375 47.8984375 -2.9375 47.125 C-1.83728516 46.73441406 -1.83728516 46.73441406 -0.71484375 46.3359375 C-0.14894531 46.14257812 0.41695312 45.94921875 1 45.75 C1.99 47.4 2.98 49.05 4 50.75 C-1.91312026 57.00101285 -8.45999353 60.95214339 -17.11328125 62.0078125 C-21.76467799 62.13425824 -25.64577461 61.20140846 -30 59.75 C-30 59.09 -30 58.43 -30 57.75 C-30.66 57.75 -31.32 57.75 -32 57.75 C-32.433125 56.7909375 -32.433125 56.7909375 -32.875 55.8125 C-33.82823451 53.59793921 -33.82823451 53.59793921 -36 52.75 C-36.625 50.1875 -36.625 50.1875 -37 47.75 C-36.67 47.75 -36.34 47.75 -36 47.75 C-35.9484375 46.8528125 -35.896875 45.955625 -35.84375 45.03125 C-34.85929853 34.20228388 -31.35366599 26.14276845 -26 16.75 C-25.53851563 15.86699219 -25.07703125 14.98398437 -24.6015625 14.07421875 C-20.49984822 8.12173095 -7.463368 -3.10973667 0 0 Z " fill="#010101" transform="translate(184,255.25)"/>
<path d="M0 0 C0.33 0.66 0.66 1.32 1 2 C1.66 2 2.32 2 3 2 C4.0625 3.875 4.0625 3.875 5 6 C4.67 6.66 4.34 7.32 4 8 C3.64525808 10.40717729 3.33652668 12.80216021 3.0625 15.21875 C2.93527557 16.30835274 2.93527557 16.30835274 2.80548096 17.41996765 C2.5321876 19.77945577 2.26554887 22.13962855 2 24.5 C1.90940308 25.29467682 1.81880615 26.08935364 1.72546387 26.90811157 C0.43590986 38.25823142 -0.67028021 49.57520926 -1 61 C-3.31 61 -5.62 61 -8 61 C-10.54677703 56.22479306 -10.42040613 51.27951886 -10 46 C-9.505 45.505 -9.505 45.505 -9 45 C-8.77391943 43.68308534 -8.60591897 42.35605532 -8.46484375 41.02734375 C-8.37783203 40.20943359 -8.29082031 39.39152344 -8.20117188 38.54882812 C-8.11416016 37.68708984 -8.02714844 36.82535156 -7.9375 35.9375 C-7.84662109 35.10283203 -7.75574219 34.26816406 -7.66210938 33.40820312 C-7.24884884 29.42163717 -6.95406924 25.51352017 -7.00390625 21.50390625 C-7 18 -7 18 -6 16 C-5.84127994 12.68892313 -5.74593169 9.38044306 -5.671875 6.06640625 C-5 3 -5 3 -2.453125 1.08984375 C-1.64359375 0.73019531 -0.8340625 0.37054688 0 0 Z " fill="#010101" transform="translate(384,384)"/>
<path d="M0 0 C2.10358381 1.54262813 2.84054159 2.68108317 4 5 C4.83869256 12.82779726 2.25064867 18.43908987 -2.26953125 24.78125 C-3.5 26.1875 -3.5 26.1875 -6 28 C-8.8125 27.8125 -8.8125 27.8125 -11 27 C-11.0825 26.2575 -11.165 25.515 -11.25 24.75 C-11.75399671 21.85936743 -11.75399671 21.85936743 -14.125 20.25 C-16.291915 17.649702 -16.30403018 17.01730079 -16.125 13.75 C-15.29845748 8.49492968 -12.63951189 4.78432005 -9 1 C-5.95016004 -0.52491998 -3.3576631 -0.23562548 0 0 Z M-5 8 C-6.485 11.96 -6.485 11.96 -8 16 C-7.01 16.495 -7.01 16.495 -6 17 C-4.20317184 13.19495213 -3.92650209 12.29399165 -5 8 Z " fill="#020202" transform="translate(248,240)"/>
<path d="M0 0 C2.3125 -0.25 2.3125 -0.25 5 0 C6.74609375 1.69921875 6.74609375 1.69921875 8 4 C7.671875 6.47265625 7.671875 6.47265625 6.75 9.0625 C6.45609375 9.91972656 6.1621875 10.77695312 5.859375 11.66015625 C5.57578125 12.43230469 5.2921875 13.20445312 5 14 C4.67 14.99 4.34 15.98 4 17 C3.34 17 2.68 17 2 17 C1.67 17.99 1.34 18.98 1 20 C-2.62326739 21.2077558 -3.64146369 20.54311128 -7 19 C-7 18.01 -7 17.02 -7 16 C-7.66 15.67 -8.32 15.34 -9 15 C-8.67 13.35 -8.34 11.7 -8 10 C-7.34 10 -6.68 10 -6 10 C-6.33 9.01 -6.66 8.02 -7 7 C-5.47005208 5.76302083 -3.94010417 4.52604167 -2.41015625 3.2890625 C-0.86733563 2.0333609 -0.86733563 2.0333609 0 0 Z " fill="#010101" transform="translate(372,458)"/>
<path d="" fill="#000000" transform="translate(0,0)"/>
<path d="" fill="#000000" transform="translate(0,0)"/>
<path d="" fill="#000000" transform="translate(0,0)"/>
<path d="M0 0 C2 1 2 1 2 1 Z " fill="#000000" transform="translate(301,443)"/>
<path d="" fill="#000000" transform="translate(0,0)"/>
<path d="" fill="#000000" transform="translate(0,0)"/>
<path d="" fill="#000000" transform="translate(0,0)"/>
<path d="" fill="#000000" transform="translate(0,0)"/>
<path d="" fill="#000000" transform="translate(0,0)"/>
<path d="" fill="#000000" transform="translate(0,0)"/>
<path d="" fill="#000000" transform="translate(0,0)"/>
<path d="" fill="#000000" transform="translate(0,0)"/>
<path d="" fill="#000000" transform="translate(0,0)"/>
<path d="" fill="#000000" transform="translate(0,0)"/>
<path d="" fill="#000000" transform="translate(0,0)"/>
<path d="" fill="#000000" transform="translate(0,0)"/>
<path d="M0 0 C2 1 2 1 2 1 Z " fill="#000000" transform="translate(25,30)"/>
<path d="" fill="#000000" transform="translate(0,0)"/>
<path d="" fill="#000000" transform="translate(0,0)"/>
<path d="" fill="#000000" transform="translate(0,0)"/>
<path d="" fill="#000000" transform="translate(0,0)"/>
<path d="" fill="#000000" transform="translate(0,0)"/>
<path d="" fill="#000000" transform="translate(0,0)"/>
<path d="" fill="#000000" transform="translate(0,0)"/>
<path d="" fill="#000000" transform="translate(0,0)"/>
<path d="" fill="#000000" transform="translate(0,0)"/>
<path d="" fill="#000000" transform="translate(0,0)"/>
<path d="" fill="#000000" transform="translate(0,0)"/>
<path d="" fill="#000000" transform="translate(0,0)"/>
<path d="" fill="#000000" transform="translate(0,0)"/>
<path d="" fill="#000000" transform="translate(0,0)"/>
<path d="" fill="#000000" transform="translate(0,0)"/>
<path d="" fill="#000000" transform="translate(0,0)"/>
<path d="" fill="#000000" transform="translate(0,0)"/>
<path d="" fill="#000000" transform="translate(0,0)"/>
<path d="" fill="#000000" transform="translate(0,0)"/>
<path d="" fill="#000000" transform="translate(0,0)"/>
<path d="" fill="#000000" transform="translate(0,0)"/>
<path d="" fill="#000000" transform="translate(0,0)"/>
<path d="" fill="#000000" transform="translate(0,0)"/>
<path d="" fill="#000000" transform="translate(0,0)"/>
<path d="" fill="#000000" transform="translate(0,0)"/>
<path d="" fill="#000000" transform="translate(0,0)"/>
<path d="" fill="#000000" transform="translate(0,0)"/>
<path d="" fill="#000000" transform="translate(0,0)"/>
<path d="" fill="#000000" transform="translate(0,0)"/>
<path d="" fill="#000000" transform="translate(0,0)"/>
<path d="" fill="#000000" transform="translate(0,0)"/>
<path d="" fill="#000000" transform="translate(0,0)"/>
<path d="" fill="#000000" transform="translate(0,0)"/>
<path d="" fill="#000000" transform="translate(0,0)"/>
<path d="" fill="#000000" transform="translate(0,0)"/>
<path d="" fill="#000000" transform="translate(0,0)"/>
<path d="" fill="#000000" transform="translate(0,0)"/>
<path d="" fill="#000000" transform="translate(0,0)"/>
<path d="" fill="#000000" transform="translate(0,0)"/>
<path d="" fill="#000000" transform="translate(0,0)"/>
<path d="" fill="#000000" transform="translate(0,0)"/>
<path d="" fill="#000000" transform="translate(0,0)"/>
<path d="" fill="#000000" transform="translate(0,0)"/>
<path d="" fill="#000000" transform="translate(0,0)"/>
<path d="" fill="#000000" transform="translate(0,0)"/>
<path d="" fill="#000000" transform="translate(0,0)"/>
<path d="" fill="#000000" transform="translate(0,0)"/>
<path d="" fill="#000000" transform="translate(0,0)"/>
<path d="" fill="#000000" transform="translate(0,0)"/>
<path d="" fill="#000000" transform="translate(0,0)"/>
<path d="" fill="#000000" transform="translate(0,0)"/>
<path d="" fill="#000000" transform="translate(0,0)"/>
<path d="" fill="#000000" transform="translate(0,0)"/>
<path d="" fill="#000000" transform="translate(0,0)"/>
<path d="" fill="#000000" transform="translate(0,0)"/>
<path d="" fill="#000000" transform="translate(0,0)"/>
<path d="" fill="#000000" transform="translate(0,0)"/>
<path d="" fill="#000000" transform="translate(0,0)"/>
<path d="" fill="#000000" transform="translate(0,0)"/>
<path d="" fill="#000000" transform="translate(0,0)"/>
<path d="" fill="#000000" transform="translate(0,0)"/>
<path d="" fill="#000000" transform="translate(0,0)"/>
<path d="" fill="#000000" transform="translate(0,0)"/>
<path d="" fill="#000000" transform="translate(0,0)"/>
<path d="" fill="#000000" transform="translate(0,0)"/>
<path d="" fill="#000000" transform="translate(0,0)"/>
<path d="" fill="#000000" transform="translate(0,0)"/>
<path d="" fill="#000000" transform="translate(0,0)"/>
<path d="" fill="#000000" transform="translate(0,0)"/>
<path d="" fill="#000000" transform="translate(0,0)"/>
<path d="" fill="#000000" transform="translate(0,0)"/>
<path d="" fill="#000000" transform="translate(0,0)"/>
<path d="" fill="#000000" transform="translate(0,0)"/>
<path d="" fill="#000000" transform="translate(0,0)"/>
<path d="" fill="#000000" transform="translate(0,0)"/>
<path d="" fill="#000000" transform="translate(0,0)"/>
<path d="" fill="#000000" transform="translate(0,0)"/>
<path d="" fill="#000000" transform="translate(0,0)"/>
<path d="" fill="#000000" transform="translate(0,0)"/>
<path d="" fill="#000000" transform="translate(0,0)"/>
<path d="" fill="#000000" transform="translate(0,0)"/>
<path d="" fill="#000000" transform="translate(0,0)"/>
<path d="" fill="#000000" transform="translate(0,0)"/>
<path d="" fill="#000000" transform="translate(0,0)"/>
<path d="" fill="#000000" transform="translate(0,0)"/>
<path d="" fill="#000000" transform="translate(0,0)"/>
<path d="" fill="#000000" transform="translate(0,0)"/>
<path d="" fill="#000000" transform="translate(0,0)"/>
<path d="" fill="#000000" transform="translate(0,0)"/>
<path d="" fill="#000000" transform="translate(0,0)"/>
<path d="" fill="#000000" transform="translate(0,0)"/>
<path d="" fill="#000000" transform="translate(0,0)"/>
<path d="" fill="#000000" transform="translate(0,0)"/>
<path d="" fill="#000000" transform="translate(0,0)"/>
<path d="" fill="#000000" transform="translate(0,0)"/>
<path d="" fill="#000000" transform="translate(0,0)"/>
<path d="" fill="#000000" transform="translate(0,0)"/>
<path d="" fill="#000000" transform="translate(0,0)"/>
<path d="" fill="#000000" transform="translate(0,0)"/>
<path d="" fill="#000000" transform="translate(0,0)"/>
<path d="" fill="#000000" transform="translate(0,0)"/>
<path d="" fill="#000000" transform="translate(0,0)"/>
<path d="" fill="#000000" transform="translate(0,0)"/>
<path d="" fill="#000000" transform="translate(0,0)"/>
<path d="" fill="#000000" transform="translate(0,0)"/>
<path d="" fill="#000000" transform="translate(0,0)"/>
<path d="" fill="#000000" transform="translate(0,0)"/>
<path d="" fill="#000000" transform="translate(0,0)"/>
<path d="" fill="#000000" transform="translate(0,0)"/>
<path d="" fill="#000000" transform="translate(0,0)"/>
<path d="" fill="#000000" transform="translate(0,0)"/>
<path d="" fill="#000000" transform="translate(0,0)"/>
<path d="" fill="#000000" transform="translate(0,0)"/>
<path d="" fill="#000000" transform="translate(0,0)"/>
<path d="" fill="#000000" transform="translate(0,0)"/>
<path d="" fill="#000000" transform="translate(0,0)"/>
<path d="" fill="#000000" transform="translate(0,0)"/>
<path d="" fill="#000000" transform="translate(0,0)"/>
<path d="" fill="#000000" transform="translate(0,0)"/>
<path d="" fill="#000000" transform="translate(0,0)"/>
<path d="" fill="#000000" transform="translate(0,0)"/>
<path d="" fill="#000000" transform="translate(0,0)"/>
<path d="" fill="#000000" transform="translate(0,0)"/>
<path d="" fill="#000000" transform="translate(0,0)"/>
<path d="" fill="#000000" transform="translate(0,0)"/>
<path d="" fill="#000000" transform="translate(0,0)"/>
<path d="" fill="#000000" transform="translate(0,0)"/>
<path d="" fill="#000000" transform="translate(0,0)"/>
<path d="" fill="#000000" transform="translate(0,0)"/>
<path d="" fill="#000000" transform="translate(0,0)"/>
<path d="" fill="#000000" transform="translate(0,0)"/>
<path d="" fill="#000000" transform="translate(0,0)"/>
<path d="" fill="#000000" transform="translate(0,0)"/>
<path d="" fill="#000000" transform="translate(0,0)"/>
<path d="" fill="#000000" transform="translate(0,0)"/>
<path d="" fill="#000000" transform="translate(0,0)"/>
<path d="" fill="#000000" transform="translate(0,0)"/>
<path d="" fill="#000000" transform="translate(0,0)"/>
<path d="" fill="#000000" transform="translate(0,0)"/>
<path d="" fill="#000000" transform="translate(0,0)"/>
<path d="" fill="#000000" transform="translate(0,0)"/>
<path d="" fill="#000000" transform="translate(0,0)"/>
<path d="" fill="#000000" transform="translate(0,0)"/>
<path d="" fill="#000000" transform="translate(0,0)"/>
<path d="" fill="#000000" transform="translate(0,0)"/>
<path d="" fill="#000000" transform="translate(0,0)"/>
</svg>
