<?xml version="1.0" encoding="UTF-8"?>
<svg version="1.1" xmlns="http://www.w3.org/2000/svg" width="864" height="289">
<path d="M0 0 C0.804375 0.144375 1.60875 0.28875 2.4375 0.4375 C4.94976585 4.20589877 4.76329369 5.95439522 4.4375 10.4375 C3.79452659 13.1873534 2.92143224 15.83216176 2 18.5 C0.4317845 23.14314786 -0.89988856 27.55550074 -1.5625 32.4375 C2.31447869 32.87126764 2.31447869 32.87126764 4.18359375 30.94140625 C4.74175781 30.30074219 5.29992187 29.66007812 5.875 29 C8.08374279 26.65854305 9.19536968 25.52897145 12.25 24.375 C14.4375 24.4375 14.4375 24.4375 16.4375 26.4375 C16.875 28.76171875 16.875 28.76171875 16.4375 31.4375 C14.25 33.89453125 14.25 33.89453125 11.4375 36.25 C10.509375 37.04019531 9.58125 37.83039063 8.625 38.64453125 C7.5421875 39.53205078 7.5421875 39.53205078 6.4375 40.4375 C7.489375 40.334375 8.54125 40.23125 9.625 40.125 C13.4375 40.4375 13.4375 40.4375 16.1875 42.4375 C20.70440722 48.46004296 22.10905335 55.69398839 23.625 62.9375 C23.89086914 64.17113281 23.89086914 64.17113281 24.16210938 65.4296875 C24.59265326 67.43113475 25.01585661 69.43415879 25.4375 71.4375 C26.613125 71.128125 26.613125 71.128125 27.8125 70.8125 C28.67875 70.68875 29.545 70.565 30.4375 70.4375 C32.79703094 72.79703094 32.92891413 74.21645617 33.4375 77.4375 C30.9516248 79.82394019 29.45097538 80.43529494 26 81 C22.08605232 80.38200826 20.99044142 79.47559155 18.59936523 76.41430664 C16.32362971 72.54235233 15.58861584 68.23240912 14.6875 63.875 C14.47996094 62.94236328 14.27242188 62.00972656 14.05859375 61.04882812 C13.13202623 56.85536286 12.27495175 52.64958256 11.4375 48.4375 C10.1175 48.4375 8.7975 48.4375 7.4375 48.4375 C7.34984375 49.2521875 7.2621875 50.066875 7.171875 50.90625 C6.26373311 55.27305992 4.60301843 58.93040446 2.6875 62.9375 C2.35234375 63.67097656 2.0171875 64.40445313 1.671875 65.16015625 C-3.55062697 76.21840854 -3.55062697 76.21840854 -9.1875 78.5 C-11.5625 78.4375 -11.5625 78.4375 -13.1953125 77.27734375 C-15.07928751 74.74205166 -14.89497045 73.07137725 -14.8125 69.9375 C-14.78542969 68.87789063 -14.75835937 67.81828125 -14.73046875 66.7265625 C-14.05059524 53.41369048 -14.05059524 53.41369048 -12.5625 50.4375 C-13.8825 50.4375 -15.2025 50.4375 -16.5625 50.4375 C-17.5525 49.9425 -17.5525 49.9425 -18.5625 49.4375 C-18.7584375 50.25992188 -18.954375 51.08234375 -19.15625 51.9296875 C-21.59435516 61.03054556 -25.13476243 68.66094625 -33.06640625 74.1796875 C-36.6815016 76.00137874 -39.60950737 76.27139703 -43.5625 75.4375 C-48.23278447 72.11640882 -50.30064327 67.89897364 -51.5625 62.4375 C-52.22162127 56.73198151 -51.30274792 51.44649589 -50.07421875 45.87890625 C-49.34826731 42.4153975 -48.95313135 38.95318216 -48.5625 35.4375 C-47.0775 34.9425 -47.0775 34.9425 -45.5625 34.4375 C-44.7271875 33.509375 -44.7271875 33.509375 -43.875 32.5625 C-39.74176553 28.76439265 -35.44833254 27.4375 -29.875 27.4375 C-25.82698752 28.6595415 -24.18032046 30.1465257 -21.5625 33.4375 C-20.25 36.25 -20.25 36.25 -19.5625 38.4375 C-18.45011221 37.23673071 -17.34800088 36.02643886 -16.25 34.8125 C-15.63511719 34.13960937 -15.02023437 33.46671875 -14.38671875 32.7734375 C-9.35465193 26.3298059 -8.4354471 19.43921477 -7.1015625 11.60546875 C-6.86566406 10.31189453 -6.86566406 10.31189453 -6.625 8.9921875 C-6.42583984 7.82405518 -6.42583984 7.82405518 -6.22265625 6.63232422 C-5.12471393 2.98199083 -3.86045323 0.65910177 0 0 Z M-2.5625 33.4375 C-2.5625 35.0875 -2.5625 36.7375 -2.5625 38.4375 C-1.5725 37.1175 -0.5825 35.7975 0.4375 34.4375 C-0.5525 34.1075 -1.5425 33.7775 -2.5625 33.4375 Z M-36.25 37.625 C-38.56221192 40.43714963 -39.25731346 41.87699035 -39.5625 45.4375 C-34.84650182 46.36220553 -31.88984391 46.66673777 -27.5625 44.4375 C-27.32821687 39.6477679 -27.32821687 39.6477679 -29.5625 35.4375 C-33.62299684 35.0166524 -33.62299684 35.0166524 -36.25 37.625 Z M-12.5625 42.4375 C-13.5885734 43.75087396 -14.58977325 45.08414105 -15.5625 46.4375 C-13.5825 47.4275 -13.5825 47.4275 -11.5625 48.4375 C-11.5625 46.4575 -11.5625 44.4775 -11.5625 42.4375 C-11.8925 42.4375 -12.2225 42.4375 -12.5625 42.4375 Z M-17.5625 46.4375 C-17.8925 47.0975 -18.2225 47.7575 -18.5625 48.4375 C-17.9025 48.4375 -17.2425 48.4375 -16.5625 48.4375 C-16.8925 47.7775 -17.2225 47.1175 -17.5625 46.4375 Z M-43.5625 51.4375 C-43.64410748 53.33260699 -43.70196459 55.22874504 -43.75 57.125 C-43.78480469 58.18074219 -43.81960938 59.23648438 -43.85546875 60.32421875 C-43.52916615 63.79172768 -42.55280125 65.62182448 -40.5625 68.4375 C-34.95037006 66.8340343 -32.1797185 63.13286417 -29.25 58.25 C-28.38517288 56.29308587 -28.38517288 56.29308587 -28.5625 53.4375 C-29.39394531 53.37691406 -30.22539062 53.31632812 -31.08203125 53.25390625 C-32.16871094 53.17011719 -33.25539063 53.08632812 -34.375 53 C-35.45394531 52.91878906 -36.53289062 52.83757812 -37.64453125 52.75390625 C-40.5625 52.4375 -40.5625 52.4375 -43.5625 51.4375 Z M-4.5625 56.4375 C-4.8925 57.7575 -5.2225 59.0775 -5.5625 60.4375 C-4.9025 59.1175 -4.2425 57.7975 -3.5625 56.4375 C-3.8925 56.4375 -4.2225 56.4375 -4.5625 56.4375 Z " fill="#010101" transform="translate(318.5625,160.5625)"/>
<path d="M0 0 C4.9274673 8.66706302 4.9274673 8.66706302 4 14 C1.45100581 18.80387367 -1.69398408 21.81729258 -6 25 C-6.66 25 -7.32 25 -8 25 C-8.05406006 25.82064941 -8.10812012 26.64129883 -8.16381836 27.48681641 C-8.80050206 36.80181824 -9.64285339 46.08449157 -10.5625 55.375 C-10.70264154 56.80467108 -10.84261627 58.23435853 -10.98242188 59.6640625 C-11.31970188 63.10956477 -11.6592033 66.55484357 -12 70 C-11.60095459 69.18305664 -11.20190918 68.36611328 -10.79077148 67.52441406 C-10.26040283 66.44901367 -9.73003418 65.37361328 -9.18359375 64.265625 C-8.39940063 62.66895996 -8.39940063 62.66895996 -7.59936523 61.04003906 C-5.46089629 56.97528326 -2.91936606 53.52513452 0 50 C0.556875 49.26394531 1.11375 48.52789062 1.6875 47.76953125 C4.6376215 44.04895391 6.12858792 42.24285255 10.8125 40.9375 C14 41 14 41 16 42 C16 42.99 16 43.98 16 45 C16.66 45.33 17.32 45.66 18 46 C18.71677789 50.08563399 19.04260794 53.9228642 18.9375 58.0625 C19.00338794 62.21344001 19.7001573 65.1004719 21 69 C21.66 69 22.32 69 23 69 C23.33 70.65 23.66 72.3 24 74 C20.75846834 76.1610211 19.76307099 76.64247553 16 76 C11.41775827 71.72324105 11.00065298 67.10882733 10.25 61.1875 C10.12496094 60.30384766 9.99992188 59.42019531 9.87109375 58.50976562 C9.56635029 56.3413987 9.27649203 54.17211885 9 52 C3.14228137 59.98940302 -1.66457676 68.34456536 -6.36914062 77.04882812 C-6.91119141 78.03173828 -7.45324219 79.01464844 -8.01171875 80.02734375 C-8.49084717 80.91156006 -8.96997559 81.79577637 -9.46362305 82.70678711 C-11.09085598 85.13561261 -12.47328093 86.5381459 -15 88 C-17.6875 87.3125 -17.6875 87.3125 -20 86 C-21.75831242 82.48337516 -20.93585988 78.48192931 -20.75 74.625 C-20.68329102 73.19136108 -20.68329102 73.19136108 -20.61523438 71.72875977 C-19.86492449 57.56214078 -18.96203036 42.89643536 -16 29 C-16.91523437 29.28875 -17.83046875 29.5775 -18.7734375 29.875 C-20.55621094 30.431875 -20.55621094 30.431875 -22.375 31 C-23.55835938 31.37125 -24.74171875 31.7425 -25.9609375 32.125 C-29 33 -29 33 -31 33 C-31.07516846 33.61294922 -31.15033691 34.22589844 -31.2277832 34.85742188 C-35.65571322 70.65571322 -35.65571322 70.65571322 -39 74 C-42.0913386 74.23779528 -44.03104944 73.98965019 -47 73 C-46.51983657 68.83858358 -45.86092965 65.70797177 -44 62 C-43.46804782 60.00093998 -43.46804782 60.00093998 -43.1484375 57.91796875 C-43.01953125 57.15033203 -42.890625 56.38269531 -42.7578125 55.59179688 C-42.56832031 54.40166992 -42.56832031 54.40166992 -42.375 53.1875 C-42.2409375 52.40568359 -42.106875 51.62386719 -41.96875 50.81835938 C-41.2035173 46.14497398 -40.86386451 41.73380241 -41 37 C-41 36.67 -41 36.34 -41 36 C-41.84763916 36.01571045 -41.84763916 36.01571045 -42.71240234 36.03173828 C-45.26655653 36.07324788 -47.82063982 36.0993096 -50.375 36.125 C-51.26445313 36.14175781 -52.15390625 36.15851562 -53.0703125 36.17578125 C-54.34648438 36.18544922 -54.34648438 36.18544922 -55.6484375 36.1953125 C-56.82672119 36.21102295 -56.82672119 36.21102295 -58.02880859 36.22705078 C-60 36 -60 36 -62 34 C-61.75 31.4375 -61.75 31.4375 -61 29 C-58.59458071 27.79729036 -56.89633409 27.79683337 -54.2109375 27.68359375 C-53.26992188 27.64169922 -52.32890625 27.59980469 -51.359375 27.55664062 C-50.37453125 27.51732422 -49.3896875 27.47800781 -48.375 27.4375 C-47.38242187 27.39431641 -46.38984375 27.35113281 -45.3671875 27.30664062 C-42.91162967 27.20039053 -40.45583349 27.09967545 -38 27 C-37.67 20.73 -37.34 14.46 -37 8 C-37.66 8 -38.32 8 -39 8 C-39 4 -39 4 -37.3125 2.1875 C-35 1 -35 1 -32.3125 1.1875 C-30 2 -30 2 -29 4 C-28.65989552 11.06216948 -28.90485372 18.01844249 -30 25 C-29.16855469 24.71125 -28.33710937 24.4225 -27.48046875 24.125 C-26.39378906 23.75375 -25.30710937 23.3825 -24.1875 23 C-23.10855469 22.62875 -22.02960937 22.2575 -20.91796875 21.875 C-18 21 -18 21 -15 21 C-14.81824219 19.82244141 -14.81824219 19.82244141 -14.6328125 18.62109375 C-12.13594531 2.96765711 -12.13594531 2.96765711 -9.3125 0.5625 C-6.17099768 -0.20164921 -3.21789922 -0.12376535 0 0 Z M-5 9 C-5.33 10.65 -5.66 12.3 -6 14 C-5.34 13.67 -4.68 13.34 -4 13 C-4.33 11.68 -4.66 10.36 -5 9 Z " fill="#010101" transform="translate(600,9)"/>
<path d="M0 0 C5.07117753 2.53558877 7.84310433 5.82552434 10 11 C10.81986894 13.6599157 11.42539945 16.27064739 12 19 C16.05448906 14.18447416 18.73608274 9.86584097 20.45703125 3.78515625 C21 2 21 2 22 1 C24.4375 0.8125 24.4375 0.8125 27 1 C27.66 1.66 28.32 2.32 29 3 C28.83251953 5.01586914 28.83251953 5.01586914 28.2578125 7.47265625 C28.05704102 8.36871582 27.85626953 9.26477539 27.64941406 10.18798828 C27.43510742 11.11595215 27.22080078 12.04391602 27 13 C26.63789324 14.74760079 26.28102607 16.49629632 25.9296875 18.24609375 C25.39669495 20.86960151 24.86357868 23.49302705 24.32421875 26.11523438 C24.15277344 26.96279297 23.98132813 27.81035156 23.8046875 28.68359375 C23.64983887 29.44212646 23.49499023 30.20065918 23.33544922 30.98217773 C22.91800374 33.15231157 22.91800374 33.15231157 23 36 C23.76183594 34.45892578 23.76183594 34.45892578 24.5390625 32.88671875 C26.33021273 29.27338567 28.13880107 25.66911271 29.95703125 22.06933594 C30.86344898 20.27092847 31.76067172 18.46789234 32.65625 16.6640625 C35.420849 11.29662296 37.7339244 7.13723652 43 4 C45.75 4 45.75 4 48 5 C50.19298799 8.28948198 50.26693521 9.39443166 50.34375 13.2265625 C50.37339844 14.25910156 50.40304687 15.29164062 50.43359375 16.35546875 C50.45550781 17.43441406 50.47742188 18.51335938 50.5 19.625 C50.71771212 30.11360144 50.99755119 38.19640841 57 47 C57.3125 49.8125 57.3125 49.8125 57 52 C56 53 56 53 53.6875 53.375 C51 53 51 53 48.9375 51.125 C42.17605602 40.2194452 42.20081307 29.54389232 42 17 C41.53851563 17.93457031 41.07703125 18.86914062 40.6015625 19.83203125 C38.82808164 23.41129681 37.03651955 26.9812164 35.23681641 30.54736328 C34.39523289 32.21624366 33.55647143 33.88654947 32.72021484 35.55810547 C31.42993153 38.12851238 30.1231185 40.689912 28.8125 43.25 C28.40918457 44.05928955 28.00586914 44.8685791 27.59033203 45.70239258 C25.29148491 50.14942738 23.28608255 53.16798809 19 56 C16.5625 55.1875 16.5625 55.1875 14 54 C12.76528296 50.29584888 13.09583708 47.07453207 13.375 43.25 C13.41882813 42.5590625 13.46265625 41.868125 13.5078125 41.15625 C13.80729162 36.73061405 14.32295516 32.38357848 15 28 C11.88214887 28.64644661 11.88214887 28.64644661 11 31 C11.66 31.33 12.32 31.66 13 32 C12.34 32.66 11.68 33.32 11 34 C10.0317441 35.92231449 9.09877027 37.8625259 8.1875 39.8125 C5.08627213 46.10528276 1.63903821 51.15469791 -5 54 C-9.72891407 54.08444489 -11.42910824 53.54607038 -14.875 50.25 C-19.96713128 42.46203451 -18.19412774 33.39652041 -16.43359375 24.703125 C-16.02108735 22.13146349 -15.96098225 19.84532339 -16.0625 17.25 C-16.18712545 11.4341456 -14.30271143 7.46157868 -10.4375 3.125 C-6.81159956 -0.03604141 -4.80011567 -0.46154958 0 0 Z M-4 13 C-5.42944945 15.35438733 -6.08661261 16.48032433 -5.625 19.25 C-5.41875 19.8275 -5.2125 20.405 -5 21 C-4.34 21 -3.68 21 -3 21 C-3 18.36 -3 15.72 -3 13 C-3.33 13 -3.66 13 -4 13 Z M-9 27 C-10.7616543 36.90643646 -10.7616543 36.90643646 -8 46 C-6.68 45.67 -5.36 45.34 -4 45 C-4 44.34 -4 43.68 -4 43 C-3.34 43 -2.68 43 -2 43 C0.30440013 38.70543612 1.78184562 34.68520915 3 30 C2.38511719 29.86722656 1.77023437 29.73445313 1.13671875 29.59765625 C-0.07564453 29.33275391 -0.07564453 29.33275391 -1.3125 29.0625 C-2.11300781 28.88847656 -2.91351563 28.71445312 -3.73828125 28.53515625 C-6 28 -6 28 -9 27 Z " fill="#010101" transform="translate(427,35)"/>
<path d="M0 0 C0.598125 0.350625 1.19625 0.70125 1.8125 1.0625 C2.11649044 6.23033755 1.56136445 10.52599969 0.3125 15.5625 C-1.34183271 22.32879919 -2.48892724 27.67974068 0.8125 34.0625 C0.4375 36.8125 0.4375 36.8125 -0.1875 39.0625 C-4.3622899 39.41039916 -5.98428245 38.67024762 -9.1875 36.0625 C-9.93193359 36.80306641 -9.93193359 36.80306641 -10.69140625 37.55859375 C-14.02129901 40.69892905 -16.46517097 42.82988557 -20.875 44.25 C-24.99574927 44.01675004 -26.37808229 43.03245587 -29.1875 40.0625 C-30.5 37.8125 -30.5 37.8125 -31.1875 36.0625 C-31.744375 36.97 -32.30125 37.8775 -32.875 38.8125 C-36.02142238 43.23449901 -38.40278477 45.51086075 -43.625 47.125 C-47.4451892 47.05797914 -49.14150831 46.36915202 -51.90234375 43.71875 C-55.46597346 39.12610867 -56.31660685 33.67936129 -57.1875 28.0625 C-57.70699219 28.93132812 -58.22648438 29.80015625 -58.76171875 30.6953125 C-68.06309648 46.12983504 -68.06309648 46.12983504 -72.75 48.1875 C-75.1875 48.0625 -75.1875 48.0625 -77.4375 46.5 C-80.73008232 41.9139032 -80.28310892 37.0174466 -79.69921875 31.59765625 C-79.56966797 30.38529297 -79.44011719 29.17292969 -79.30664062 27.92382812 C-79.16419922 26.67021484 -79.02175781 25.41660156 -78.875 24.125 C-78.74416016 22.87525391 -78.61332031 21.62550781 -78.47851562 20.33789062 C-77.12480726 8.02372229 -77.12480726 8.02372229 -75.1875 3.0625 C-72.5625 1.625 -72.5625 1.625 -70.1875 1.0625 C-67.04012624 4.48355843 -66.35221167 7.45057338 -66.1875 12.0625 C-66.65542969 12.59359375 -67.12335937 13.1246875 -67.60546875 13.671875 C-70.08327064 17.41610896 -70.02066361 21.41092691 -70.375 25.8125 C-70.45685547 26.70066406 -70.53871094 27.58882812 -70.62304688 28.50390625 C-70.82279088 30.68934071 -71.0105145 32.87512449 -71.1875 35.0625 C-70.91075439 34.56435791 -70.63400879 34.06621582 -70.34887695 33.55297852 C-63.86328125 21.87890625 -63.86328125 21.87890625 -62.52490234 19.48828125 C-61.6137128 17.83556506 -60.72416311 16.17077584 -59.85400391 14.49609375 C-59.42651855 13.68398437 -58.9990332 12.871875 -58.55859375 12.03515625 C-58.18017334 11.29918213 -57.80175293 10.56320801 -57.41186523 9.80493164 C-56.1875 8.0625 -56.1875 8.0625 -52.9375 6.9375 C-50.1875 7.0625 -50.1875 7.0625 -49.1875 8.0625 C-49.05453792 9.52882307 -48.98416281 11.00093816 -48.94140625 12.47265625 C-48.89209961 13.83487305 -48.89209961 13.83487305 -48.84179688 15.22460938 C-48.78146735 17.13076565 -48.72408681 19.03701797 -48.66992188 20.94335938 C-48.45899122 26.60664837 -47.77181132 31.61683072 -46.1875 37.0625 C-44.8675 37.0625 -43.5475 37.0625 -42.1875 37.0625 C-40.64208465 35.49563488 -40.64208465 35.49563488 -39.5 33.375 C-38.87544922 32.34826172 -38.87544922 32.34826172 -38.23828125 31.30078125 C-36.26178621 27.09062639 -36.04982457 23.03868038 -36.0625 18.4375 C-36.05992187 17.49648437 -36.05734375 16.55546875 -36.0546875 15.5859375 C-36.08202002 12.93572493 -36.08202002 12.93572493 -37.1875 10.0625 C-37.8475 11.3825 -38.5075 12.7025 -39.1875 14.0625 C-41.5625 14.25 -41.5625 14.25 -44.1875 14.0625 C-46.53299674 10.54425489 -46.76741403 9.20474306 -46.1875 5.0625 C-44.125 2.125 -44.125 2.125 -41.1875 0.0625 C-37.16387365 -0.00808994 -35.05468411 0.38281515 -31.875 2.875 C-28.70482497 6.98448615 -27.53587252 11.0542592 -26.1875 16.0625 C-25.81238281 15.44761719 -25.43726563 14.83273438 -25.05078125 14.19921875 C-19.70514706 5.75661765 -19.70514706 5.75661765 -15.1875 4.0625 C-12 3.875 -12 3.875 -9.1875 4.0625 C-8.5275 4.0625 -7.8675 4.0625 -7.1875 4.0625 C-6.919375 3.423125 -6.65125 2.78375 -6.375 2.125 C-4.66350968 -0.84758845 -3.15274533 -1.35117657 0 0 Z M-14.1875 12.0625 C-17.58637767 15.93463912 -20.24633443 19.38571868 -20.0625 24.625 C-19.629375 25.8315625 -19.629375 25.8315625 -19.1875 27.0625 C-20.1775 27.3925 -21.1675 27.7225 -22.1875 28.0625 C-22.1875 30.7025 -22.1875 33.3425 -22.1875 36.0625 C-18.0292862 34.74937985 -16.2883359 33.38073917 -14 29.6875 C-13.26716797 28.53121094 -13.26716797 28.53121094 -12.51953125 27.3515625 C-9.72570484 22.58134046 -9.72570484 22.58134046 -9.1875 17.0625 C-9.8475 16.7325 -10.5075 16.4025 -11.1875 16.0625 C-11.8125 14 -11.8125 14 -12.1875 12.0625 C-12.8475 12.0625 -13.5075 12.0625 -14.1875 12.0625 Z " fill="#010101" transform="translate(690.1875,172.9375)"/>
<path d="M0 0 C2.375 -0.125 2.375 -0.125 5 0 C7 2 7 2 7.23046875 4.3984375 C7.12597715 11.63685563 6.7153202 18.79570369 6 26 C6.53109375 25.4946875 7.0621875 24.989375 7.609375 24.46875 C8.31578125 23.8190625 9.0221875 23.169375 9.75 22.5 C10.44609375 21.8503125 11.1421875 21.200625 11.859375 20.53125 C14 19 14 19 18 19 C19.76276742 22.52553484 18.8259707 26.28586683 18 30 C16.81006119 32.94932029 15.48709166 35.77637862 14.05859375 38.6171875 C12.79700027 41.02237378 12.79700027 41.02237378 13 44 C14.64639965 45.35827971 16.31295807 46.69254251 18 48 C18 48.66 18 49.32 18 50 C20.17041896 51.12540242 22.24360501 52.0831822 24.5625 52.875 C27.42972387 54.1983341 28.55728533 55.19472148 30 58 C29.6875 60.75 29.6875 60.75 29 63 C20.24497616 62.80967339 13.85404318 57.09627945 8 51 C7.73960937 51.84046875 7.47921875 52.6809375 7.2109375 53.546875 C5.91433913 57.24427163 4.35041942 60.73966393 2.625 64.25 C2.33367187 64.87390625 2.04234375 65.4978125 1.7421875 66.140625 C0.38512023 68.90237594 -0.60032857 70.74477123 -3.2265625 72.421875 C-3.81179688 72.61265625 -4.39703125 72.8034375 -5 73 C-6.65 71.68 -8.3 70.36 -10 69 C-9.7834375 67.79601562 -9.566875 66.59203125 -9.34375 65.3515625 C-9.06240987 63.77605776 -8.78116479 62.20053604 -8.5 60.625 C-8.28537109 59.43390625 -8.28537109 59.43390625 -8.06640625 58.21875 C-7.2887917 54.13504086 -7.2887917 54.13504086 -7 50 C-7.56847656 50.94101563 -8.13695312 51.88203125 -8.72265625 52.8515625 C-17.6277558 67.3138779 -17.6277558 67.3138779 -25 71 C-32.07480739 71.69588269 -32.07480739 71.69588269 -35.7265625 68.94921875 C-39.88357404 63.55653196 -38.79676202 56.49800207 -38 50 C-36.23034259 41.72591029 -32.88708059 34.13785998 -27.0625 27.9375 C-24.00350562 26.54704801 -22.15628396 26.99267533 -19 28 C-17.0625 29.6875 -17.0625 29.6875 -16 32 C-16.3125 35.25 -16.3125 35.25 -17 38 C-20 39 -20 39 -22.1875 38.0625 C-23.0846875 37.5365625 -23.0846875 37.5365625 -24 37 C-24.33 38.32 -24.66 39.64 -25 41 C-25.66 41 -26.32 41 -27 41 C-27.04898437 41.84304687 -27.09796875 42.68609375 -27.1484375 43.5546875 C-27.22320312 44.65039062 -27.29796875 45.74609375 -27.375 46.875 C-27.44460938 47.96554688 -27.51421875 49.05609375 -27.5859375 50.1796875 C-28 53 -28 53 -30 55 C-30.24253813 57.21072977 -30.24253813 57.21072977 -30.125 59.625 C-30.10695313 60.44226563 -30.08890625 61.25953125 -30.0703125 62.1015625 C-30.04710937 62.72804687 -30.02390625 63.35453125 -30 64 C-25.85329961 61.62370911 -25.85329961 61.62370911 -23 58 C-22.34 58 -21.68 58 -21 58 C-19.94690406 55.89861678 -18.90215002 53.79571671 -17.88671875 51.67578125 C-17.49097656 50.89589844 -17.09523438 50.11601563 -16.6875 49.3125 C-16.29949219 48.52488281 -15.91148437 47.73726562 -15.51171875 46.92578125 C-14 45 -14 45 -11.58203125 44.60546875 C-8.73735869 44.20400023 -8.73735869 44.20400023 -6.765625 41.4296875 C-4.82204902 37.65433415 -4.13739531 34.28949953 -3.75 30.125 C-3.67265625 29.43664062 -3.5953125 28.74828125 -3.515625 28.0390625 C-3.32916598 26.36093135 -3.16250271 24.68062012 -3 23 C-4.32 22.34 -5.64 21.68 -7 21 C-6.0235592 17.87414159 -5.04338493 14.74946643 -4.0625 11.625 C-3.64581055 10.29082031 -3.64581055 10.29082031 -3.22070312 8.9296875 C-2.81948242 7.65351563 -2.81948242 7.65351563 -2.41015625 6.3515625 C-2.16402588 5.56604004 -1.91789551 4.78051758 -1.66430664 3.97119141 C-1 2 -1 2 0 0 Z M4 39 C4 42 4 42 4 42 Z " fill="#010101" transform="translate(337,18)"/>
<path d="M0 0 C4.03650842 3.11912014 5.96016044 6.0087701 7 11 C6.5 15.5 6.5 15.5 5 17 C3.33382885 17.04063832 1.66611905 17.042721 0 17 C-0.66 14.03 -1.32 11.06 -2 8 C-6.69901551 9.10565071 -8.83048594 11.66550991 -11.51171875 15.44140625 C-15.85165406 22.90244989 -19.15065629 31.50284549 -19.125 40.1875 C-19.12757813 41.06792969 -19.13015625 41.94835937 -19.1328125 42.85546875 C-19.23865033 44.98203191 -19.23865033 44.98203191 -18 46 C-4.43156524 46 5.46108454 36.57098433 14.57202148 27.48706055 C19.04663215 22.82731469 22.06895512 18.17685196 24.69140625 12.26953125 C26.16487597 9.71405094 27.46836577 8.49176912 30 7 C30.99 7 31.98 7 33 7 C33 6.34 33 5.68 33 5 C36.72228784 3.75923739 40.13282398 3.47024986 44 4 C47.8173071 6.12072616 49.95277802 8.69752619 51.4921875 12.8203125 C53.18076158 20.068192 52.75394511 27.27153945 49.32421875 33.90234375 C45.21109589 40.41782155 40.52940294 45.65817783 33 48 C29.59901667 48.34009833 27.04606581 48.26151645 23.75 47.4375 C20.31639359 44.61703759 19.36539581 40.09618743 18 36 C17.5153125 36.43570313 17.030625 36.87140625 16.53125 37.3203125 C7.06916262 45.72701321 -2.74802649 54.34337068 -16 55 C-19.64884443 54.55539291 -22.77077203 53.78142596 -26 52 C-27.5625 49.3125 -27.5625 49.3125 -28 46 C-28.226875 44.700625 -28.45375 43.40125 -28.6875 42.0625 C-29.11996453 38.19268805 -28.71575085 34.81733788 -28 31 C-27.34 31 -26.68 31 -26 31 C-25.89042969 30.45472656 -25.78085938 29.90945312 -25.66796875 29.34765625 C-22.34901672 13.56239662 -22.34901672 13.56239662 -17 9 C-16.21625 7.989375 -15.4325 6.97875 -14.625 5.9375 C-10.51727658 1.34076188 -6.24572094 -1.06310144 0 0 Z M39 11 C34.82088554 14.89089967 32.18132335 17.86038453 31.6875 23.6875 C31.65216032 27.07720547 31.65216032 27.07720547 34 29 C35.96690374 29.67292501 35.96690374 29.67292501 38.125 30.125 C40.043125 30.558125 40.043125 30.558125 42 31 C44.53794901 25.22821273 45.33928551 21.02616191 43.93359375 14.84765625 C42.7285516 12.46278203 41.44099152 11.95343432 39 11 Z M27 33 C27 35.31 27 37.62 27 40 C29.87450983 40.25048636 29.87450983 40.25048636 33 40 C33.99 39.01 34.98 38.02 36 37 C31.545 35.02 31.545 35.02 27 33 Z " fill="#010101" transform="translate(212,182)"/>
<path d="M0 0 C1 1 1 1 1.0625 3.5625 C1.041875 4.366875 1.02125 5.17125 1 6 C-2.18165415 7.40584718 -5.33984149 8.76682926 -8.62109375 9.92578125 C-31.82268302 18.22283853 -51.48619503 31.95006312 -70.27099609 47.57080078 C-72.55066779 49.45518346 -74.86671041 51.29161372 -77.1875 53.125 C-81.57135111 56.61884107 -85.84752136 60.23071902 -90.11401367 63.8659668 C-93.53501771 66.7768079 -96.99813442 69.62377394 -100.5 72.4375 C-108.75448252 79.15485747 -116.49641128 86.45944778 -124 94 C-124.69480469 94.66 -125.38960937 95.32 -126.10546875 96 C-141.14949727 110.45129944 -154.17141462 128.5810679 -155 150 C-158.71875 151.1171875 -158.71875 151.1171875 -161.25 150.0625 C-163.39564776 147.53370085 -163.56724126 145.74568764 -163.37109375 142.4765625 C-160.90542179 126.02144647 -151.69500543 112.28422311 -141 100 C-140.46117187 99.24203125 -139.92234375 98.4840625 -139.3671875 97.703125 C-138.91601562 97.14109375 -138.46484375 96.5790625 -138 96 C-137.34 96 -136.68 96 -136 96 C-135.73823975 95.41371826 -135.47647949 94.82743652 -135.20678711 94.22338867 C-133.93252809 91.87568952 -132.57261122 90.31418111 -130.69140625 88.42578125 C-130.03221191 87.76263916 -129.37301758 87.09949707 -128.69384766 86.41625977 C-127.63883057 85.37489868 -127.63883057 85.37489868 -126.5625 84.3125 C-125.8411084 83.59570068 -125.1197168 82.87890137 -124.37646484 82.14038086 C-119.61800486 77.46191726 -114.75356876 73.13004588 -109.5078125 69.00390625 C-106.90916702 66.92741851 -104.45528166 64.74361945 -102 62.5 C-95.97431814 57.01249706 -89.68367006 51.85002478 -83.23828125 46.86328125 C-80.93065091 45.1957108 -80.93065091 45.1957108 -80 43 C-78.66666667 42.33333333 -77.33333333 41.66666667 -76 41 C-74.99583628 40.00418113 -73.99632131 39.0036652 -73 38 C-71.83314783 37.07743314 -70.64510715 36.18103819 -69.4375 35.3125 C-68.83808594 34.87550781 -68.23867187 34.43851563 -67.62109375 33.98828125 C-66 33 -66 33 -64 33 C-64 32.34 -64 31.68 -64 31 C-62.02678947 29.6273318 -60.02456848 28.29572383 -58 27 C-57.34 26.34 -56.68 25.68 -56 25 C-48.2209395 19.61504549 -39.95251988 15.15673954 -31.5625 10.8125 C-30.42490234 10.20986328 -29.28730469 9.60722656 -28.11523438 8.98632812 C-9.71611469 -0.57533647 -9.71611469 -0.57533647 0 0 Z " fill="#010101" transform="translate(185,73)"/>
<path d="M0 0 C1.4540625 0.0309375 1.4540625 0.0309375 2.9375 0.0625 C3.42355652 4.15926209 3.89056314 8.22362842 4.12109375 12.34375 C4.54137666 20.654381 4.54137666 20.654381 7.9375 28.0625 C11.79263367 27.72234115 14.75759992 26.48191392 17.7109375 23.9375 C20.34174888 19.91587751 19.92261209 14.72985824 19.9375 10.0625 C20.5975 10.0625 21.2575 10.0625 21.9375 10.0625 C22.06125 9.32 22.185 8.5775 22.3125 7.8125 C22.90872525 5.1891089 23.42947386 3.28485432 24.9375 1.0625 C26.8125 0.125 26.8125 0.125 28.9375 0.0625 C31.0859375 1.109375 31.0859375 1.109375 32.9375 3.0625 C33.109375 6.41796875 33.109375 6.41796875 32.6875 10.25 C32.55859375 11.52230469 32.4296875 12.79460937 32.296875 14.10546875 C32.17828125 15.08128906 32.0596875 16.05710938 31.9375 17.0625 C31.2775 17.0625 30.6175 17.0625 29.9375 17.0625 C27.59358604 24.88333039 26.12276284 32.60902571 25 40.6875 C18.322035 85.98277921 18.322035 85.98277921 5.9375 96.0625 C2.375 96.4375 2.375 96.4375 -1.0625 96.0625 C-5.0948503 90.01397455 -4.3331674 83.29178617 -3 76.375 C0.64849491 61.17018636 7.56475958 47.55948722 16.9375 35.0625 C16.37933594 35.56394531 15.82117188 36.06539062 15.24609375 36.58203125 C12.41595278 38.39696091 11.26821314 38.32911327 8 37.75 C4.09231333 36.811925 2.16325728 35.80603415 -0.0625 32.4375 C-3.97054596 25.39727015 -4.36511677 17.97111676 -4.25 10.125 C-4.24935547 9.26326172 -4.24871094 8.40152344 -4.24804688 7.51367188 C-4.19536565 0.08561971 -4.19536565 0.08561971 0 0 Z M13.9375 53.0625 C6.44880825 68.42486152 6.44880825 68.42486152 3.9375 85.0625 C6.30663722 82.93682655 7.46799559 81.23091654 8.47265625 78.21875 C8.7238623 77.47157715 8.97506836 76.7244043 9.23388672 75.95458984 C9.4867041 75.1652002 9.73952148 74.37581055 10 73.5625 C10.26312988 72.75893066 10.52625977 71.95536133 10.79736328 71.12744141 C12.69676001 65.18093285 14.14517067 59.26452611 14.9375 53.0625 C14.6075 53.0625 14.2775 53.0625 13.9375 53.0625 Z " fill="#010101" transform="translate(466.0625,186.9375)"/>
<path d="M0 0 C4.875 0.875 4.875 0.875 6 2 C6.09880534 3.63259143 6.12798968 5.26945133 6.12939453 6.9050293 C6.13254669 7.95510666 6.13569885 9.00518402 6.13894653 10.08708191 C6.1369223 11.23783707 6.13489807 12.38859222 6.1328125 13.57421875 C6.13376923 14.7636055 6.13472595 15.95299225 6.13571167 17.17842102 C6.13639484 19.71652275 6.13453112 22.2546262 6.13037109 24.79272461 C6.12512317 28.59818709 6.13025914 32.40352609 6.13671875 36.20898438 C6.14030008 47.71684951 6.0540705 59.20872266 5.5546875 70.70703125 C5.51594513 71.62659103 5.47720276 72.54615082 5.43728638 73.49357605 C5.12765129 79.74469743 5.12765129 79.74469743 4 82 C4.72703125 81.36384766 4.72703125 81.36384766 5.46875 80.71484375 C6.1390625 80.12832031 6.809375 79.54179687 7.5 78.9375 C8.22445313 78.30070312 8.94890625 77.66390625 9.6953125 77.0078125 C11.19934937 75.69751597 12.71459257 74.39994143 14.2421875 73.1171875 C14.94601563 72.52164063 15.64984375 71.92609375 16.375 71.3125 C17.02210937 70.77238281 17.66921875 70.23226562 18.3359375 69.67578125 C20.11153376 68.07211849 20.11153376 68.07211849 21.03125 65.83984375 C21.3509375 65.23269531 21.670625 64.62554687 22 64 C25.125 63.25 25.125 63.25 28 63 C27.67 62.01 27.34 61.02 27 60 C28.485 59.505 28.485 59.505 30 59 C32.54189385 57.8445937 34.82473222 56.49069521 37.20703125 55.01953125 C37.79419922 54.66052734 38.38136719 54.30152344 38.98632812 53.93164062 C40.20055543 53.18752057 41.4064843 52.42968133 42.60351562 51.65820312 C47.11789954 48.94563438 49.92827957 48.77265664 55 50 C54.8125 52.375 54.8125 52.375 54 55 C51.5 56.1875 51.5 56.1875 49 57 C48.505 57.99 48.505 57.99 48 59 C46.31886155 59.96563662 44.60431669 60.87356157 42.875 61.75 C37.09412364 64.81709695 32.59874884 68.40125116 28 73 C26.9649998 73.9035272 25.92242521 74.79840651 24.875 75.6875 C22.9194366 77.34811272 20.98090979 79.01726655 19.078125 80.73828125 C15.62399178 83.85390941 12.0957099 86.78964067 8.3125 89.5 C7.25482422 90.25796875 7.25482422 90.25796875 6.17578125 91.03125 C3.32178019 92.30197219 1.92215747 92.01968661 -1 91 C-2.64648437 89.83666992 -2.64648437 89.83666992 -4 88 C-4.2487793 85.19458008 -4.2487793 85.19458008 -4.07421875 81.76953125 C-4.01943359 80.50423584 -3.96464844 79.23894043 -3.90820312 77.93530273 C-3.87218994 77.26361053 -3.83617676 76.59191833 -3.79907227 75.89987183 C-3.60981338 72.3590844 -3.47056131 68.81621206 -3.32421875 65.2734375 C-3.29343231 64.56217209 -3.26264587 63.85090668 -3.23092651 63.11808777 C-2.97673702 57.05478214 -2.94490993 51.00580201 -3 44.9375 C-3.049185 36.197703 -2.93451925 27.46714878 -2.68261719 18.73123169 C-2.62602614 16.72389812 -2.5785537 14.71631413 -2.53125 12.70874023 C-2.49257813 11.48872314 -2.45390625 10.26870605 -2.4140625 9.01171875 C-2.3826416 7.92334717 -2.3512207 6.83497559 -2.31884766 5.71362305 C-2 3 -2 3 0 0 Z " fill="#010101" transform="translate(5,167)"/>
<path d="M0 0 C0.92644882 5.04399913 0.74364881 8.95971362 0 14 C-0.64100201 22.32669459 -0.64100201 22.32669459 2 30 C3.28197266 29.87431641 3.28197266 29.87431641 4.58984375 29.74609375 C5.69457031 29.64425781 6.79929687 29.54242188 7.9375 29.4375 C9.59072266 29.28087891 9.59072266 29.28087891 11.27734375 29.12109375 C12.17582031 29.08113281 13.07429687 29.04117188 14 29 C15 30 15 30 15.0625 32.5625 C15.041875 33.366875 15.02125 34.17125 15 35 C11.05207234 37.44645517 7.56298936 39.42444205 2.8125 39.0625 C-1.69926635 37.80512249 -3.24840916 36.77361029 -6 33 C-7.22435172 30.05266945 -8.17433342 27.08114602 -9 24 C-11.8521571 27.65617765 -14.10481259 31.54335216 -16.40234375 35.5625 C-18.05730824 38.08743361 -19.71190985 40.03233273 -22 42 C-24.75 42.25 -24.75 42.25 -27 42 C-31.60963537 34.0111897 -28.63575654 23.93150669 -26.94921875 15.3828125 C-26.02282063 12.08132785 -25.04477371 9.74140004 -23 7 C-19.8125 5.6875 -19.8125 5.6875 -17 5 C-15.66514133 9.85403152 -16.32360507 12.63746783 -18.30859375 17.0703125 C-19.22486799 19.28596204 -19.22486799 19.28596204 -19 23 C-18.46890625 21.92621094 -17.9378125 20.85242188 -17.390625 19.74609375 C-16.67719255 18.30984158 -15.96364471 16.87364672 -15.25 15.4375 C-14.72792969 14.38079102 -14.72792969 14.38079102 -14.1953125 13.30273438 C-6.77588685 -1.60481531 -6.77588685 -1.60481531 0 0 Z " fill="#010101" transform="translate(725,170)"/>
<path d="M0 0 C5.88471387 5.50092818 7.39857824 11.33267341 7.9609375 19.1015625 C8.08091239 28.00369954 5.39656794 37.35865526 -0.82421875 43.92578125 C-5.39543745 47.68872946 -9.09027163 49 -15 49 C-17.71276272 48.21472658 -18.60018135 47.6349641 -20.09423828 45.26220703 C-21.91064924 40.72558602 -21.07513645 35.67827469 -20.875 30.875 C-20.85179687 29.78445312 -20.82859375 28.69390625 -20.8046875 27.5703125 C-20.40304115 17.07730159 -17.83628063 8.32132504 -10 1 C-6.75935691 -0.62032155 -3.49077634 -0.71021553 0 0 Z M-6 8 C-10.14277059 12.83323235 -12.36937261 16.53597935 -12 23 C-9.525 23.495 -9.525 23.495 -7 24 C-7.375 26.4375 -7.375 26.4375 -8 29 C-8.66 29.33 -9.32 29.66 -10 30 C-10 30.99 -10 31.98 -10 33 C-8.02 33.66 -6.04 34.32 -4 35 C0.33911365 25.72127036 1.31052989 18.72468155 -2 9 C-3.32 8.67 -4.64 8.34 -6 8 Z " fill="#010101" transform="translate(521,179)"/>
<path d="M0 0 C2.51340442 3.77010664 2.71909455 6.64140648 2 11 C-0.19440008 16.96659196 -3.0580459 21.96840587 -8 26 C-8.99 26.33 -9.98 26.66 -11 27 C-10.37758574 31.34761004 -9.83666156 34.94742578 -7.0625 38.4375 C1.58060888 42.84724943 10.61628101 42.10396694 20 41 C20.66 42.65 21.32 44.3 22 46 C15.83326396 51.25314551 7.71877481 50.61609377 0 50 C-6.43936338 48.64520365 -11.81520121 46.48637197 -15.859375 41.140625 C-17.68548147 37.71354847 -18.54600663 34.1355461 -19.359375 30.35546875 C-19.83603726 27.83279733 -19.83603726 27.83279733 -22 26 C-21.34 24.68 -20.68 23.36 -20 22 C-19.34 22 -18.68 22 -18 22 C-18.33 21.01 -18.66 20.02 -19 19 C-18.34 19 -17.68 19 -17 19 C-16.938125 18.195625 -16.87625 17.39125 -16.8125 16.5625 C-14.76981831 7.60612643 -10.1558012 -1.31649275 0 0 Z " fill="#010101" transform="translate(649,36)"/>
<path d="M0 0 C2.97 0.495 2.97 0.495 6 1 C6.25055928 7.38926174 6.25055928 7.38926174 5 10.4375 C3.58626844 14.06018713 3.86865192 17.12523168 4 21 C3.67 21 3.34 21 3 21 C2.67 23.31 2.34 25.62 2 28 C6.55815796 22.67431716 9.34304549 17.30119052 11.8984375 10.7890625 C13.10024744 7.74618202 14.4746634 4.89011145 16 2 C20.875 2.875 20.875 2.875 22 4 C21.90725583 5.81599067 21.74913575 7.62874609 21.5625 9.4375 C21.37241522 11.62477691 21.18491444 13.81227992 21 16 C20.91878906 16.9384375 20.83757813 17.876875 20.75390625 18.84375 C20.47807663 24.35764153 20.47807663 24.35764153 23.375 29 C24.24125 29.66 25.1075 30.32 26 31 C26.66 31.66 27.32 32.32 28 33 C27.625 35.625 27.625 35.625 27 38 C22.25 39 22.25 39 20 39 C16.45734874 35.90018015 14.59266036 33.38718942 13 29 C12.49210938 29.56589844 11.98421875 30.13179687 11.4609375 30.71484375 C5.91659646 36.62257793 5.91659646 36.62257793 1.8125 38.3125 C-1 38 -1 38 -3.875 36.25 C-8.38949995 29.34547067 -5.96268049 20.86574404 -4.6875 13.125 C-4.57019531 12.39958008 -4.45289063 11.67416016 -4.33203125 10.92675781 C-3.56626091 6.71306746 -2.45933717 3.51333881 0 0 Z " fill="#010101" transform="translate(535,185)"/>
<path d="M0 0 C2.65820159 1.06829611 3.3988442 2.32180048 4.9453125 4.70703125 C7.61177013 8.41081404 9.55385118 10.50366027 14.0703125 11.83203125 C21.17263736 12.25625489 27.10465674 9.45202274 33.0703125 5.83203125 C33.7303125 5.17203125 34.3903125 4.51203125 35.0703125 3.83203125 C37.5703125 3.58203125 37.5703125 3.58203125 40.0703125 3.83203125 C40.7303125 4.49203125 41.3903125 5.15203125 42.0703125 5.83203125 C41.98046875 8.25 41.98046875 8.25 41.0703125 10.83203125 C39.06640625 12.5703125 39.06640625 12.5703125 36.5078125 14.14453125 C30.19581633 18.29525652 23.02519368 23.62950838 20.0703125 30.83203125 C19.81931383 34.54097033 19.81931383 34.54097033 20.0703125 37.83203125 C16.67410519 39.92200498 14.01868155 40.09525585 10.0703125 39.83203125 C9.7403125 39.50203125 9.4103125 39.17203125 9.0703125 38.83203125 C9.14121094 37.8575 9.21210937 36.88296875 9.28515625 35.87890625 C9.35795254 30.69581006 6.9357249 26.6039867 4.6328125 22.08203125 C3.79961185 20.40031845 2.96753129 18.71805012 2.13671875 17.03515625 C1.76490479 16.29942383 1.39309082 15.56369141 1.01000977 14.80566406 C0.0703125 12.83203125 0.0703125 12.83203125 -0.9296875 9.83203125 C-1.5896875 9.83203125 -2.2496875 9.83203125 -2.9296875 9.83203125 C-3.5896875 7.52203125 -4.2496875 5.21203125 -4.9296875 2.83203125 C-2.49062618 -0.2167954 -2.49062618 -0.2167954 0 0 Z M13.0703125 19.83203125 C13.7303125 21.15203125 14.3903125 22.47203125 15.0703125 23.83203125 C15.7303125 22.51203125 16.3903125 21.19203125 17.0703125 19.83203125 C15.7503125 19.83203125 14.4303125 19.83203125 13.0703125 19.83203125 Z " fill="#010101" transform="translate(813.9296875,156.16796875)"/>
<path d="M0 0 C0.5775 0.37125 1.155 0.7425 1.75 1.125 C0.75 9.69642857 0.75 9.69642857 -0.25 13.125 C2.06 13.785 4.37 14.445 6.75 15.125 C7.875 18.875 7.875 18.875 6.75 21.125 C4.68359375 21.7578125 4.68359375 21.7578125 2.1875 22.25 C1.36121094 22.41757813 0.53492188 22.58515625 -0.31640625 22.7578125 C-0.95449219 22.87898438 -1.59257813 23.00015625 -2.25 23.125 C-3.11809439 28.32673095 -3.37515348 33.29478816 -3.3125 38.5625 C-3.30798828 39.29404297 -3.30347656 40.02558594 -3.29882812 40.77929688 C-3.28718148 42.56123419 -3.26925191 44.34312863 -3.25 46.125 C-0.775 45.63 -0.775 45.63 1.75 45.125 C2.9375 46.75 2.9375 46.75 3.75 49.125 C2.5919892 52.34169667 1.61271149 54.46358786 -1.125 56.5625 C-3.89374853 57.29540402 -5.54031263 57.02822912 -8.25 56.125 C-10.72189851 54.18279403 -11.22912836 53.18761493 -12.25 50.125 C-12.33291953 48.1329697 -12.35738177 46.13826287 -12.34765625 44.14453125 C-12.34443359 42.98115234 -12.34121094 41.81777344 -12.33789062 40.61914062 C-12.32951172 39.40419922 -12.32113281 38.18925781 -12.3125 36.9375 C-12.30573242 35.09768555 -12.30573242 35.09768555 -12.29882812 33.22070312 C-12.28703065 30.18875332 -12.27056921 27.15690094 -12.25 24.125 C-13.02085937 24.14820313 -13.79171875 24.17140625 -14.5859375 24.1953125 C-15.58882812 24.21335938 -16.59171875 24.23140625 -17.625 24.25 C-18.62273438 24.27320313 -19.62046875 24.29640625 -20.6484375 24.3203125 C-23.25 24.125 -23.25 24.125 -25.25 22.125 C-24.875 19.5 -24.875 19.5 -24.25 17.125 C-23.34636719 16.92003906 -22.44273437 16.71507812 -21.51171875 16.50390625 C-20.33222656 16.23449219 -19.15273438 15.96507812 -17.9375 15.6875 C-16.76574219 15.42066406 -15.59398437 15.15382812 -14.38671875 14.87890625 C-11.24763029 14.17186031 -11.24763029 14.17186031 -8.25 13.125 C-8.15912109 12.20267578 -8.15912109 12.20267578 -8.06640625 11.26171875 C-7.98261719 10.45347656 -7.89882813 9.64523438 -7.8125 8.8125 C-7.73128906 8.01199219 -7.65007813 7.21148437 -7.56640625 6.38671875 C-7.25 4.125 -7.25 4.125 -6.25 1.125 C-3.76424847 -0.67502697 -2.91724311 -1.13448343 0 0 Z " fill="#010101" transform="translate(752.25,147.875)"/>
<path d="M0 0 C1.1495259 5.80366825 0.72341804 10.6641123 -0.21484375 16.4765625 C-0.34943497 17.36483734 -0.48402618 18.25311218 -0.62269592 19.16830444 C-1.05152589 21.98874755 -1.49376221 24.80686734 -1.9375 27.625 C-2.37544198 30.45055639 -2.81048741 33.27651125 -3.24159241 36.1031189 C-3.50977011 37.85675936 -3.78223334 39.60975131 -4.05955505 41.36196899 C-4.66520547 45.27949895 -5.17416783 49.02089622 -5 53 C-4.45730469 52.36191406 -3.91460937 51.72382812 -3.35546875 51.06640625 C-2.64003906 50.24011719 -1.92460937 49.41382813 -1.1875 48.5625 C-0.47980469 47.73878906 0.22789062 46.91507813 0.95703125 46.06640625 C3 44 3 44 6 43 C6.99 43.66 7.98 44.32 9 45 C8.60424854 50.45167823 6.79118055 52.90193259 3.0625 56.8125 C2.16660156 57.76769531 1.27070313 58.72289062 0.34765625 59.70703125 C-2.62546036 62.61089057 -3.25119266 62.97277064 -7.4375 63.125 C-11 63 -11 63 -14 62 C-14.57928581 50.43573878 -12.81406698 39.38455143 -11 28 C-10.86126465 27.12311523 -10.7225293 26.24623047 -10.57958984 25.34277344 C-9.45522825 18.23915557 -9.45522825 18.23915557 -9.00268555 15.47998047 C-8.16737602 10.33226318 -7.54329848 5.18696287 -7 0 C-3.86650268 -1.04449911 -3.01031744 -0.93423645 0 0 Z " fill="#010101" transform="translate(266,26)"/>
<path d="M0 0 C2.00720923 0.28674418 4.0085944 0.61866701 6 1 C6.33 3.31 6.66 5.62 7 8 C6.12601563 8.15726563 5.25203125 8.31453125 4.3515625 8.4765625 C-0.43493272 10.65224215 -2.05636006 13.92133528 -4.625 18.375 C-5.10428955 19.18267822 -5.5835791 19.99035645 -6.07739258 20.82250977 C-10.00747462 27.62288404 -14 34.96453749 -14 43 C-8.46671489 43.72806383 -5.09564328 41.69556457 -0.46484375 38.99609375 C2.47866391 37.80656213 4.00329127 38.10793163 7 39 C7.33 39.99 7.66 40.98 8 42 C2.4770551 48.21331301 -3.59425577 51.43452451 -11.95703125 52.0390625 C-15.51814738 51.97097233 -17.85828654 50.91560395 -20.59765625 48.71875 C-22.98747477 45.78972451 -22.58215665 42.95670325 -22.48046875 39.30078125 C-21.23443953 30.74066183 -17.23521525 22.68963448 -12.5625 15.5 C-10.58324653 12.4234402 -9.60233719 10.66101863 -10.1875 7 C-10.5896875 5.515 -10.5896875 5.515 -11 4 C-10.67 3.34 -10.34 2.68 -10 2 C-6.93090555 1.33280556 -4.14213983 1 -1 1 C-0.67 0.67 -0.34 0.34 0 0 Z " fill="#010101" transform="translate(236,43)"/>
<path d="M0 0 C1.85677695 7.42710779 0.20057618 14.82780933 -3.3515625 21.5625 C-4.04378906 22.7071875 -4.04378906 22.7071875 -4.75 23.875 C-6.58313206 26.9082005 -7.0044967 27.75268134 -6.9375 31.4375 C-6.15960388 34.12113699 -6.15960388 34.12113699 -4 36 C2.86317092 37.72623366 9.46821816 36.66637393 16.3125 35.375 C19 35 19 35 21 36 C21.125 38.375 21.125 38.375 21 41 C16.50648566 45.49351434 9.5111205 45.22774006 3.5 45.4375 C-3.11690306 45.3584922 -7.02196354 44.27894175 -12 40 C-12.70769531 39.54625 -13.41539062 39.0925 -14.14453125 38.625 C-16.51747637 36.54679964 -16.69509524 35.42348134 -17 32.3125 C-17.59960803 21.5481083 -13.98999132 8.98498699 -8 0 C-5.13822943 -1.43088528 -3.06624227 -0.59991697 0 0 Z " fill="#010101" transform="translate(391,190)"/>
<path d="M0 0 C1.65 0.33 3.3 0.66 5 1 C6.34183594 7.91385544 5.98939969 14.68381869 5.75 21.6875 C5.72699829 22.37653412 5.70399658 23.06556824 5.68029785 23.77548218 C5.37946265 32.32280685 4.95700788 40.83724231 3.75 49.3125 C3.65299805 50.08102295 3.55599609 50.8495459 3.45605469 51.64135742 C3.109375 53.73828125 3.109375 53.73828125 2 57 C-0.609375 58.48046875 -0.609375 58.48046875 -3 59 C-5 57 -5 57 -5.23046875 54.97094727 C-5.12488952 48.90913974 -4.67367703 42.96066323 -4 36.9375 C-3.29140836 30.09349687 -2.80645266 23.32013274 -2.8125 16.4375 C-2.81185547 15.74197021 -2.81121094 15.04644043 -2.81054688 14.32983398 C-2.83964024 11.67737911 -2.92467113 9.27295091 -3.6328125 6.70703125 C-3.81457031 5.86205078 -3.81457031 5.86205078 -4 5 C-2.0625 2.25 -2.0625 2.25 0 0 Z " fill="#010101" transform="translate(792,141)"/>
<path d="M0 0 C2 2 2 2 2.375 5.6875 C2.25397905 10.44189443 0.72746663 13.13608895 -2 17 C-5.29032258 20 -5.29032258 20 -8 20 C-8.33 21.32 -8.66 22.64 -9 24 C-10.32 24.33 -11.64 24.66 -13 25 C-17.91601135 20.4436968 -17.91601135 20.4436968 -18.14453125 16.515625 C-17.88434552 13.96655896 -17.52152955 11.50830878 -17 9 C-16.87625 8.29488281 -16.7525 7.58976563 -16.625 6.86328125 C-15.51616896 3.5575787 -12.71514256 2.0092055 -10 0 C-6.25976024 -1.24674659 -3.83399823 -0.76679965 0 0 Z M-7 7 C-7.66 8.65 -8.32 10.3 -9 12 C-8.01 11.01 -7.02 10.02 -6 9 C-6.33 8.34 -6.66 7.68 -7 7 Z " fill="#010101" transform="translate(374,165)"/>
<path d="M0 0 C0.99 0 1.98 0 3 0 C3.05447047 1.41623216 3.09300508 2.83308191 3.125 4.25 C3.14820313 5.03890625 3.17140625 5.8278125 3.1953125 6.640625 C3 9 3 9 2.04321289 10.82836914 C0.05006183 14.97746314 -0.10860478 19.66185115 -0.6875 24.1875 C-0.82994141 25.19103516 -0.97238281 26.19457031 -1.11914062 27.22851562 C-1.74324653 32.00090755 -2.10540234 36.3295093 -1.45703125 41.11328125 C-1.30621094 42.39589844 -1.15539062 43.67851563 -1 45 C-3 47 -3 47 -5.5 47.25 C-8 47 -8 47 -10 45 C-11.1208326 40.48097692 -10.91950656 36.61922938 -10.328125 32.02734375 C-10.20349884 31.05904381 -10.20349884 31.05904381 -10.07635498 30.07118225 C-9.89908313 28.71508129 -9.71731166 27.35956162 -9.53125 26.00463867 C-9.25055889 23.94160776 -8.99168137 21.876609 -8.734375 19.81054688 C-8.55860353 18.48680431 -8.38156276 17.16322954 -8.203125 15.83984375 C-8.04489258 14.64738037 -7.88666016 13.45491699 -7.72363281 12.22631836 C-6.97720251 8.89835733 -6.06184105 6.70814163 -4 4 C-1.3125 3.6875 -1.3125 3.6875 1 4 C0.67 2.68 0.34 1.36 0 0 Z " fill="#010101" transform="translate(286,41)"/>
<path d="M0 0 C2.5625 -0.25 2.5625 -0.25 5 0 C6 1 6 1 6.02172852 4.05102539 C5.97940657 5.40007852 5.93138482 6.74896003 5.87890625 8.09765625 C5.85529526 8.80651474 5.83168427 9.51537323 5.80735779 10.24571228 C5.73055354 12.51817021 5.64660225 14.79030157 5.5625 17.0625 C5.50929604 18.59959319 5.45655554 20.1367025 5.40429688 21.67382812 C5.27491595 25.44942703 5.1391231 29.22474803 5 33 C6.32 33.33 7.64 33.66 9 34 C8.50168276 37.68754757 7.89932357 39.60490662 5 42 C0.63563764 40.83617004 -1.66282422 39.93629606 -4 36 C-4.33 35.34 -4.66 34.68 -5 34 C-4.34 34 -3.68 34 -3 34 C-3.00785522 33.07102905 -3.00785522 33.07102905 -3.01586914 32.12329102 C-3.03688073 29.26970467 -3.04973614 26.41613469 -3.0625 23.5625 C-3.07087891 22.58861328 -3.07925781 21.61472656 -3.08789062 20.61132812 C-3.14106697 4.71160046 -3.14106697 4.71160046 0 0 Z " fill="#010101" transform="translate(358,194)"/>
<path d="M0 0 C1 1 1 1 1.25 3.75 C0.96509961 7.45370503 0.27892579 9.09240502 -2 12 C-4.6135788 13.99457329 -6.36942646 14.90991807 -9.625 15.375 C-12 15 -12 15 -13.875 14 C-15.70606252 10.74477774 -14.770643 7.53924933 -14 4 C-13 1 -13 1 -9.8125 -0.8125 C-5.53094255 -2.14609986 -3.97506149 -1.89288642 0 0 Z " fill="#010101" transform="translate(299,25)"/>
<path d="M0 0 C3.0625 -0.25 3.0625 -0.25 6 0 C7 1 7 1 7.25 4.3125 C7 8 7 8 5.8125 10.4375 C4 12 4 12 1.3125 12.25 C0.549375 12.1675 -0.21375 12.085 -1 12 C-2.50934217 8.98131566 -2.17510672 6.32702771 -2 3 C-1.34 2.01 -0.68 1.02 0 0 Z " fill="#020202" transform="translate(780,213)"/>
<path d="M0 0 C0.33 0.99 0.66 1.98 1 3 C0.67 3.66 0.34 4.32 0 5 C-0.99 5 -1.98 5 -3 5 C-2.625 3.0625 -2.625 3.0625 -2 1 C-1.34 0.67 -0.68 0.34 0 0 Z " fill="#000000" transform="translate(265,70)"/>
<path d="M0 0 C0.99 0 1.98 0 3 0 C2.67 1.32 2.34 2.64 2 4 C1.67 3.34 1.34 2.68 1 2 C0.34 1.67 -0.32 1.34 -1 1 C-0.67 0.67 -0.34 0.34 0 0 Z " fill="#000000" transform="translate(271,81)"/>
<path d="M0 0 C0.66 0.33 1.32 0.66 2 1 C1.67 1.66 1.34 2.32 1 3 C0.01 2.67 -0.98 2.34 -2 2 C-1.34 1.34 -0.68 0.68 0 0 Z " fill="#000000" transform="translate(327,75)"/>
<path d="M0 0 C0.33 0.66 0.66 1.32 1 2 C0.01 3.485 0.01 3.485 -1 5 C-0.67 3.35 -0.34 1.7 0 0 Z " fill="#000000" transform="translate(476,252)"/>
<path d="M0 0 C0.66 0.33 1.32 0.66 2 1 C1.67 1.66 1.34 2.32 1 3 C0.01 2.34 -0.98 1.68 -2 1 C-1.34 0.67 -0.68 0.34 0 0 Z " fill="#000000" transform="translate(287,197)"/>
<path d="M0 0 C0.33 0 0.66 0 1 0 C1 1.98 1 3.96 1 6 C0.67 6 0.34 6 0 6 C0 4.02 0 2.04 0 0 Z " fill="#000000" transform="translate(297,73)"/>
<path d="M0 0 C0.33 0 0.66 0 1 0 C1 1.65 1 3.3 1 5 C0.34 4.01 -0.32 3.02 -1 2 C-0.67 1.34 -0.34 0.68 0 0 Z " fill="#000000" transform="translate(536,37)"/>
<path d="M0 0 C0.99 0.495 0.99 0.495 2 1 C2 1.66 2 2.32 2 3 C1.34 3 0.68 3 0 3 C0 2.01 0 1.02 0 0 Z " fill="#000000" transform="translate(514,208)"/>
<path d="M0 0 C0.33 0.66 0.66 1.32 1 2 C0.34 2.66 -0.32 3.32 -1 4 C-0.67 2.68 -0.34 1.36 0 0 Z " fill="#000000" transform="translate(539,206)"/>
<path d="M0 0 C0.66 0.66 1.32 1.32 2 2 C1.01 2.495 1.01 2.495 0 3 C0 2.01 0 1.02 0 0 Z " fill="#000000" transform="translate(12,243)"/>
<path d="M0 0 C0.99 0 1.98 0 3 0 C2.67 0.66 2.34 1.32 2 2 C1.34 1.34 0.68 0.68 0 0 Z " fill="#000000" transform="translate(515,189)"/>
<path d="M0 0 C0.99 0.33 1.98 0.66 3 1 C2.01 1.33 1.02 1.66 0 2 C0 1.34 0 0.68 0 0 Z " fill="#000000" transform="translate(308,79)"/>
<path d="M0 0 C0 3 0 3 0 3 Z " fill="#000000" transform="translate(591,64)"/>
<path d="M0 0 C0.66 0.33 1.32 0.66 2 1 C1.01 1 0.02 1 -1 1 C-0.67 0.67 -0.34 0.34 0 0 Z " fill="#000000" transform="translate(459,48)"/>
<path d="M0 0 C0.66 0 1.32 0 2 0 C1.67 0.66 1.34 1.32 1 2 C0.67 1.34 0.34 0.68 0 0 Z " fill="#000000" transform="translate(265,212)"/>
<path d="M0 0 C0.66 0 1.32 0 2 0 C1.67 0.66 1.34 1.32 1 2 C0.67 1.34 0.34 0.68 0 0 Z " fill="#000000" transform="translate(516,207)"/>
<path d="M0 0 C0.66 0 1.32 0 2 0 C1.67 0.66 1.34 1.32 1 2 C0.67 1.34 0.34 0.68 0 0 Z " fill="#000000" transform="translate(265,206)"/>
<path d="M0 0 C3 1 3 1 3 1 Z " fill="#000000" transform="translate(283,204)"/>
<path d="M0 0 C0.66 0.66 1.32 1.32 2 2 C1.34 2 0.68 2 0 2 C0 1.34 0 0.68 0 0 Z " fill="#000000" transform="translate(266,203)"/>
<path d="M0 0 C0.99 0.495 0.99 0.495 2 1 C1.01 1.495 1.01 1.495 0 2 C0 1.34 0 0.68 0 0 Z " fill="#000000" transform="translate(363,190)"/>
<path d="M0 0 C0.99 0.495 0.99 0.495 2 1 C1.01 1.495 1.01 1.495 0 2 C0 1.34 0 0.68 0 0 Z " fill="#000000" transform="translate(622,188)"/>
<path d="" fill="#000000" transform="translate(0,0)"/>
<path d="M0 0 C0.99 0.495 0.99 0.495 2 1 C1.01 1.495 1.01 1.495 0 2 C0 1.34 0 0.68 0 0 Z " fill="#000000" transform="translate(311,77)"/>
<path d="M0 0 C0.66 0.66 1.32 1.32 2 2 C1.34 2 0.68 2 0 2 C0 1.34 0 0.68 0 0 Z " fill="#000000" transform="translate(347,72)"/>
<path d="M0 0 C3 1 3 1 3 1 Z " fill="#000000" transform="translate(591,67)"/>
<path d="" fill="#000000" transform="translate(0,0)"/>
<path d="M0 0 C0.33 0.66 0.66 1.32 1 2 C0.34 1.67 -0.32 1.34 -1 1 C-0.67 0.67 -0.34 0.34 0 0 Z " fill="#000000" transform="translate(467,59)"/>
<path d="" fill="#000000" transform="translate(0,0)"/>
<path d="" fill="#000000" transform="translate(0,0)"/>
<path d="M0 0 C2 1 2 1 2 1 Z " fill="#000000" transform="translate(473,224)"/>
<path d="" fill="#000000" transform="translate(0,0)"/>
<path d="M0 0 C2 1 2 1 2 1 Z " fill="#000000" transform="translate(525,217)"/>
<path d="" fill="#000000" transform="translate(0,0)"/>
<path d="" fill="#000000" transform="translate(0,0)"/>
<path d="" fill="#000000" transform="translate(0,0)"/>
<path d="" fill="#000000" transform="translate(0,0)"/>
<path d="" fill="#000000" transform="translate(0,0)"/>
<path d="" fill="#000000" transform="translate(0,0)"/>
<path d="" fill="#000000" transform="translate(0,0)"/>
<path d="M0 0 C2 1 2 1 2 1 Z " fill="#000000" transform="translate(267,200)"/>
<path d="" fill="#000000" transform="translate(0,0)"/>
<path d="" fill="#000000" transform="translate(0,0)"/>
<path d="" fill="#000000" transform="translate(0,0)"/>
<path d="" fill="#000000" transform="translate(0,0)"/>
<path d="" fill="#000000" transform="translate(0,0)"/>
<path d="M0 0 C2 1 2 1 2 1 Z " fill="#000000" transform="translate(663,184)"/>
<path d="" fill="#000000" transform="translate(0,0)"/>
<path d="" fill="#000000" transform="translate(0,0)"/>
<path d="" fill="#000000" transform="translate(0,0)"/>
<path d="" fill="#000000" transform="translate(0,0)"/>
<path d="" fill="#000000" transform="translate(0,0)"/>
<path d="" fill="#000000" transform="translate(0,0)"/>
<path d="" fill="#000000" transform="translate(0,0)"/>
<path d="" fill="#000000" transform="translate(0,0)"/>
<path d="M0 0 C2 1 2 1 2 1 Z " fill="#000000" transform="translate(590,69)"/>
<path d="" fill="#000000" transform="translate(0,0)"/>
<path d="" fill="#000000" transform="translate(0,0)"/>
<path d="" fill="#000000" transform="translate(0,0)"/>
<path d="M0 0 C2 1 2 1 2 1 Z " fill="#000000" transform="translate(419,64)"/>
<path d="" fill="#000000" transform="translate(0,0)"/>
<path d="M0 0 C2 1 2 1 2 1 Z " fill="#000000" transform="translate(455,55)"/>
<path d="M0 0 C2 1 2 1 2 1 Z " fill="#000000" transform="translate(224,53)"/>
<path d="" fill="#000000" transform="translate(0,0)"/>
<path d="" fill="#000000" transform="translate(0,0)"/>
<path d="M0 0 C2 1 2 1 2 1 Z " fill="#000000" transform="translate(456,47)"/>
<path d="M0 0 C2 1 2 1 2 1 Z " fill="#000000" transform="translate(280,44)"/>
<path d="M0 0 C2 1 2 1 2 1 Z " fill="#000000" transform="translate(452,34)"/>
<path d="M0 0 C2 1 2 1 2 1 Z " fill="#000000" transform="translate(576,30)"/>
<path d="" fill="#000000" transform="translate(0,0)"/>
<path d="" fill="#000000" transform="translate(0,0)"/>
<path d="" fill="#000000" transform="translate(0,0)"/>
<path d="" fill="#000000" transform="translate(0,0)"/>
<path d="" fill="#000000" transform="translate(0,0)"/>
<path d="" fill="#000000" transform="translate(0,0)"/>
<path d="" fill="#000000" transform="translate(0,0)"/>
<path d="" fill="#000000" transform="translate(0,0)"/>
<path d="" fill="#000000" transform="translate(0,0)"/>
<path d="" fill="#000000" transform="translate(0,0)"/>
<path d="" fill="#000000" transform="translate(0,0)"/>
<path d="" fill="#000000" transform="translate(0,0)"/>
<path d="" fill="#000000" transform="translate(0,0)"/>
<path d="" fill="#000000" transform="translate(0,0)"/>
<path d="" fill="#000000" transform="translate(0,0)"/>
<path d="" fill="#000000" transform="translate(0,0)"/>
<path d="" fill="#000000" transform="translate(0,0)"/>
<path d="" fill="#000000" transform="translate(0,0)"/>
<path d="" fill="#000000" transform="translate(0,0)"/>
<path d="" fill="#000000" transform="translate(0,0)"/>
<path d="" fill="#000000" transform="translate(0,0)"/>
<path d="" fill="#000000" transform="translate(0,0)"/>
<path d="" fill="#000000" transform="translate(0,0)"/>
<path d="" fill="#000000" transform="translate(0,0)"/>
<path d="" fill="#000000" transform="translate(0,0)"/>
<path d="" fill="#000000" transform="translate(0,0)"/>
<path d="" fill="#000000" transform="translate(0,0)"/>
<path d="" fill="#000000" transform="translate(0,0)"/>
<path d="" fill="#000000" transform="translate(0,0)"/>
<path d="" fill="#000000" transform="translate(0,0)"/>
<path d="" fill="#000000" transform="translate(0,0)"/>
<path d="" fill="#000000" transform="translate(0,0)"/>
<path d="" fill="#000000" transform="translate(0,0)"/>
<path d="" fill="#000000" transform="translate(0,0)"/>
<path d="" fill="#000000" transform="translate(0,0)"/>
<path d="" fill="#000000" transform="translate(0,0)"/>
<path d="" fill="#000000" transform="translate(0,0)"/>
<path d="" fill="#000000" transform="translate(0,0)"/>
<path d="" fill="#000000" transform="translate(0,0)"/>
<path d="" fill="#000000" transform="translate(0,0)"/>
<path d="" fill="#000000" transform="translate(0,0)"/>
<path d="" fill="#000000" transform="translate(0,0)"/>
<path d="" fill="#000000" transform="translate(0,0)"/>
<path d="" fill="#000000" transform="translate(0,0)"/>
<path d="" fill="#000000" transform="translate(0,0)"/>
<path d="" fill="#000000" transform="translate(0,0)"/>
<path d="" fill="#000000" transform="translate(0,0)"/>
<path d="" fill="#000000" transform="translate(0,0)"/>
<path d="" fill="#000000" transform="translate(0,0)"/>
<path d="" fill="#000000" transform="translate(0,0)"/>
<path d="" fill="#000000" transform="translate(0,0)"/>
<path d="" fill="#000000" transform="translate(0,0)"/>
<path d="" fill="#000000" transform="translate(0,0)"/>
<path d="" fill="#000000" transform="translate(0,0)"/>
<path d="" fill="#000000" transform="translate(0,0)"/>
<path d="" fill="#000000" transform="translate(0,0)"/>
<path d="" fill="#000000" transform="translate(0,0)"/>
<path d="" fill="#000000" transform="translate(0,0)"/>
<path d="" fill="#000000" transform="translate(0,0)"/>
<path d="" fill="#000000" transform="translate(0,0)"/>
<path d="" fill="#000000" transform="translate(0,0)"/>
<path d="" fill="#000000" transform="translate(0,0)"/>
<path d="" fill="#000000" transform="translate(0,0)"/>
<path d="" fill="#000000" transform="translate(0,0)"/>
<path d="" fill="#000000" transform="translate(0,0)"/>
<path d="" fill="#000000" transform="translate(0,0)"/>
<path d="" fill="#000000" transform="translate(0,0)"/>
<path d="" fill="#000000" transform="translate(0,0)"/>
<path d="" fill="#000000" transform="translate(0,0)"/>
<path d="" fill="#000000" transform="translate(0,0)"/>
<path d="" fill="#000000" transform="translate(0,0)"/>
<path d="" fill="#000000" transform="translate(0,0)"/>
<path d="" fill="#000000" transform="translate(0,0)"/>
<path d="" fill="#000000" transform="translate(0,0)"/>
<path d="" fill="#000000" transform="translate(0,0)"/>
<path d="" fill="#000000" transform="translate(0,0)"/>
<path d="" fill="#000000" transform="translate(0,0)"/>
<path d="" fill="#000000" transform="translate(0,0)"/>
<path d="" fill="#000000" transform="translate(0,0)"/>
<path d="" fill="#000000" transform="translate(0,0)"/>
<path d="" fill="#000000" transform="translate(0,0)"/>
<path d="" fill="#000000" transform="translate(0,0)"/>
<path d="" fill="#000000" transform="translate(0,0)"/>
<path d="" fill="#000000" transform="translate(0,0)"/>
<path d="" fill="#000000" transform="translate(0,0)"/>
<path d="" fill="#000000" transform="translate(0,0)"/>
<path d="" fill="#000000" transform="translate(0,0)"/>
<path d="" fill="#000000" transform="translate(0,0)"/>
<path d="" fill="#000000" transform="translate(0,0)"/>
<path d="" fill="#000000" transform="translate(0,0)"/>
<path d="" fill="#000000" transform="translate(0,0)"/>
<path d="" fill="#000000" transform="translate(0,0)"/>
<path d="" fill="#000000" transform="translate(0,0)"/>
<path d="" fill="#000000" transform="translate(0,0)"/>
<path d="" fill="#000000" transform="translate(0,0)"/>
<path d="" fill="#000000" transform="translate(0,0)"/>
<path d="" fill="#000000" transform="translate(0,0)"/>
<path d="" fill="#000000" transform="translate(0,0)"/>
<path d="" fill="#000000" transform="translate(0,0)"/>
<path d="" fill="#000000" transform="translate(0,0)"/>
<path d="" fill="#000000" transform="translate(0,0)"/>
<path d="" fill="#000000" transform="translate(0,0)"/>
<path d="" fill="#000000" transform="translate(0,0)"/>
<path d="" fill="#000000" transform="translate(0,0)"/>
<path d="" fill="#000000" transform="translate(0,0)"/>
<path d="" fill="#000000" transform="translate(0,0)"/>
<path d="" fill="#000000" transform="translate(0,0)"/>
<path d="" fill="#000000" transform="translate(0,0)"/>
<path d="" fill="#000000" transform="translate(0,0)"/>
<path d="" fill="#000000" transform="translate(0,0)"/>
<path d="" fill="#000000" transform="translate(0,0)"/>
<path d="" fill="#000000" transform="translate(0,0)"/>
<path d="" fill="#000000" transform="translate(0,0)"/>
<path d="" fill="#000000" transform="translate(0,0)"/>
<path d="" fill="#000000" transform="translate(0,0)"/>
<path d="" fill="#000000" transform="translate(0,0)"/>
<path d="" fill="#000000" transform="translate(0,0)"/>
<path d="" fill="#000000" transform="translate(0,0)"/>
<path d="" fill="#000000" transform="translate(0,0)"/>
<path d="" fill="#000000" transform="translate(0,0)"/>
<path d="" fill="#000000" transform="translate(0,0)"/>
<path d="" fill="#000000" transform="translate(0,0)"/>
<path d="" fill="#000000" transform="translate(0,0)"/>
<path d="" fill="#000000" transform="translate(0,0)"/>
<path d="" fill="#000000" transform="translate(0,0)"/>
<path d="" fill="#000000" transform="translate(0,0)"/>
<path d="" fill="#000000" transform="translate(0,0)"/>
<path d="" fill="#000000" transform="translate(0,0)"/>
<path d="" fill="#000000" transform="translate(0,0)"/>
<path d="" fill="#000000" transform="translate(0,0)"/>
<path d="" fill="#000000" transform="translate(0,0)"/>
<path d="" fill="#000000" transform="translate(0,0)"/>
<path d="" fill="#000000" transform="translate(0,0)"/>
<path d="" fill="#000000" transform="translate(0,0)"/>
<path d="" fill="#000000" transform="translate(0,0)"/>
<path d="" fill="#000000" transform="translate(0,0)"/>
<path d="" fill="#000000" transform="translate(0,0)"/>
<path d="" fill="#000000" transform="translate(0,0)"/>
<path d="" fill="#000000" transform="translate(0,0)"/>
<path d="" fill="#000000" transform="translate(0,0)"/>
<path d="" fill="#000000" transform="translate(0,0)"/>
<path d="" fill="#000000" transform="translate(0,0)"/>
<path d="" fill="#000000" transform="translate(0,0)"/>
<path d="" fill="#000000" transform="translate(0,0)"/>
<path d="" fill="#000000" transform="translate(0,0)"/>
<path d="" fill="#000000" transform="translate(0,0)"/>
<path d="" fill="#000000" transform="translate(0,0)"/>
<path d="" fill="#000000" transform="translate(0,0)"/>
<path d="" fill="#000000" transform="translate(0,0)"/>
<path d="" fill="#000000" transform="translate(0,0)"/>
<path d="" fill="#000000" transform="translate(0,0)"/>
<path d="" fill="#000000" transform="translate(0,0)"/>
<path d="" fill="#000000" transform="translate(0,0)"/>
<path d="" fill="#000000" transform="translate(0,0)"/>
<path d="" fill="#000000" transform="translate(0,0)"/>
<path d="" fill="#000000" transform="translate(0,0)"/>
<path d="" fill="#000000" transform="translate(0,0)"/>
<path d="" fill="#000000" transform="translate(0,0)"/>
<path d="" fill="#000000" transform="translate(0,0)"/>
<path d="" fill="#000000" transform="translate(0,0)"/>
<path d="" fill="#000000" transform="translate(0,0)"/>
<path d="" fill="#000000" transform="translate(0,0)"/>
<path d="" fill="#000000" transform="translate(0,0)"/>
<path d="" fill="#000000" transform="translate(0,0)"/>
<path d="" fill="#000000" transform="translate(0,0)"/>
<path d="" fill="#000000" transform="translate(0,0)"/>
<path d="" fill="#000000" transform="translate(0,0)"/>
<path d="" fill="#000000" transform="translate(0,0)"/>
<path d="" fill="#000000" transform="translate(0,0)"/>
<path d="" fill="#000000" transform="translate(0,0)"/>
<path d="" fill="#000000" transform="translate(0,0)"/>
<path d="" fill="#000000" transform="translate(0,0)"/>
<path d="" fill="#000000" transform="translate(0,0)"/>
<path d="" fill="#000000" transform="translate(0,0)"/>
<path d="" fill="#000000" transform="translate(0,0)"/>
<path d="" fill="#000000" transform="translate(0,0)"/>
<path d="" fill="#000000" transform="translate(0,0)"/>
<path d="" fill="#000000" transform="translate(0,0)"/>
<path d="" fill="#000000" transform="translate(0,0)"/>
<path d="" fill="#000000" transform="translate(0,0)"/>
<path d="" fill="#000000" transform="translate(0,0)"/>
<path d="" fill="#000000" transform="translate(0,0)"/>
<path d="" fill="#000000" transform="translate(0,0)"/>
<path d="" fill="#000000" transform="translate(0,0)"/>
<path d="" fill="#000000" transform="translate(0,0)"/>
<path d="" fill="#000000" transform="translate(0,0)"/>
<path d="" fill="#000000" transform="translate(0,0)"/>
<path d="" fill="#000000" transform="translate(0,0)"/>
<path d="" fill="#000000" transform="translate(0,0)"/>
<path d="" fill="#000000" transform="translate(0,0)"/>
<path d="" fill="#000000" transform="translate(0,0)"/>
<path d="" fill="#000000" transform="translate(0,0)"/>
<path d="" fill="#000000" transform="translate(0,0)"/>
<path d="" fill="#000000" transform="translate(0,0)"/>
<path d="" fill="#000000" transform="translate(0,0)"/>
<path d="" fill="#000000" transform="translate(0,0)"/>
<path d="" fill="#000000" transform="translate(0,0)"/>
<path d="" fill="#000000" transform="translate(0,0)"/>
<path d="" fill="#000000" transform="translate(0,0)"/>
<path d="" fill="#000000" transform="translate(0,0)"/>
<path d="" fill="#000000" transform="translate(0,0)"/>
<path d="" fill="#000000" transform="translate(0,0)"/>
<path d="" fill="#000000" transform="translate(0,0)"/>
<path d="" fill="#000000" transform="translate(0,0)"/>
<path d="" fill="#000000" transform="translate(0,0)"/>
<path d="" fill="#000000" transform="translate(0,0)"/>
<path d="" fill="#000000" transform="translate(0,0)"/>
<path d="" fill="#000000" transform="translate(0,0)"/>
<path d="" fill="#000000" transform="translate(0,0)"/>
<path d="" fill="#000000" transform="translate(0,0)"/>
<path d="" fill="#000000" transform="translate(0,0)"/>
<path d="" fill="#000000" transform="translate(0,0)"/>
<path d="" fill="#000000" transform="translate(0,0)"/>
<path d="" fill="#000000" transform="translate(0,0)"/>
<path d="" fill="#000000" transform="translate(0,0)"/>
<path d="" fill="#000000" transform="translate(0,0)"/>
<path d="" fill="#000000" transform="translate(0,0)"/>
<path d="" fill="#000000" transform="translate(0,0)"/>
<path d="" fill="#000000" transform="translate(0,0)"/>
<path d="" fill="#000000" transform="translate(0,0)"/>
<path d="" fill="#000000" transform="translate(0,0)"/>
<path d="" fill="#000000" transform="translate(0,0)"/>
<path d="" fill="#000000" transform="translate(0,0)"/>
<path d="" fill="#000000" transform="translate(0,0)"/>
</svg>
